<?xml version="1.0" encoding="UTF-8" standalone="no"?>
<svg width="201px" height="117px" viewBox="0 0 201 117" version="1.1" xmlns="http://www.w3.org/2000/svg" xmlns:xlink="http://www.w3.org/1999/xlink" xmlns:sketch="http://www.bohemiancoding.com/sketch/ns">
    <!-- Generator: Sketch 3.4.2 (15855) - http://www.bohemiancoding.com/sketch -->
    <title>Logo</title>
    <desc>Created with Sketch.</desc>
    <defs></defs>
    <g id="Home" stroke="none" stroke-width="1" fill="none" fill-rule="evenodd" sketch:type="MSPage">
        <g id="Desktop-HD" sketch:type="MSArtboardGroup" transform="translate(-474.000000, -1314.000000)">
            <g id="Page" sketch:type="MSLayerGroup" transform="translate(0.000000, 189.000000)">
                <g id="Content" transform="translate(0.000000, 143.000000)" sketch:type="MSShapeGroup">
                    <g id="Featured-projects" transform="translate(0.000000, 890.000000)">
                        <g id="product-1">
                            <g id="Logo" transform="translate(474.000000, 93.000000)">
                                <g id="blue-sky-logo">
                                    <path d="M0,43 L14.9680893,43 C17.2007377,43 19.0675495,43.2769101 20.5682162,43.8288823 C22.0679495,44.3820865 23.2715315,45.1074741 24.179273,46.0053529 C25.0863924,46.9041557 25.7406009,47.931711 26.1418986,49.0889429 C26.542574,50.2467907 26.743845,51.4126471 26.743845,52.5868201 C26.743845,53.5891177 26.5687051,54.539052 26.2206026,55.4369308 C25.8712559,56.3357337 25.3741445,57.1301177 24.7289575,57.8206989 C24.0828371,58.5122042 23.3157053,59.0903581 22.4260066,59.5567007 C21.5363079,60.0230432 20.5501734,60.3258271 19.4691583,60.4635121 L19.5736823,60.5673149 C19.8175718,60.5331247 20.3930762,60.6369275 21.3008177,60.8781073 C22.207626,61.1202111 23.1589192,61.5776211 24.153142,62.2512612 C25.1476758,62.9249013 26.0373745,63.8578945 26.822238,65.0496246 C27.6074127,66.2416626 28,67.7703668 28,69.635737 C28,71.3289239 27.6858057,72.8148133 27.0577282,74.092481 C26.4299618,75.3710728 25.5483513,76.4503755 24.4147631,77.3313131 C23.2805529,78.2122509 21.9108524,78.8778825 20.306595,79.3263599 C18.7010932,79.7757613 16.9216958,80 14.9680893,80 L0,80 L0,43 L0,43 Z M14.9680893,59.789872 C18.1426985,59.789872 20.5159541,59.0903582 22.0859924,57.6910225 C23.6560306,56.2919949 24.4408942,54.4521904 24.4408942,52.1722249 C24.4408942,50.8249447 24.179273,49.6935866 23.6560306,48.7778425 C23.1324772,47.8630226 22.4344059,47.1197699 21.5624389,46.5496245 C20.6898498,45.9794792 19.6866057,45.5738166 18.5533287,45.3317127 C17.4191184,45.0905329 16.2242468,44.969173 14.9680894,44.969173 L2.30295086,44.969173 L2.30295086,59.7898719 L14.9680893,59.7898719 L14.9680893,59.789872 Z M14.9680893,78.030827 C18.3178384,78.030827 20.9427607,77.3313132 22.844725,75.9319775 C24.7460671,74.5329499 25.6970492,72.4341004 25.6970492,69.6357371 C25.6970492,68.047277 25.3651232,66.7428115 24.7028265,65.7232648 C24.0395965,64.704642 23.1931384,63.9016334 22.1643854,63.3136229 C21.1346992,62.7265364 19.9833793,62.3208739 18.7101147,62.0960191 C17.4362279,61.8714724 16.1890944,61.759045 14.9680893,61.759045 L2.30295086,61.759045 L2.30295086,78.0308271 L14.9680893,78.0308271 L14.9680893,78.030827 Z" id="Shape" fill="#0D5685"></path>
                                    <path d="M40,43 L40,80 L38,80 L38,43 L40,43 L40,43 Z" id="Shape" fill="#0D5685"></path>
                                    <path d="M72,79.3839874 L70.0393294,79.3839874 L70.0393294,73.7377073 L69.9362815,73.7377073 C69.5918684,74.7305202 69.1017773,75.6110543 68.4657018,76.3811403 C67.8287062,77.1512263 67.0895827,77.8102539 66.2471047,78.3573079 C65.4037066,78.9052771 64.4839426,79.315949 63.486586,79.5893234 C62.4886159,79.8627026 61.4743914,80 60.4423787,80 C58.8945131,80 57.5788121,79.8114449 56.4952755,79.4352452 C55.4117389,79.0590503 54.5257108,78.5626438 53.8378047,77.9466361 C53.1495918,77.3306283 52.6076702,76.637734 52.2126532,75.8679531 C51.8167161,75.0978671 51.5330277,74.3198484 51.3612811,73.5323714 C51.1886145,72.7455047 51.0855666,71.9842667 51.0518306,71.2480475 C51.0171746,70.5127435 51,69.8711069 51,69.3231377 L51,53 L52.9606706,53 L52.9606706,69.6825518 C52.9606706,70.3675134 53.0125012,71.1967898 53.1155492,72.1719066 C53.2189038,73.1473285 53.5194602,74.0888836 54.0184452,74.9953517 C54.5168168,75.90243 55.2648343,76.6810589 56.263111,77.3306283 C57.2601609,77.9811129 58.6703226,78.3060502 60.4939027,78.3060502 C61.9724563,78.3060502 63.3059454,78.0326758 64.4928365,77.4847065 C65.6794211,76.9376526 66.6856717,76.1758045 67.5112818,75.2006877 C68.3368919,74.2252658 68.9640734,73.0622041 69.3943598,71.7099771 C69.8243395,70.3586653 70.0393294,68.8789043 70.0393294,67.2700836 L70.0393294,53 L72,53 L72,79.3839874 L72,79.3839874 Z" id="Shape" fill="#0D5685"></path>
                                    <path d="M83.9208479,66.2603137 L83.9208479,66.5724456 C83.9208479,68.1337239 84.1230583,69.6260175 84.5289813,71.0483986 C84.9340029,72.4713984 85.5337233,73.7205446 86.3281426,74.7955282 C87.1219609,75.8714398 88.1185905,76.7212181 89.3183319,77.3457912 C90.5174723,77.9703644 91.911612,78.2824963 93.4998496,78.2824963 C96.1015426,78.2824963 98.1630065,77.5799675 99.6836404,76.1746006 C101.203964,74.769543 102.251381,72.8178679 102.826464,70.3195753 L104.747012,70.3195753 C104.173732,73.442441 102.935231,75.8364835 101.031509,77.5017025 C99.1274869,79.1672309 96.6087211,80 93.474611,80 C91.5537629,80 89.8768892,79.6436314 88.4448914,78.9330547 C87.0122927,78.2221735 85.8164573,77.2505121 84.8558831,76.0186893 C83.8956093,74.7874851 83.1790094,73.3301478 82.707586,71.6469865 C82.2352611,69.964444 82,68.151666 82,66.2083433 C82,64.3346238 82.2439745,62.5391693 82.7328247,60.8216705 C83.2210741,59.1041716 83.9538988,57.5948639 84.9315994,56.2937471 C85.908699,54.9926304 87.1306745,53.9516751 88.5966244,53.1711907 C90.0625743,52.3903969 91.7890241,52 93.7777764,52 C95.5976695,52 97.2066389,52.3473975 98.6052855,53.0409553 C100.003331,53.735441 101.174529,54.6804984 102.118578,55.877365 C103.061425,57.0745409 103.778325,58.4625844 104.266875,60.0408767 C104.754824,61.6200971 105,63.3116107 105,65.1154176 C105,65.289271 104.990986,65.488491 104.974761,65.7136961 C104.957335,65.9398294 104.949523,66.1220352 104.949523,66.2603137 L83.9208479,66.2603137 L83.9208479,66.2603137 Z M103.028374,64.5428149 C102.96047,63.0854775 102.724307,61.7064051 102.319286,60.4052884 C101.913062,59.1041717 101.313943,57.9592756 100.520124,56.9702907 C99.725705,55.9816152 98.7624265,55.1927784 97.6305894,54.6022335 C96.4981514,54.012926 95.205868,53.7174988 93.7534388,53.7174988 C92.1988529,53.7174988 90.8302524,54.0218971 89.6479378,54.6285281 C88.4647218,55.2357777 87.4677917,56.0335856 86.657448,57.0225705 C85.8465034,58.011246 85.2215442,59.1651131 84.7825705,60.483244 C84.3432963,61.8023029 84.0722803,63.1553901 83.9713254,64.5428148 L103.028374,64.5428148 L103.028374,64.5428149 Z" id="Shape" fill="#0D5685"></path>
                                    <path d="M138.855018,53.5225428 C138.786885,51.9243246 138.457072,50.5337476 137.866182,49.3514319 C137.274086,48.1703558 136.471561,47.1795659 135.456798,46.379682 C134.442638,45.580418 133.233122,44.9807375 131.830663,44.5806406 C130.426997,44.1814734 128.896713,43.98127 127.240412,43.98127 C126.225649,43.98127 125.135517,44.1033755 123.968811,44.3460369 C122.802105,44.589628 121.719811,45.0157576 120.722534,45.6234957 C119.725256,46.2321637 118.904642,47.0490928 118.262502,48.073973 C117.619758,49.099783 117.298989,50.3772418 117.298989,51.9063496 C117.298989,53.401367 117.654126,54.6174632 118.3644,55.5561878 C119.074674,56.4946025 120.003818,57.2504789 121.153642,57.8241267 C122.302863,58.3977745 123.621512,58.8586142 125.110193,59.2057161 C126.597668,59.5537477 128.102629,59.8834945 129.623869,60.1965061 C131.178875,60.5092077 132.69288,60.8832719 134.163472,61.3174592 C135.634668,61.7525762 136.953317,62.3432692 138.11942,63.0901581 C139.286127,63.8379767 140.224315,64.8107917 140.934589,66.0098428 C141.644863,67.2092037 142,68.7132085 142,70.5199978 C142,72.4671773 141.594215,74.1004156 140.782646,75.4212622 C139.971077,76.7424188 138.947872,77.8196742 137.713636,78.6536484 C136.479399,79.4879326 135.109499,80.087613 133.605744,80.4526947 C132.100784,80.8174616 130.654912,81 129.269335,81 C127.139117,81 125.143355,80.7653963 123.283861,80.2961841 C121.424366,79.8269768 119.801228,79.0627328 118.415048,78.0019027 C117.028265,76.9420023 115.93753,75.5774581 115.143447,73.9091997 C114.34876,72.2406314 113.968299,70.2072962 114.002064,67.8088842 L116.234181,67.8088842 C116.132283,69.8601943 116.419287,71.5888856 117.096398,72.9965077 C117.772304,74.4044397 118.710493,75.5604129 119.911567,76.4638075 C121.110833,77.3681319 122.523542,78.0198776 124.146681,78.4190448 C125.769217,78.8191417 127.476165,79.0187252 129.269335,79.0187252 C130.351026,79.0187252 131.508688,78.8801944 132.743527,78.6015831 C133.977161,78.3239016 135.109499,77.8546943 136.141748,77.1939611 C137.172791,76.5338477 138.035008,75.6648533 138.728399,74.586978 C139.421187,73.5100325 139.767883,72.1541658 139.767883,70.5199978 C139.767883,68.9558699 139.412746,67.678411 138.703075,66.687931 C137.992801,65.6971411 137.054612,64.8978771 135.887906,64.289519 C134.7212,63.6817808 133.402551,63.1945985 131.931958,62.8295217 C130.460762,62.4644449 128.947361,62.1257107 127.392355,61.8126992 C125.871115,61.4999976 124.366154,61.1349208 122.878679,60.7177787 C121.389998,60.3006366 120.071349,59.7362861 118.922128,59.0231777 C117.772304,58.311309 116.842557,57.3899394 116.132283,56.2599988 C115.422612,55.1306781 115.067475,53.6790485 115.067475,51.9063496 C115.067475,50.1336507 115.43045,48.6135304 116.157607,47.3441293 C116.884763,46.0756578 117.831393,45.0501578 118.998099,44.2679389 C120.164806,43.48572 121.475014,42.9123821 122.929327,42.5473053 C124.382434,42.1822285 125.819864,42 127.240412,42 C129.133672,42 130.900312,42.2172486 132.540333,42.6517458 C134.180355,43.0865529 135.617182,43.7643313 136.851419,44.685081 C138.085655,45.6064505 139.074492,46.796824 139.818531,48.2565114 C140.561967,49.7165086 140.985237,51.4721623 141.086532,53.5225427 L138.855018,53.5225427 L138.855018,53.5225428 Z" id="Shape" fill="#00AEEF"></path>
                                    <path d="M153,43 L154.962104,43 L154.962104,67.5110138 L171.333026,53.363955 L174.173657,53.363955 L162.5539,63.3136228 L175,80 L172.314692,80 L161.004353,64.8164533 L154.962104,69.9468374 L154.962104,80 L153,80 L153,43 L153,43 Z" id="Shape" fill="#00AEEF"></path>
                                    <path d="M178,53 L180.275062,53 L189.929353,77.189044 L198.825892,53 L201,53 L189.878877,82.346664 C189.339856,83.6529287 188.8429,84.7789345 188.388008,85.7249878 C187.933116,86.6701214 187.418733,87.3663259 186.846061,87.8136013 C186.171835,88.3632687 185.371417,88.6986486 184.444807,88.8194344 C183.517596,88.939607 182.296538,89 180.780431,89 L180.780431,87.2979624 C182.161933,87.2979624 183.239974,87.1860669 184.015153,86.9625825 C184.790333,86.7387916 185.514435,86.2832391 186.189262,85.5959249 C186.559425,85.2173196 186.947015,84.5208086 187.35143,83.5070049 C187.755846,82.492588 188.261816,81.1087628 188.868138,79.3552179 L178,53 L178,53 Z" id="Shape" fill="#00AEEF"></path>
                                    <path d="M130,30.5539805 C130,30.5539805 129.047637,28.8103319 126.175147,27.8400704 C123.79599,27.0364451 122.715709,26.9582055 119.299778,26.949205 C119.295884,26.8864832 119.291388,26.8240773 119.28627,26.7617272 C118.670491,19.2590626 111.00124,13.7623352 102.19063,14.5088871 C100.429816,14.6580859 98.7028762,15.0581818 97.0818331,15.686247 C93.9639722,5.39396059 82.0269005,-0.292409133 74.1185072,0.0115934838 C62.9860263,0.439531345 55.5540345,7.01738808 52.502945,16.0756391 C50.4255413,15.6089735 48.2415951,15.4600115 46.069573,15.6440547 C37.2067887,16.3950267 30.0826198,22.4198463 29.1298312,29.9696532 L29,31" id="Shape" stroke="#00AEEF" stroke-width="2"></path>
                                </g>
                                <path d="M23.8847656,107.634766 C23.7115877,107.880861 23.449546,108.158853 23.0986328,108.46875 C22.7477196,108.778647 22.291995,109.065754 21.7314453,109.330078 C21.1708956,109.594402 20.4964232,109.817707 19.7080078,110 C18.9195924,110.182293 18.0058646,110.273438 16.9667969,110.273438 C15.7910097,110.273438 14.7154997,110.061526 13.7402344,109.637695 C12.7649691,109.213865 11.9241572,108.607751 11.2177734,107.819336 C10.5113897,107.030921 9.96224154,106.076177 9.5703125,104.955078 C9.17838346,103.833979 8.98242188,102.576179 8.98242188,101.181641 L8.98242188,98.7617188 C8.98242188,97.3945244 9.16015447,96.1595107 9.515625,95.0566406 C9.87109553,93.9537705 10.3837857,93.0149778 11.0537109,92.2402344 C11.7236362,91.4654909 12.5325473,90.8684917 13.4804688,90.4492188 C14.4283902,90.0299458 15.499343,89.8203125 16.6933594,89.8203125 C17.7962295,89.8203125 18.7714801,89.968423 19.6191406,90.2646484 C20.4668011,90.5608739 21.186846,90.9733046 21.7792969,91.5019531 C22.3717478,92.0306016 22.8411441,92.6526657 23.1875,93.3681641 C23.5338559,94.0836624 23.7617182,94.8606729 23.8710938,95.6992188 L22.1894531,95.6992188 C22.0891922,95.1067679 21.9160169,94.5416694 21.6699219,94.0039062 C21.4238269,93.4661431 21.0820334,92.9944682 20.6445312,92.5888672 C20.2070291,92.1832662 19.6669954,91.8597017 19.0244141,91.6181641 C18.3818327,91.3766264 17.6093795,91.2558594 16.7070312,91.2558594 C15.731766,91.2558594 14.8704464,91.4358706 14.1230469,91.7958984 C13.3756473,92.1559263 12.7444687,92.6617806 12.2294922,93.3134766 C11.7145157,93.9651725 11.3248711,94.7512975 11.0605469,95.671875 C10.7962226,96.5924525 10.6640625,97.6132756 10.6640625,98.734375 L10.6640625,101.181641 C10.6640625,102.348313 10.8144516,103.403316 11.1152344,104.34668 C11.4160171,105.290044 11.8421196,106.094398 12.3935547,106.759766 C12.9449897,107.425134 13.608069,107.940102 14.3828125,108.304688 C15.157556,108.669273 16.0188755,108.851562 16.9667969,108.851562 C17.7324257,108.851562 18.4068981,108.794597 18.9902344,108.680664 C19.5735706,108.566731 20.0794249,108.423178 20.5078125,108.25 C20.9362001,108.076822 21.2893866,107.889975 21.5673828,107.689453 C21.845379,107.488931 22.0572909,107.297527 22.203125,107.115234 L22.203125,101.974609 L16.8574219,101.974609 L16.8574219,100.552734 L23.8847656,100.552734 L23.8847656,107.634766 Z M35.109375,96.6015625 C34.7630191,96.5377601 34.3938822,96.5058594 34.0019531,96.5058594 C33.4459608,96.5058594 32.9446637,96.5878898 32.4980469,96.7519531 C32.0514301,96.9160164 31.6572283,97.1461574 31.3154297,97.4423828 C30.9736311,97.7386083 30.6865246,98.0895162 30.4541016,98.4951172 C30.2216785,98.9007182 30.0371101,99.3496069 29.9003906,99.8417969 L29.9003906,110 L28.2734375,110 L28.2734375,95.2070312 L29.8730469,95.2070312 L29.9003906,97.5585938 C30.3014343,96.7473918 30.8460252,96.1070987 31.5341797,95.6376953 C32.2223342,95.1682919 33.0677033,94.9335938 34.0703125,94.9335938 C34.2708343,94.9335938 34.4759104,94.9518227 34.6855469,94.9882812 C34.8951833,95.0247398 35.0501297,95.065755 35.1503906,95.1113281 L35.109375,96.6015625 Z M43.1621094,110.273438 C42.1959587,110.273438 41.3072957,110.093426 40.4960938,109.733398 C39.6848918,109.373371 38.9853545,108.872074 38.3974609,108.229492 C37.8095674,107.586911 37.3515641,106.823572 37.0234375,105.939453 C36.6953109,105.055334 36.53125,104.084641 36.53125,103.027344 L36.53125,102.439453 C36.53125,101.300125 36.7021467,100.267908 37.0439453,99.3427734 C37.3857439,98.4176386 37.8483044,97.629235 38.4316406,96.9775391 C39.0149769,96.3258431 39.6871707,95.8222674 40.4482422,95.4667969 C41.2093137,95.1113263 42.0136676,94.9335938 42.8613281,94.9335938 C43.8001349,94.9335938 44.6341109,95.1022119 45.3632812,95.4394531 C46.0924516,95.7766944 46.7054012,96.2460907 47.2021484,96.8476562 C47.6988957,97.4492218 48.0748685,98.1647094 48.3300781,98.9941406 C48.5852877,99.8235719 48.7128906,100.730464 48.7128906,101.714844 L48.7128906,102.712891 L38.1582031,102.712891 L38.1582031,103.027344 C38.1582031,103.838546 38.2812488,104.601884 38.5273438,105.317383 C38.7734387,106.032881 39.1197894,106.654945 39.5664062,107.183594 C40.0130231,107.712242 40.5462209,108.12923 41.1660156,108.43457 C41.7858104,108.73991 42.4739546,108.892578 43.2304688,108.892578 C44.1054731,108.892578 44.8779263,108.733075 45.5478516,108.414062 C46.2177768,108.09505 46.8261691,107.584639 47.3730469,106.882812 L48.3984375,107.662109 C48.1523425,108.01758 47.8675146,108.354816 47.5439453,108.673828 C47.220376,108.99284 46.8444032,109.270832 46.4160156,109.507812 C45.9876281,109.744793 45.50456,109.93164 44.9667969,110.068359 C44.4290338,110.205079 43.8274773,110.273438 43.1621094,110.273438 L43.1621094,110.273438 Z M42.8613281,96.328125 C42.2415334,96.328125 41.6673204,96.4466134 41.1386719,96.6835938 C40.6100234,96.9205741 40.1429057,97.2578103 39.7373047,97.6953125 C39.3317037,98.1328147 38.9990247,98.6591766 38.7392578,99.2744141 C38.4794909,99.8896515 38.3040369,100.57096 38.2128906,101.318359 L47.0859375,101.318359 L47.0859375,101.140625 C47.0677082,100.52083 46.9674488,99.9215524 46.7851562,99.3427734 C46.6028637,98.7639945 46.3362648,98.2513043 45.9853516,97.8046875 C45.6344383,97.3580707 45.1992213,97.0003269 44.6796875,96.7314453 C44.1601537,96.4625638 43.5540399,96.328125 42.8613281,96.328125 L42.8613281,96.328125 Z M57.6269531,110.273438 C56.6608025,110.273438 55.7721395,110.093426 54.9609375,109.733398 C54.1497355,109.373371 53.4501983,108.872074 52.8623047,108.229492 C52.2744111,107.586911 51.8164079,106.823572 51.4882812,105.939453 C51.1601546,105.055334 50.9960938,104.084641 50.9960938,103.027344 L50.9960938,102.439453 C50.9960938,101.300125 51.1669905,100.267908 51.5087891,99.3427734 C51.8505876,98.4176386 52.3131481,97.629235 52.8964844,96.9775391 C53.4798206,96.3258431 54.1520144,95.8222674 54.9130859,95.4667969 C55.6741575,95.1113263 56.4785114,94.9335938 57.3261719,94.9335938 C58.2649787,94.9335938 59.0989547,95.1022119 59.828125,95.4394531 C60.5572953,95.7766944 61.1702449,96.2460907 61.6669922,96.8476562 C62.1637395,97.4492218 62.5397123,98.1647094 62.7949219,98.9941406 C63.0501315,99.8235719 63.1777344,100.730464 63.1777344,101.714844 L63.1777344,102.712891 L52.6230469,102.712891 L52.6230469,103.027344 C52.6230469,103.838546 52.7460925,104.601884 52.9921875,105.317383 C53.2382825,106.032881 53.5846332,106.654945 54.03125,107.183594 C54.4778668,107.712242 55.0110646,108.12923 55.6308594,108.43457 C56.2506541,108.73991 56.9387983,108.892578 57.6953125,108.892578 C58.5703169,108.892578 59.3427701,108.733075 60.0126953,108.414062 C60.6826205,108.09505 61.2910129,107.584639 61.8378906,106.882812 L62.8632812,107.662109 C62.6171863,108.01758 62.3323584,108.354816 62.0087891,108.673828 C61.6852197,108.99284 61.3092469,109.270832 60.8808594,109.507812 C60.4524718,109.744793 59.9694037,109.93164 59.4316406,110.068359 C58.8938775,110.205079 58.292321,110.273438 57.6269531,110.273438 L57.6269531,110.273438 Z M57.3261719,96.328125 C56.7063771,96.328125 56.1321641,96.4466134 55.6035156,96.6835938 C55.0748671,96.9205741 54.6077494,97.2578103 54.2021484,97.6953125 C53.7965475,98.1328147 53.4638685,98.6591766 53.2041016,99.2744141 C52.9443346,99.8896515 52.7688807,100.57096 52.6777344,101.318359 L61.5507812,101.318359 L61.5507812,101.140625 C61.532552,100.52083 61.4322926,99.9215524 61.25,99.3427734 C61.0677074,98.7639945 60.8011085,98.2513043 60.4501953,97.8046875 C60.0992821,97.3580707 59.6640651,97.0003269 59.1445312,96.7314453 C58.6249974,96.4625638 58.0188837,96.328125 57.3261719,96.328125 L57.3261719,96.328125 Z M68.90625,91.4199219 L68.90625,95.2070312 L71.96875,95.2070312 L71.96875,96.546875 L68.90625,96.546875 L68.90625,106.404297 C68.90625,106.923831 68.9586583,107.340819 69.0634766,107.655273 C69.1682948,107.969728 69.3095694,108.215819 69.4873047,108.393555 C69.66504,108.57129 69.870116,108.689778 70.1025391,108.749023 C70.3349621,108.808269 70.5787748,108.837891 70.8339844,108.837891 C71.0800794,108.837891 71.3170562,108.82194 71.5449219,108.790039 C71.7727876,108.758138 71.9778637,108.728516 72.1601562,108.701172 L72.2285156,110.041016 C72.0279938,110.113933 71.7659521,110.170898 71.4423828,110.211914 C71.1188135,110.25293 70.7975276,110.273438 70.4785156,110.273438 C70.0136696,110.273438 69.5830098,110.211915 69.1865234,110.088867 C68.7900371,109.96582 68.4505222,109.753908 68.1679688,109.453125 C67.8854153,109.152342 67.6643888,108.753583 67.5048828,108.256836 C67.3453768,107.760089 67.265625,107.142582 67.265625,106.404297 L67.265625,96.546875 L64.5449219,96.546875 L64.5449219,95.2070312 L67.265625,95.2070312 L67.265625,91.4199219 L68.90625,91.4199219 Z M77.1914062,110 L75.5507812,110 L75.5507812,95.2070312 L77.1914062,95.2070312 L77.1914062,110 Z M75.2636719,90.9277344 C75.2636719,90.617837 75.3639313,90.3557953 75.5644531,90.1416016 C75.764975,89.9274078 76.0384097,89.8203125 76.3847656,89.8203125 C76.7311215,89.8203125 77.0068349,89.9274078 77.2119141,90.1416016 C77.4169932,90.3557953 77.5195312,90.617837 77.5195312,90.9277344 C77.5195312,91.2376318 77.4169932,91.4973948 77.2119141,91.7070312 C77.0068349,91.9166677 76.7311215,92.0214844 76.3847656,92.0214844 C76.0384097,92.0214844 75.764975,91.9166677 75.5644531,91.7070312 C75.3639313,91.4973948 75.2636719,91.2376318 75.2636719,90.9277344 L75.2636719,90.9277344 Z M83.1933594,95.2070312 L83.2480469,97.7363281 C83.5032565,97.3170552 83.7971989,96.9342465 84.1298828,96.5878906 C84.4625668,96.2415347 84.8339823,95.9453137 85.2441406,95.6992188 C85.6542989,95.4531238 86.0963518,95.2639981 86.5703125,95.1318359 C87.0442732,94.9996738 87.5455703,94.9335938 88.0742188,94.9335938 C88.8125037,94.9335938 89.4733044,95.0338532 90.0566406,95.234375 C90.6399769,95.4348968 91.1344381,95.7539041 91.5400391,96.1914062 C91.94564,96.6289084 92.2555328,97.1917283 92.4697266,97.8798828 C92.6839203,98.5680373 92.7910156,99.3997347 92.7910156,100.375 L92.7910156,110 L91.1640625,110 L91.1640625,100.361328 C91.1640625,99.5956993 91.0820321,98.9576848 90.9179688,98.4472656 C90.7539054,97.9368464 90.5214859,97.5266943 90.2207031,97.2167969 C89.9199204,96.9068995 89.5530621,96.6858731 89.1201172,96.5537109 C88.6871723,96.4215488 88.2063829,96.3554688 87.6777344,96.3554688 C87.0943981,96.3554688 86.5657576,96.4534495 86.0917969,96.6494141 C85.6178362,96.8453786 85.1985695,97.1074202 84.8339844,97.4355469 C84.4693992,97.7636735 84.1549492,98.1396463 83.890625,98.5634766 C83.6263008,98.9873068 83.4166674,99.4225238 83.2617188,99.8691406 L83.2617188,110 L81.6347656,110 L81.6347656,95.2070312 L83.1933594,95.2070312 Z M96.359375,102.466797 C96.359375,101.318354 96.4892565,100.28158 96.7490234,99.3564453 C97.0087904,98.4313105 97.3847632,97.6406283 97.8769531,96.984375 C98.3691431,96.3281217 98.9684209,95.8222674 99.6748047,95.4667969 C100.381188,95.1113263 101.180985,94.9335938 102.074219,94.9335938 C103.131516,94.9335938 104.038408,95.1455057 104.794922,95.5693359 C105.551436,95.9931662 106.175779,96.5833296 106.667969,97.3398438 L106.75,95.2070312 L108.28125,95.2070312 L108.28125,109.740234 C108.28125,110.69727 108.139975,111.556311 107.857422,112.317383 C107.574868,113.078454 107.176109,113.723305 106.661133,114.251953 C106.146156,114.780602 105.524092,115.186197 104.794922,115.46875 C104.065752,115.751303 103.250005,115.892578 102.347656,115.892578 C101.88281,115.892578 101.408857,115.84017 100.925781,115.735352 C100.442706,115.630533 99.9755882,115.473308 99.5244141,115.263672 C99.0732399,115.054035 98.6471374,114.791994 98.2460938,114.477539 C97.8450501,114.163084 97.4941421,113.791669 97.1933594,113.363281 L98.109375,112.378906 C98.7109405,113.117191 99.348955,113.657225 100.023438,113.999023 C100.69792,114.340822 101.436194,114.511719 102.238281,114.511719 C102.940108,114.511719 103.562172,114.404623 104.104492,114.19043 C104.646813,113.976236 105.104816,113.666343 105.478516,113.260742 C105.852215,112.855141 106.137043,112.362959 106.333008,111.78418 C106.528972,111.205401 106.626953,110.546879 106.626953,109.808594 L106.626953,108.085938 C106.134763,108.769535 105.51042,109.305011 104.753906,109.692383 C103.997392,110.079755 103.095057,110.273438 102.046875,110.273438 C101.162756,110.273438 100.369795,110.088869 99.6679688,109.719727 C98.9661423,109.350584 98.3691431,108.835615 97.8769531,108.174805 C97.3847632,107.513994 97.0087904,106.723312 96.7490234,105.802734 C96.4892565,104.882157 96.359375,103.865891 96.359375,102.753906 L96.359375,102.466797 Z M98.0136719,102.753906 C98.0136719,103.619796 98.1002596,104.42415 98.2734375,105.166992 C98.4466154,105.909834 98.7109357,106.554685 99.0664062,107.101562 C99.4218768,107.64844 99.8707655,108.076821 100.413086,108.386719 C100.955406,108.696616 101.600257,108.851562 102.347656,108.851562 C102.912763,108.851562 103.420896,108.783204 103.87207,108.646484 C104.323244,108.509765 104.722003,108.320639 105.068359,108.079102 C105.414715,107.837564 105.715494,107.552736 105.970703,107.224609 C106.225913,106.896483 106.444661,106.53646 106.626953,106.144531 L106.626953,99.2675781 C106.472004,98.8847637 106.273764,98.5179054 106.032227,98.1669922 C105.790689,97.816079 105.499025,97.5061862 105.157227,97.2373047 C104.815428,96.9684231 104.416669,96.7542326 103.960938,96.5947266 C103.505206,96.4352206 102.976566,96.3554688 102.375,96.3554688 C101.618486,96.3554688 100.9668,96.5126937 100.419922,96.8271484 C99.8730441,97.1416031 99.4218768,97.5722629 99.0664062,98.1191406 C98.7109357,98.6660184 98.4466154,99.3131473 98.2734375,100.060547 C98.1002596,100.807946 98.0136719,101.610022 98.0136719,102.466797 L98.0136719,102.753906 Z M133.833984,103.792969 C133.724609,104.804693 133.487632,105.711585 133.123047,106.513672 C132.758462,107.315759 132.268558,107.994789 131.65332,108.550781 C131.038083,109.106774 130.299809,109.532876 129.438477,109.829102 C128.577144,110.125327 127.599615,110.273438 126.505859,110.273438 C125.375645,110.273438 124.350265,110.059247 123.429688,109.630859 C122.50911,109.202472 121.720706,108.594079 121.064453,107.805664 C120.4082,107.017249 119.902346,106.07162 119.546875,104.96875 C119.191404,103.86588 119.013672,102.644538 119.013672,101.304688 L119.013672,98.8027344 C119.013672,97.4628839 119.191404,96.2392633 119.546875,95.1318359 C119.902346,94.0244085 120.410478,93.07878 121.071289,92.2949219 C121.7321,91.5110638 122.531896,90.9026714 123.470703,90.4697266 C124.40951,90.0367817 125.462234,89.8203125 126.628906,89.8203125 C127.686203,89.8203125 128.638668,89.9661444 129.486328,90.2578125 C130.333989,90.5494806 131.060869,90.9755831 131.666992,91.5361328 C132.273115,92.0966825 132.76074,92.7802694 133.129883,93.5869141 C133.499025,94.3935587 133.733723,95.3072866 133.833984,96.328125 L132.138672,96.328125 C132.038411,95.5260377 131.856121,94.8082714 131.591797,94.1748047 C131.327473,93.541338 130.969729,93.0104188 130.518555,92.5820312 C130.067381,92.1536437 129.520511,91.825522 128.87793,91.5976562 C128.235348,91.3697905 127.485681,91.2558594 126.628906,91.2558594 C125.699214,91.2558594 124.869795,91.4358706 124.140625,91.7958984 C123.411455,92.1559263 122.791669,92.6640592 122.28125,93.3203125 C121.770831,93.9765658 121.381186,94.767248 121.112305,95.6923828 C120.843423,96.6175176 120.708984,97.6451766 120.708984,98.7753906 L120.708984,101.304688 C120.708984,102.398443 120.836587,103.407873 121.091797,104.333008 C121.347006,105.258143 121.720701,106.055661 122.212891,106.725586 C122.705081,107.395511 123.311194,107.917316 124.03125,108.291016 C124.751306,108.664715 125.576167,108.851562 126.505859,108.851562 C128.264983,108.851562 129.591141,108.430017 130.484375,107.586914 C131.377609,106.743811 131.929035,105.479175 132.138672,103.792969 L133.833984,103.792969 Z M146.876953,110 C146.785807,109.74479 146.71517,109.432619 146.665039,109.063477 C146.614909,108.694334 146.580729,108.318361 146.5625,107.935547 C146.316405,108.254559 146.024741,108.555337 145.6875,108.837891 C145.350259,109.120444 144.972007,109.366535 144.552734,109.576172 C144.133461,109.785808 143.67318,109.954426 143.171875,110.082031 C142.67057,110.209636 142.128258,110.273438 141.544922,110.273438 C140.824866,110.273438 140.170901,110.168621 139.583008,109.958984 C138.995114,109.749348 138.493817,109.455406 138.079102,109.077148 C137.664386,108.698891 137.3431,108.25456 137.115234,107.744141 C136.887369,107.233721 136.773438,106.677737 136.773438,106.076172 C136.773438,105.356116 136.928384,104.706709 137.238281,104.12793 C137.548179,103.549151 137.994789,103.056968 138.578125,102.651367 C139.161461,102.245766 139.870113,101.935873 140.704102,101.72168 C141.53809,101.507486 142.474604,101.400391 143.513672,101.400391 L146.548828,101.400391 L146.548828,99.71875 C146.548828,98.661453 146.222985,97.8297556 145.571289,97.2236328 C144.919593,96.61751 143.969407,96.3144531 142.720703,96.3144531 C142.146482,96.3144531 141.617841,96.3919263 141.134766,96.546875 C140.65169,96.7018237 140.234702,96.9160143 139.883789,97.1894531 C139.532876,97.462892 139.259441,97.7796206 139.063477,98.1396484 C138.867512,98.4996763 138.769531,98.8847636 138.769531,99.2949219 L137.128906,99.28125 C137.128906,98.7252576 137.265624,98.1875026 137.539062,97.6679688 C137.812501,97.1484349 138.197589,96.6858744 138.694336,96.2802734 C139.191083,95.8746725 139.788082,95.5488294 140.485352,95.3027344 C141.182621,95.0566394 141.955074,94.9335938 142.802734,94.9335938 C143.586592,94.9335938 144.308916,95.0338532 144.969727,95.234375 C145.630537,95.4348968 146.197914,95.7356751 146.671875,96.1367188 C147.145836,96.5377624 147.514973,97.0390595 147.779297,97.640625 C148.043621,98.2421905 148.175781,98.9440064 148.175781,99.7460938 L148.175781,106.910156 C148.175781,107.165366 148.184896,107.429686 148.203125,107.703125 C148.221354,107.976564 148.250976,108.240884 148.291992,108.496094 C148.333008,108.751303 148.380859,108.995116 148.435547,109.227539 C148.490235,109.459962 148.554036,109.66276 148.626953,109.835938 L148.626953,110 L146.876953,110 Z M141.736328,108.824219 C142.328779,108.824219 142.877927,108.749024 143.383789,108.598633 C143.889651,108.448241 144.347654,108.240887 144.757812,107.976562 C145.167971,107.712238 145.523436,107.404624 145.824219,107.053711 C146.125002,106.702798 146.366536,106.322268 146.548828,105.912109 L146.548828,102.658203 L143.746094,102.658203 C142.907548,102.658203 142.157881,102.733398 141.49707,102.883789 C140.83626,103.03418 140.277997,103.25065 139.822266,103.533203 C139.366534,103.815757 139.017905,104.159829 138.776367,104.56543 C138.53483,104.971031 138.414062,105.429034 138.414062,105.939453 C138.414062,106.340497 138.491536,106.71647 138.646484,107.067383 C138.801433,107.418296 139.02246,107.723632 139.30957,107.983398 C139.596681,108.243165 139.94531,108.448241 140.355469,108.598633 C140.765627,108.749024 141.225909,108.824219 141.736328,108.824219 L141.736328,108.824219 Z M159.373047,96.6015625 C159.026691,96.5377601 158.657554,96.5058594 158.265625,96.5058594 C157.709633,96.5058594 157.208336,96.5878898 156.761719,96.7519531 C156.315102,96.9160164 155.9209,97.1461574 155.579102,97.4423828 C155.237303,97.7386083 154.950196,98.0895162 154.717773,98.4951172 C154.48535,98.9007182 154.300782,99.3496069 154.164062,99.8417969 L154.164062,110 L152.537109,110 L152.537109,95.2070312 L154.136719,95.2070312 L154.164062,97.5585938 C154.565106,96.7473918 155.109697,96.1070987 155.797852,95.6376953 C156.486006,95.1682919 157.331375,94.9335938 158.333984,94.9335938 C158.534506,94.9335938 158.739582,94.9518227 158.949219,94.9882812 C159.158855,95.0247398 159.313802,95.065755 159.414062,95.1113281 L159.373047,96.6015625 Z M161.041016,102.466797 C161.041016,101.318354 161.173176,100.28158 161.4375,99.3564453 C161.701824,98.4313105 162.080076,97.6406283 162.572266,96.984375 C163.064456,96.3281217 163.663733,95.8222674 164.370117,95.4667969 C165.076501,95.1113263 165.87174,94.9335938 166.755859,94.9335938 C167.804042,94.9335938 168.704098,95.1432271 169.456055,95.5625 C170.208012,95.9817729 170.830076,96.5605432 171.322266,97.2988281 L171.322266,89 L172.949219,89 L172.949219,110 L171.417969,110 L171.349609,108.03125 C170.857419,108.733076 170.230798,109.282225 169.469727,109.678711 C168.708655,110.075197 167.794927,110.273438 166.728516,110.273438 C165.853511,110.273438 165.065108,110.088869 164.363281,109.719727 C163.661455,109.350584 163.064456,108.835615 162.572266,108.174805 C162.080076,107.513994 161.701824,106.723312 161.4375,105.802734 C161.173176,104.882157 161.041016,103.865891 161.041016,102.753906 L161.041016,102.466797 Z M162.695312,102.753906 C162.695312,103.619796 162.7819,104.42415 162.955078,105.166992 C163.128256,105.909834 163.392576,106.554685 163.748047,107.101562 C164.103517,107.64844 164.552406,108.076821 165.094727,108.386719 C165.637047,108.696616 166.281897,108.851562 167.029297,108.851562 C167.585289,108.851562 168.088865,108.785482 168.540039,108.65332 C168.991213,108.521158 169.392251,108.33659 169.743164,108.099609 C170.094077,107.862629 170.399413,107.58008 170.65918,107.251953 C170.918947,106.923826 171.139973,106.568361 171.322266,106.185547 L171.322266,99.2402344 C171.158202,98.8665346 170.957683,98.5065121 170.720703,98.1601562 C170.483723,97.8138004 170.192059,97.5061862 169.845703,97.2373047 C169.499347,96.9684231 169.09831,96.7542326 168.642578,96.5947266 C168.186847,96.4352206 167.658206,96.3554688 167.056641,96.3554688 C166.300126,96.3554688 165.64844,96.5126937 165.101562,96.8271484 C164.554685,97.1416031 164.103517,97.5722629 163.748047,98.1191406 C163.392576,98.6660184 163.128256,99.3131473 162.955078,100.060547 C162.7819,100.807946 162.695312,101.610022 162.695312,102.466797 L162.695312,102.753906 Z M186.115234,106.240234 C186.115234,105.939452 186.062826,105.638673 185.958008,105.337891 C185.85319,105.037108 185.657228,104.75228 185.370117,104.483398 C185.083006,104.214517 184.681969,103.963868 184.166992,103.731445 C183.652016,103.499022 182.984379,103.296225 182.164062,103.123047 C181.343746,102.949869 180.612308,102.74935 179.969727,102.521484 C179.327145,102.293619 178.784833,102.017905 178.342773,101.694336 C177.900714,101.370767 177.565756,100.985679 177.337891,100.539062 C177.110025,100.092446 176.996094,99.5683624 176.996094,98.9667969 C176.996094,98.4199191 177.116861,97.9003931 177.358398,97.4082031 C177.599936,96.9160132 177.946287,96.487632 178.397461,96.1230469 C178.848635,95.7584617 179.395505,95.4690766 180.038086,95.2548828 C180.680667,95.040689 181.402991,94.9335938 182.205078,94.9335938 C183.061853,94.9335938 183.829749,95.0452463 184.508789,95.2685547 C185.187829,95.4918631 185.762042,95.8017558 186.231445,96.1982422 C186.700849,96.5947285 187.058593,97.0618463 187.304688,97.5996094 C187.550782,98.1373725 187.673828,98.7207 187.673828,99.3496094 L186.033203,99.3496094 C186.033203,98.966795 185.948894,98.5931008 185.780273,98.2285156 C185.611653,97.8639305 185.365562,97.5426446 185.041992,97.2646484 C184.718423,96.9866523 184.317385,96.7610686 183.838867,96.5878906 C183.360349,96.4147127 182.815758,96.328125 182.205078,96.328125 C181.567054,96.328125 181.022463,96.4055982 180.571289,96.5605469 C180.120115,96.7154956 179.750978,96.9160144 179.463867,97.1621094 C179.176756,97.4082044 178.967123,97.6839177 178.834961,97.9892578 C178.702799,98.2945979 178.636719,98.602212 178.636719,98.9121094 C178.636719,99.240236 178.686848,99.5387356 178.787109,99.8076172 C178.88737,100.076499 179.081053,100.327147 179.368164,100.55957 C179.655275,100.791993 180.056313,101.006184 180.571289,101.202148 C181.086266,101.398113 181.758459,101.591796 182.587891,101.783203 C183.481124,101.99284 184.251299,102.225259 184.898438,102.480469 C185.545576,102.735678 186.081053,103.038735 186.504883,103.389648 C186.928713,103.740562 187.243163,104.141599 187.448242,104.592773 C187.653321,105.043948 187.755859,105.565752 187.755859,106.158203 C187.755859,106.768883 187.628256,107.327146 187.373047,107.833008 C187.117837,108.33887 186.753258,108.771808 186.279297,109.131836 C185.805336,109.491864 185.231123,109.772134 184.556641,109.972656 C183.882158,110.173178 183.130212,110.273438 182.300781,110.273438 C181.361974,110.273438 180.532556,110.15267 179.8125,109.911133 C179.092444,109.669595 178.486331,109.343752 177.994141,108.933594 C177.501951,108.523435 177.130535,108.05176 176.879883,107.518555 C176.629231,106.985349 176.503906,106.431643 176.503906,105.857422 L178.144531,105.857422 C178.18099,106.440758 178.331379,106.926105 178.595703,107.313477 C178.860027,107.700848 179.188149,108.010741 179.580078,108.243164 C179.972007,108.475587 180.407224,108.641927 180.885742,108.742188 C181.36426,108.842448 181.835935,108.892578 182.300781,108.892578 C182.920576,108.892578 183.467446,108.819662 183.941406,108.673828 C184.415367,108.527994 184.814126,108.332032 185.137695,108.085938 C185.461265,107.839843 185.705077,107.557293 185.869141,107.238281 C186.033204,106.919269 186.115234,106.58659 186.115234,106.240234 L186.115234,106.240234 Z" id="Greeting-Cards" fill="#0D5685"></path>
                            </g>
                        </g>
                    </g>
                </g>
            </g>
        </g>
    </g>
</svg>