<?xml version="1.0" encoding="UTF-8" standalone="no"?>
<svg width="219px" height="109px" viewBox="0 0 219 109" version="1.1" xmlns="http://www.w3.org/2000/svg" xmlns:xlink="http://www.w3.org/1999/xlink" xmlns:sketch="http://www.bohemiancoding.com/sketch/ns">
    <!-- Generator: Sketch 3.4.2 (15855) - http://www.bohemiancoding.com/sketch -->
    <title>Logo</title>
    <desc>Created with Sketch.</desc>
    <defs></defs>
    <g id="Home" stroke="none" stroke-width="1" fill="none" fill-rule="evenodd" sketch:type="MSPage">
        <g id="Desktop-HD" sketch:type="MSArtboardGroup" transform="translate(-1898.000000, -1355.000000)" fill="#FFFFFF">
            <g id="Page" sketch:type="MSLayerGroup" transform="translate(0.000000, 189.000000)">
                <g id="Content" transform="translate(0.000000, 143.000000)" sketch:type="MSShapeGroup">
                    <g id="Featured-projects" transform="translate(0.000000, 890.000000)">
                        <g id="Product-3" transform="translate(1440.000000, 0.000000)">
                            <g id="Logo" transform="translate(458.000000, 133.000000)">
                                <path d="M19.2255859,0.686523438 C23.2334185,0.686523438 26.674302,1.49950359 29.5483398,3.12548828 C32.4223777,4.75147297 34.5976489,7.0629733 36.0742188,10.0600586 C37.5507886,13.0571439 38.2890625,16.5771282 38.2890625,20.6201172 C38.2890625,23.6084134 37.8847697,26.3242065 37.0761719,28.7675781 C36.2675741,31.2109497 35.0546956,33.3290926 33.4375,35.1220703 C31.8203044,36.915048 29.8339962,38.2861281 27.4785156,39.2353516 C25.1230351,40.1845751 22.4248199,40.6591797 19.3837891,40.6591797 C16.3603364,40.6591797 13.6533323,40.1713916 11.2626953,39.1958008 C8.87205836,38.22021 6.87696112,36.8447354 5.27734375,35.0693359 C3.67772638,33.2939364 2.46924237,31.1582156 1.65185547,28.6621094 C0.834468569,26.1660031 0.42578125,23.4677879 0.42578125,20.5673828 C0.42578125,17.5966648 0.852046519,14.8720827 1.70458984,12.3935547 C2.55713317,9.91502667 3.7919841,7.80567276 5.40917969,6.06542969 C7.02637527,4.32518661 8.99510559,2.99365696 11.3154297,2.07080078 C13.6357538,1.1479446 16.2724462,0.686523438 19.2255859,0.686523438 L19.2255859,0.686523438 Z M30.3525391,20.5673828 C30.3525391,17.7372905 29.8955124,15.2851666 28.9814453,13.2109375 C28.0673782,11.1367084 26.7622155,9.56787641 25.065918,8.50439453 C23.3696204,7.44091265 21.4228625,6.90917969 19.2255859,6.90917969 C17.661125,6.90917969 16.2153387,7.20361034 14.8881836,7.79248047 C13.5610285,8.3813506 12.4184618,9.23827562 11.4604492,10.3632812 C10.5024366,11.4882869 9.7465848,12.9252842 9.19287109,14.6743164 C8.63915739,16.4233486 8.36230469,18.3876844 8.36230469,20.5673828 C8.36230469,22.7646594 8.63915739,24.7509677 9.19287109,26.5263672 C9.7465848,28.3017667 10.5288035,29.7739199 11.5395508,30.9428711 C12.550298,32.1118223 13.7104427,32.9863252 15.0200195,33.5664062 C16.3295964,34.1464873 17.7665937,34.4365234 19.3310547,34.4365234 C21.334971,34.4365234 23.1762611,33.9355519 24.8549805,32.9335938 C26.5336998,31.9316356 27.8696239,30.3847761 28.862793,28.2929688 C29.855962,26.2011614 30.3525391,23.6259919 30.3525391,20.5673828 L30.3525391,20.5673828 Z M51.0244141,15.3730469 L51.0244141,16.2431641 C52.2900454,14.5732338 53.6743089,13.3471719 55.1772461,12.5649414 C56.6801833,11.7827109 58.4072168,11.3916016 60.3583984,11.3916016 C62.2568454,11.3916016 63.9531175,11.8046834 65.4472656,12.6308594 C66.9414137,13.4570354 68.0576135,14.625969 68.7958984,16.1376953 C69.2705102,17.016606 69.5781243,17.9658152 69.71875,18.9853516 C69.8593757,20.0048879 69.9296875,21.3056562 69.9296875,22.8876953 L69.9296875,36.2822266 C69.9296875,37.72364 69.600101,38.8134729 68.940918,39.5517578 C68.281735,40.2900428 67.42481,40.6591797 66.3701172,40.6591797 C65.2978462,40.6591797 64.4277377,40.2812538 63.7597656,39.5253906 C63.0917935,38.7695275 62.7578125,37.6884836 62.7578125,36.2822266 L62.7578125,24.2851562 C62.7578125,21.9120975 62.428226,20.0971743 61.769043,18.840332 C61.10986,17.5834898 59.7959083,16.9550781 57.8271484,16.9550781 C56.5439389,16.9550781 55.3750053,17.3373985 54.3203125,18.1020508 C53.2656197,18.866703 52.49219,19.9169855 52,21.2529297 C51.6484357,22.3252007 51.4726562,24.3290869 51.4726562,27.2646484 L51.4726562,36.2822266 C51.4726562,37.7412182 51.1342807,38.8354456 50.4575195,39.5649414 C49.7807583,40.2944372 48.9062554,40.6591797 47.8339844,40.6591797 C46.7968698,40.6591797 45.9443393,40.2812538 45.2763672,39.5253906 C44.6083951,38.7695275 44.2744141,37.6884836 44.2744141,36.2822266 L44.2744141,15.4785156 C44.2744141,14.107415 44.5732392,13.0834995 45.1708984,12.4067383 C45.7685577,11.7299771 46.5859323,11.3916016 47.6230469,11.3916016 C48.2558625,11.3916016 48.8271459,11.5410141 49.3369141,11.8398437 C49.8466822,12.1386734 50.2553696,12.5869111 50.5629883,13.1845703 C50.870607,13.7822296 51.0244141,14.5117144 51.0244141,15.3730469 L51.0244141,15.3730469 Z M102.704102,7.80566406 L94.1611328,7.80566406 L94.1611328,35.8867188 C94.1611328,37.5039143 93.8007849,38.7036094 93.0800781,39.4858398 C92.3593714,40.2680703 91.4277401,40.6591797 90.2851562,40.6591797 C89.1249942,40.6591797 88.1801794,40.2636758 87.4506836,39.4726562 C86.7211878,38.6816367 86.3564453,37.4863361 86.3564453,35.8867188 L86.3564453,7.80566406 L77.8134766,7.80566406 C76.4775324,7.80566406 75.4843783,7.51123341 74.8339844,6.92236328 C74.1835905,6.33349315 73.8583984,5.5556689 73.8583984,4.58886719 C73.8583984,3.58690905 74.196774,2.79590134 74.8735352,2.21582031 C75.5502964,1.63573929 76.530267,1.34570312 77.8134766,1.34570312 L102.704102,1.34570312 C104.057624,1.34570312 105.063962,1.64452826 105.723145,2.2421875 C106.382328,2.83984674 106.711914,3.62206548 106.711914,4.58886719 C106.711914,5.5556689 106.377933,6.33349315 105.709961,6.92236328 C105.041989,7.51123341 104.040046,7.80566406 102.704102,7.80566406 L102.704102,7.80566406 Z M115.94043,30.2705078 L115.94043,36.2822266 C115.94043,37.7412182 115.59766,38.8354456 114.912109,39.5649414 C114.226559,40.2944372 113.356451,40.6591797 112.301758,40.6591797 C111.264643,40.6591797 110.412113,40.2900428 109.744141,39.5517578 C109.076169,38.8134729 108.742188,37.72364 108.742188,36.2822266 L108.742188,16.2431641 C108.742188,13.0087729 109.911121,11.3916016 112.249023,11.3916016 C113.444342,11.3916016 114.305661,11.7695275 114.833008,12.5253906 C115.360354,13.2812538 115.65039,14.3974536 115.703125,15.8740234 C116.564457,14.3974536 117.447749,13.2812538 118.353027,12.5253906 C119.258305,11.7695275 120.466789,11.3916016 121.978516,11.3916016 C123.490242,11.3916016 124.958001,11.7695275 126.381836,12.5253906 C127.805671,13.2812538 128.517578,14.2831969 128.517578,15.53125 C128.517578,16.4101606 128.214359,17.135251 127.60791,17.706543 C127.001462,18.2778349 126.346683,18.5634766 125.643555,18.5634766 C125.379881,18.5634766 124.742681,18.4008805 123.731934,18.0756836 C122.721186,17.7504867 121.829105,17.5878906 121.055664,17.5878906 C120.000971,17.5878906 119.139652,17.8647433 118.47168,18.418457 C117.803708,18.9721707 117.285158,19.7939399 116.916016,20.8837891 C116.546873,21.9736383 116.291993,23.270012 116.151367,24.7729492 C116.010741,26.2758864 115.94043,28.1083876 115.94043,30.2705078 L115.94043,30.2705078 Z M149.294922,36.5986328 C147.554679,37.9521552 145.87159,38.9672818 144.245605,39.644043 C142.619621,40.3208042 140.795909,40.6591797 138.774414,40.6591797 C136.928702,40.6591797 135.307136,40.2944372 133.909668,39.5649414 C132.5122,38.8354456 131.435551,37.8466859 130.679688,36.5986328 C129.923824,35.3505797 129.545898,33.9970776 129.545898,32.5380859 C129.545898,30.5693261 130.169916,28.8906319 131.417969,27.5019531 C132.666022,26.1132743 134.379872,25.181643 136.55957,24.7070312 C137.016604,24.601562 138.150382,24.3642597 139.960938,23.9951172 C141.771493,23.6259747 143.322747,23.2875992 144.614746,22.9799805 C145.906745,22.6723617 147.308586,22.2988303 148.820312,21.859375 C148.732421,19.960928 148.350101,18.5678755 147.67334,17.6801758 C146.996579,16.792476 145.594737,16.3486328 143.467773,16.3486328 C141.639639,16.3486328 140.264165,16.6035131 139.341309,17.1132812 C138.418452,17.6230494 137.627445,18.3876902 136.968262,19.4072266 C136.309079,20.4267629 135.843263,21.0991195 135.570801,21.4243164 C135.298338,21.7495133 134.713872,21.9121094 133.817383,21.9121094 C133.008785,21.9121094 132.310062,21.6528346 131.721191,21.1342773 C131.132321,20.6157201 130.837891,19.9521525 130.837891,19.1435547 C130.837891,17.8779234 131.286128,16.6474669 132.182617,15.4521484 C133.079106,14.25683 134.476553,13.2724648 136.375,12.4990234 C138.273447,11.7255821 140.637681,11.3388672 143.467773,11.3388672 C146.631852,11.3388672 149.119132,11.7123986 150.929688,12.4594727 C152.740243,13.2065467 154.019039,14.3886638 154.766113,16.0058594 C155.513187,17.623055 155.886719,19.7675648 155.886719,22.4394531 C155.886719,24.1269616 155.882324,25.5595644 155.873535,26.7373047 C155.864746,27.915045 155.851563,29.2246022 155.833984,30.6660156 C155.833984,32.019538 156.058103,33.4301684 156.506348,34.8979492 C156.954592,36.36573 157.178711,37.3105448 157.178711,37.7324219 C157.178711,38.4707068 156.831546,39.1430634 156.137207,39.7495117 C155.442868,40.3559601 154.656254,40.6591797 153.777344,40.6591797 C153.039059,40.6591797 152.309574,40.3120152 151.588867,39.6176758 C150.86816,38.9233364 150.10352,37.9169988 149.294922,36.5986328 L149.294922,36.5986328 Z M148.820312,26.1835938 C147.76562,26.5703144 146.231944,26.9790018 144.219238,27.409668 C142.206533,27.8403342 140.81348,28.1567373 140.040039,28.3588867 C139.266598,28.5610362 138.528324,28.95654 137.825195,29.5454102 C137.122067,30.1342803 136.770508,30.9560494 136.770508,32.0107422 C136.770508,33.1005914 137.18359,34.0278282 138.009766,34.7924805 C138.835942,35.5571327 139.916986,35.9394531 141.25293,35.9394531 C142.676765,35.9394531 143.990717,35.6274445 145.194824,35.003418 C146.398932,34.3793914 147.282224,33.5752002 147.844727,32.5908203 C148.49512,31.5009711 148.820312,29.7080203 148.820312,27.2119141 L148.820312,26.1835938 Z M189.003906,31.7470703 C189.003906,32.6435592 188.735843,33.6015574 188.199707,34.6210938 C187.663572,35.6406301 186.846197,36.6118118 185.747559,37.534668 C184.64892,38.4575241 183.264657,39.2001925 181.594727,39.7626953 C179.924796,40.3251981 178.043956,40.6064453 175.952148,40.6064453 C171.504861,40.6064453 168.033216,39.3100716 165.537109,36.7172852 C163.041003,34.1244988 161.792969,30.6484593 161.792969,26.2890625 C161.792969,23.3359227 162.364252,20.7255973 163.506836,18.4580078 C164.64942,16.1904183 166.301747,14.4370179 168.463867,13.1977539 C170.625987,11.9584899 173.209946,11.3388672 176.21582,11.3388672 C178.079111,11.3388672 179.788566,11.6113254 181.344238,12.15625 C182.89991,12.7011746 184.218256,13.4042926 185.299316,14.265625 C186.380376,15.1269574 187.20654,16.0454053 187.777832,17.0209961 C188.349124,17.9965869 188.634766,18.9062458 188.634766,19.75 C188.634766,20.6113324 188.313968,21.3408173 187.672363,21.9384766 C187.030759,22.5361358 186.252934,22.8349609 185.338867,22.8349609 C184.741208,22.8349609 184.244631,22.6811539 183.849121,22.3735352 C183.453611,22.0659164 183.009768,21.5693394 182.517578,20.8837891 C181.638667,19.5478449 180.72022,18.5459018 179.762207,17.8779297 C178.804194,17.2099576 177.586921,16.8759766 176.110352,16.8759766 C173.983388,16.8759766 172.269538,17.7065347 170.96875,19.3676758 C169.667962,21.0288169 169.017578,23.3007668 169.017578,26.1835938 C169.017578,27.5371161 169.184569,28.780756 169.518555,29.9145508 C169.852541,31.0483455 170.335934,32.0151327 170.96875,32.8149414 C171.601566,33.6147501 172.366206,34.2211893 173.262695,34.6342773 C174.159184,35.0473653 175.143549,35.2539062 176.21582,35.2539062 C177.657234,35.2539062 178.892085,34.9199252 179.92041,34.2519531 C180.948736,33.583981 181.858394,32.56446 182.649414,31.1933594 C183.088869,30.3847616 183.563474,29.7519554 184.073242,29.2949219 C184.58301,28.8378883 185.207028,28.609375 185.945312,28.609375 C186.824223,28.609375 187.553708,28.943356 188.133789,29.6113281 C188.71387,30.2793002 189.003906,30.9912072 189.003906,31.7470703 L189.003906,31.7470703 Z M211.152344,37.3632812 L204.797852,26.921875 L200.895508,30.6132812 L200.895508,36.3349609 C200.895508,37.7236398 200.530765,38.7915002 199.80127,39.5385742 C199.071774,40.2856483 198.232427,40.6591797 197.283203,40.6591797 C196.175776,40.6591797 195.305667,40.2900428 194.672852,39.5517578 C194.040036,38.8134729 193.723633,37.72364 193.723633,36.2822266 L193.723633,5.59082031 C193.723633,3.99120294 194.031247,2.77392996 194.646484,1.93896484 C195.261722,1.10399973 196.140619,0.686523438 197.283203,0.686523438 C198.390631,0.686523438 199.269528,1.06444935 199.919922,1.8203125 C200.570316,2.57617565 200.895508,3.69237543 200.895508,5.16894531 L200.895508,22.6240234 L208.990234,14.1337891 C209.992193,13.0790963 210.756833,12.3584004 211.28418,11.9716797 C211.811526,11.584959 212.453121,11.3916016 213.208984,11.3916016 C214.105473,11.3916016 214.852536,11.6772432 215.450195,12.2485352 C216.047855,12.8198271 216.34668,13.5361285 216.34668,14.3974609 C216.34668,15.4521537 215.371104,16.8583896 213.419922,18.6162109 L209.59668,22.1230469 L216.979492,33.7246094 C217.524417,34.5859418 217.915526,35.2407204 218.152832,35.6889648 C218.390138,36.1372093 218.508789,36.5634745 218.508789,36.9677734 C218.508789,38.1103573 218.19678,39.0112272 217.572754,39.6704102 C216.948727,40.3295931 216.126958,40.6591797 215.107422,40.6591797 C214.228511,40.6591797 213.55176,40.4218774 213.077148,39.9472656 C212.602537,39.4726539 211.960942,38.6113344 211.152344,37.3632812 L211.152344,37.3632812 Z" id="OnTrack"></path>
                                <path d="M11.64,73 L13.272,73 L14.952,68.224 L21.864,68.224 L23.544,73 L25.176,73 L19.104,56.2 L17.712,56.2 L11.64,73 Z M21.36,66.736 L15.456,66.736 L18.408,58.36 L21.36,66.736 Z M35.304,71.296 C36.168,72.424 37.752,73.192 39.072,73.192 C40.776,73.192 42.096,72.616 43.032,71.44 C43.992,70.264 44.472,68.752 44.472,66.952 C44.472,65.152 43.992,63.664 43.032,62.488 C42.096,61.312 40.776,60.712 39.072,60.712 C37.536,60.712 35.952,61.528 35.304,62.488 L35.304,60.904 L33.768,60.904 L33.768,77.896 L35.304,77.896 L35.304,71.296 Z M42.912,66.952 C42.912,68.368 42.576,69.52 41.88,70.432 C41.184,71.344 40.224,71.8 39,71.8 C37.776,71.8 36.816,71.344 36.12,70.432 C35.448,69.52 35.112,68.368 35.112,66.952 C35.112,64.096 36.504,62.104 39,62.104 C41.496,62.104 42.912,64.096 42.912,66.952 L42.912,66.952 Z M58.08,66.28 C58.08,64.624 57.576,63.28 56.592,62.248 C55.608,61.216 54.336,60.712 52.776,60.712 C51.168,60.712 49.872,61.312 48.888,62.488 C47.904,63.664 47.4,65.152 47.4,66.952 C47.4,68.752 47.904,70.264 48.888,71.44 C49.872,72.616 51.168,73.192 52.776,73.192 C55.08,73.192 56.592,72.256 57.816,69.856 L56.496,69.208 C55.608,71.056 54.6,71.8 52.776,71.8 C50.4,71.8 48.96,69.832 48.96,66.952 L58.08,66.952 L58.08,66.28 Z M52.776,62.104 C54.912,62.104 56.256,63.424 56.544,65.56 L49.056,65.56 C49.464,63.52 50.832,62.104 52.776,62.104 L52.776,62.104 Z M68.28,61.12 C67.608,60.856 67.008,60.712 66.456,60.712 C64.848,60.712 63.648,61.504 62.904,63.064 L62.904,60.904 L61.416,60.904 L61.416,73 L62.904,73 L62.904,68.32 C62.904,64.36 64.296,62.104 66.24,62.104 C66.84,62.104 67.416,62.248 67.944,62.536 L68.28,61.12 Z M73.728,60.712 C71.784,60.712 70.344,62.032 70.344,63.952 C70.344,66.208 72.408,66.88 74.04,67.528 C75.168,67.936 76.056,68.656 76.056,69.64 C76.056,70.984 75.288,71.8 73.872,71.8 C72.24,71.8 71.424,70.84 70.824,69.184 L69.504,69.88 C70.056,71.704 71.496,73.192 73.872,73.192 C76.176,73.192 77.616,71.728 77.616,69.4 C77.616,67.36 75.528,66.568 73.896,65.92 C72.768,65.464 71.88,64.816 71.88,63.928 C71.88,62.848 72.6,62.104 73.656,62.104 C74.544,62.104 75.336,62.56 76.032,63.496 L77.088,62.584 C76.2,61.336 75.096,60.712 73.728,60.712 L73.728,60.712 Z M81.528,71.32 C82.56,72.568 83.928,73.192 85.632,73.192 C87.336,73.192 88.704,72.568 89.736,71.32 C90.768,70.072 91.296,68.608 91.296,66.952 C91.296,65.296 90.768,63.832 89.736,62.584 C88.704,61.336 87.336,60.712 85.632,60.712 C83.928,60.712 82.56,61.336 81.528,62.584 C80.496,63.832 79.968,65.296 79.968,66.952 C79.968,68.608 80.496,70.072 81.528,71.32 L81.528,71.32 Z M82.608,63.544 C83.352,62.584 84.36,62.104 85.632,62.104 C86.904,62.104 87.912,62.584 88.632,63.544 C89.376,64.504 89.736,65.632 89.736,66.952 C89.736,68.272 89.376,69.4 88.632,70.36 C87.912,71.32 86.904,71.8 85.632,71.8 C84.36,71.8 83.352,71.32 82.608,70.36 C81.888,69.4 81.528,68.272 81.528,66.952 C81.528,65.632 81.888,64.504 82.608,63.544 L82.608,63.544 Z M104.112,64.696 C104.112,62.176 102.696,60.712 100.392,60.712 C98.664,60.712 97.08,61.792 96.24,63.424 L96.24,60.904 L94.752,60.904 L94.752,73 L96.24,73 L96.24,67.696 C96.24,66.016 96.6,64.672 97.344,63.64 C98.088,62.608 99.024,62.104 100.152,62.104 C101.808,62.104 102.624,63.04 102.624,64.888 L102.624,73 L104.112,73 L104.112,64.696 Z M108.864,69.52 C108.864,67.888 110.232,66.952 112.92,66.952 L114.888,66.952 L114.888,67.408 C114.888,68.896 114.504,70 113.736,70.72 C112.992,71.44 112.152,71.8 111.216,71.8 C109.752,71.8 108.864,70.984 108.864,69.52 L108.864,69.52 Z M116.376,64.984 C116.376,63.664 115.968,62.608 115.152,61.864 C114.36,61.096 113.328,60.712 112.104,60.712 C109.896,60.712 108.096,62.008 107.784,64.024 L109.224,64.36 C109.68,62.848 110.64,62.104 112.104,62.104 C113.832,62.104 114.888,63.016 114.888,65.032 L114.888,65.56 L112.872,65.56 C109.392,65.56 107.304,66.904 107.304,69.52 C107.304,72.016 108.864,73.192 111.072,73.192 C112.824,73.192 114.096,72.496 114.888,71.128 L115.248,73 L116.376,73 L116.376,64.984 Z M119.904,73 L121.392,73 L121.392,56.008 L119.904,56.008 L119.904,73 Z M133.392,71.296 C134.256,72.424 135.84,73.192 137.16,73.192 C138.864,73.192 140.184,72.616 141.12,71.44 C142.08,70.264 142.56,68.752 142.56,66.952 C142.56,65.152 142.08,63.664 141.12,62.488 C140.184,61.312 138.864,60.712 137.16,60.712 C135.624,60.712 134.04,61.528 133.392,62.488 L133.392,60.904 L131.856,60.904 L131.856,77.896 L133.392,77.896 L133.392,71.296 Z M141,66.952 C141,68.368 140.664,69.52 139.968,70.432 C139.272,71.344 138.312,71.8 137.088,71.8 C135.864,71.8 134.904,71.344 134.208,70.432 C133.536,69.52 133.2,68.368 133.2,66.952 C133.2,64.096 134.592,62.104 137.088,62.104 C139.584,62.104 141,64.096 141,66.952 L141,66.952 Z M152.616,61.12 C151.944,60.856 151.344,60.712 150.792,60.712 C149.184,60.712 147.984,61.504 147.24,63.064 L147.24,60.904 L145.752,60.904 L145.752,73 L147.24,73 L147.24,68.32 C147.24,64.36 148.632,62.104 150.576,62.104 C151.176,62.104 151.752,62.248 152.28,62.536 L152.616,61.12 Z M155.664,71.32 C156.696,72.568 158.064,73.192 159.768,73.192 C161.472,73.192 162.84,72.568 163.872,71.32 C164.904,70.072 165.432,68.608 165.432,66.952 C165.432,65.296 164.904,63.832 163.872,62.584 C162.84,61.336 161.472,60.712 159.768,60.712 C158.064,60.712 156.696,61.336 155.664,62.584 C154.632,63.832 154.104,65.296 154.104,66.952 C154.104,68.608 154.632,70.072 155.664,71.32 L155.664,71.32 Z M156.744,63.544 C157.488,62.584 158.496,62.104 159.768,62.104 C161.04,62.104 162.048,62.584 162.768,63.544 C163.512,64.504 163.872,65.632 163.872,66.952 C163.872,68.272 163.512,69.4 162.768,70.36 C162.048,71.32 161.04,71.8 159.768,71.8 C158.496,71.8 157.488,71.32 156.744,70.36 C156.024,69.4 155.664,68.272 155.664,66.952 C155.664,65.632 156.024,64.504 156.744,63.544 L156.744,63.544 Z M168.768,74.32 C168.768,75.736 168.24,76.312 166.92,76.696 L167.256,78.088 C169.248,77.776 170.256,76.576 170.256,74.536 L170.256,60.904 L168.768,60.904 L168.768,74.32 Z M168.624,58.312 C169.104,58.768 169.92,58.768 170.376,58.312 C170.856,57.832 170.856,57.016 170.376,56.56 C169.92,56.08 169.104,56.08 168.624,56.56 C168.168,57.016 168.168,57.832 168.624,58.312 L168.624,58.312 Z M184.32,66.28 C184.32,64.624 183.816,63.28 182.832,62.248 C181.848,61.216 180.576,60.712 179.016,60.712 C177.408,60.712 176.112,61.312 175.128,62.488 C174.144,63.664 173.64,65.152 173.64,66.952 C173.64,68.752 174.144,70.264 175.128,71.44 C176.112,72.616 177.408,73.192 179.016,73.192 C181.32,73.192 182.832,72.256 184.056,69.856 L182.736,69.208 C181.848,71.056 180.84,71.8 179.016,71.8 C176.64,71.8 175.2,69.832 175.2,66.952 L184.32,66.952 L184.32,66.28 Z M179.016,62.104 C181.152,62.104 182.496,63.424 182.784,65.56 L175.296,65.56 C175.704,63.52 177.072,62.104 179.016,62.104 L179.016,62.104 Z M195.912,69.328 C195.24,70.984 194.064,71.8 192.384,71.8 C191.16,71.8 190.2,71.344 189.552,70.432 C188.904,69.496 188.592,68.344 188.592,66.952 C188.592,65.56 188.904,64.408 189.552,63.496 C190.2,62.56 191.16,62.104 192.384,62.104 C194.064,62.104 195.24,62.92 195.912,64.576 L197.256,64.048 C196.416,61.816 194.784,60.712 192.384,60.712 C190.704,60.712 189.384,61.336 188.448,62.56 C187.512,63.784 187.032,65.248 187.032,66.952 C187.032,68.656 187.512,70.144 188.448,71.368 C189.384,72.592 190.704,73.192 192.384,73.192 C194.784,73.192 196.416,72.088 197.256,69.856 L195.912,69.328 Z M201.48,62.296 L201.48,69.568 C201.48,71.992 202.656,73.192 204.504,73.192 C205.392,73.192 206.088,73.048 206.616,72.76 L206.208,71.416 C205.8,71.68 205.296,71.8 204.696,71.8 C203.568,71.8 203.016,71.128 203.016,69.808 L203.016,62.296 L206.232,62.296 L206.232,60.904 L203.016,60.904 L203.016,56.008 L201.48,56.992 L201.48,60.904 L199.344,60.904 L199.344,62.296 L201.48,62.296 Z M34.86,94.8960024 C34.86,92.2080024 33.78,90.9120024 31.452,90.9120024 C29.844,90.9120024 28.332,92.0400024 27.492,93.6000024 C27.132,91.8000024 26.028,90.9120024 24.204,90.9120024 C22.5,90.9120024 21.132,91.9680024 20.364,93.6240024 L20.364,91.1040024 L18.876,91.1040024 L18.876,103.200002 L20.364,103.200002 L20.364,97.8960024 C20.364,96.2160024 20.7,94.8720024 21.396,93.8400024 C22.092,92.8080024 22.956,92.3040024 23.964,92.3040024 C25.572,92.3040024 26.124,93.1920024 26.124,95.0880024 L26.124,103.200002 L27.612,103.200002 L27.612,97.8960024 C27.612,96.2160024 27.948,94.8720024 28.644,93.8400024 C29.34,92.8080024 30.204,92.3040024 31.212,92.3040024 C32.82,92.3040024 33.372,93.1920024 33.372,95.0880024 L33.372,103.200002 L34.86,103.200002 L34.86,94.8960024 Z M39.756,99.7200024 C39.756,98.0880024 41.124,97.1520024 43.812,97.1520024 L45.78,97.1520024 L45.78,97.6080024 C45.78,99.0960024 45.396,100.200002 44.628,100.920002 C43.884,101.640002 43.044,102.000002 42.108,102.000002 C40.644,102.000002 39.756,101.184002 39.756,99.7200024 L39.756,99.7200024 Z M47.268,95.1840024 C47.268,93.8640024 46.86,92.8080024 46.044,92.0640024 C45.252,91.2960024 44.22,90.9120024 42.996,90.9120024 C40.788,90.9120024 38.988,92.2080024 38.676,94.2240024 L40.116,94.5600024 C40.572,93.0480024 41.532,92.3040024 42.996,92.3040024 C44.724,92.3040024 45.78,93.2160024 45.78,95.2320024 L45.78,95.7600024 L43.764,95.7600024 C40.284,95.7600024 38.196,97.1040024 38.196,99.7200024 C38.196,102.216002 39.756,103.392002 41.964,103.392002 C43.716,103.392002 44.988,102.696002 45.78,101.328002 L46.14,103.200002 L47.268,103.200002 L47.268,95.1840024 Z M60.132,94.8960024 C60.132,92.3760024 58.716,90.9120024 56.412,90.9120024 C54.684,90.9120024 53.1,91.9920024 52.26,93.6240024 L52.26,91.1040024 L50.772,91.1040024 L50.772,103.200002 L52.26,103.200002 L52.26,97.8960024 C52.26,96.2160024 52.62,94.8720024 53.364,93.8400024 C54.108,92.8080024 55.044,92.3040024 56.172,92.3040024 C57.828,92.3040024 58.644,93.2400024 58.644,95.0880024 L58.644,103.200002 L60.132,103.200002 L60.132,94.8960024 Z M64.884,99.7200024 C64.884,98.0880024 66.252,97.1520024 68.94,97.1520024 L70.908,97.1520024 L70.908,97.6080024 C70.908,99.0960024 70.524,100.200002 69.756,100.920002 C69.012,101.640002 68.172,102.000002 67.236,102.000002 C65.772,102.000002 64.884,101.184002 64.884,99.7200024 L64.884,99.7200024 Z M72.396,95.1840024 C72.396,93.8640024 71.988,92.8080024 71.172,92.0640024 C70.38,91.2960024 69.348,90.9120024 68.124,90.9120024 C65.916,90.9120024 64.116,92.2080024 63.804,94.2240024 L65.244,94.5600024 C65.7,93.0480024 66.66,92.3040024 68.124,92.3040024 C69.852,92.3040024 70.908,93.2160024 70.908,95.2320024 L70.908,95.7600024 L68.892,95.7600024 C65.412,95.7600024 63.324,97.1040024 63.324,99.7200024 C63.324,102.216002 64.884,103.392002 67.092,103.392002 C68.844,103.392002 70.116,102.696002 70.908,101.328002 L71.268,103.200002 L72.396,103.200002 L72.396,95.1840024 Z M76.26,94.9680024 C76.26,96.0000024 76.572,96.8880024 77.172,97.6320024 C76.284,98.0400024 75.684,98.8320024 75.684,99.7920024 C75.684,100.728002 75.996,101.376002 76.644,101.760002 C75.804,102.384002 75.396,103.224002 75.396,104.304002 C75.396,106.800002 77.316,108.288002 80.388,108.288002 C83.388,108.288002 85.356,106.968002 85.356,104.112002 C85.356,101.976002 83.94,100.944002 81.732,100.944002 L78.612,100.944002 C77.628,100.944002 77.124,100.560002 77.124,99.7920024 C77.124,99.1920024 77.46,98.7360024 78.108,98.4480024 C78.756,98.8320024 79.5,99.0240024 80.364,99.0240024 C81.54,99.0240024 82.5,98.6640024 83.292,97.9200024 C84.084,97.1760024 84.468,96.1920024 84.468,94.9680024 C84.468,94.0080024 84.18,93.1680024 83.628,92.4480024 L85.308,91.5120024 L84.612,90.2400024 L82.452,91.4640024 C81.804,91.1040024 81.108,90.9120024 80.364,90.9120024 C79.188,90.9120024 78.228,91.2960024 77.436,92.0400024 C76.644,92.7840024 76.26,93.7680024 76.26,94.9680024 L76.26,94.9680024 Z M81.564,102.240002 C83.124,102.240002 83.916,102.936002 83.916,104.304002 C83.916,105.864002 82.668,106.944002 80.388,106.944002 C78.06,106.944002 76.836,105.960002 76.836,104.352002 C76.836,103.368002 77.196,102.624002 77.916,102.168002 C78.276,102.216002 78.66,102.240002 79.092,102.240002 L81.564,102.240002 Z M78.492,92.9520024 C78.996,92.4480024 79.62,92.2080024 80.364,92.2080024 C81.108,92.2080024 81.708,92.4480024 82.212,92.9520024 C82.716,93.4560024 82.98,94.1280024 82.98,94.9680024 C82.98,95.8080024 82.716,96.4800024 82.212,96.9840024 C81.708,97.4880024 81.108,97.7280024 80.364,97.7280024 C79.62,97.7280024 78.996,97.4880024 78.492,96.9840024 C77.988,96.4800024 77.748,95.8080024 77.748,94.9680024 C77.748,94.1280024 77.988,93.4560024 78.492,92.9520024 L78.492,92.9520024 Z M97.812,96.4800024 C97.812,94.8240024 97.308,93.4800024 96.324,92.4480024 C95.34,91.4160024 94.068,90.9120024 92.508,90.9120024 C90.9,90.9120024 89.604,91.5120024 88.62,92.6880024 C87.636,93.8640024 87.132,95.3520024 87.132,97.1520024 C87.132,98.9520024 87.636,100.464002 88.62,101.640002 C89.604,102.816002 90.9,103.392002 92.508,103.392002 C94.812,103.392002 96.324,102.456002 97.548,100.056002 L96.228,99.4080024 C95.34,101.256002 94.332,102.000002 92.508,102.000002 C90.132,102.000002 88.692,100.032002 88.692,97.1520024 L97.812,97.1520024 L97.812,96.4800024 Z M92.508,92.3040024 C94.644,92.3040024 95.988,93.6240024 96.276,95.7600024 L88.788,95.7600024 C89.196,93.7200024 90.564,92.3040024 92.508,92.3040024 L92.508,92.3040024 Z M117.156,94.8960024 C117.156,92.2080024 116.076,90.9120024 113.748,90.9120024 C112.14,90.9120024 110.628,92.0400024 109.788,93.6000024 C109.428,91.8000024 108.324,90.9120024 106.5,90.9120024 C104.796,90.9120024 103.428,91.9680024 102.66,93.6240024 L102.66,91.1040024 L101.172,91.1040024 L101.172,103.200002 L102.66,103.200002 L102.66,97.8960024 C102.66,96.2160024 102.996,94.8720024 103.692,93.8400024 C104.388,92.8080024 105.252,92.3040024 106.26,92.3040024 C107.868,92.3040024 108.42,93.1920024 108.42,95.0880024 L108.42,103.200002 L109.908,103.200002 L109.908,97.8960024 C109.908,96.2160024 110.244,94.8720024 110.94,93.8400024 C111.636,92.8080024 112.5,92.3040024 113.508,92.3040024 C115.116,92.3040024 115.668,93.1920024 115.668,95.0880024 L115.668,103.200002 L117.156,103.200002 L117.156,94.8960024 Z M131.172,96.4800024 C131.172,94.8240024 130.668,93.4800024 129.684,92.4480024 C128.7,91.4160024 127.428,90.9120024 125.868,90.9120024 C124.26,90.9120024 122.964,91.5120024 121.98,92.6880024 C120.996,93.8640024 120.492,95.3520024 120.492,97.1520024 C120.492,98.9520024 120.996,100.464002 121.98,101.640002 C122.964,102.816002 124.26,103.392002 125.868,103.392002 C128.172,103.392002 129.684,102.456002 130.908,100.056002 L129.588,99.4080024 C128.7,101.256002 127.692,102.000002 125.868,102.000002 C123.492,102.000002 122.052,100.032002 122.052,97.1520024 L131.172,97.1520024 L131.172,96.4800024 Z M125.868,92.3040024 C128.004,92.3040024 129.348,93.6240024 129.636,95.7600024 L122.148,95.7600024 C122.556,93.7200024 123.924,92.3040024 125.868,92.3040024 L125.868,92.3040024 Z M143.82,94.8960024 C143.82,92.3760024 142.404,90.9120024 140.1,90.9120024 C138.372,90.9120024 136.788,91.9920024 135.948,93.6240024 L135.948,91.1040024 L134.46,91.1040024 L134.46,103.200002 L135.948,103.200002 L135.948,97.8960024 C135.948,96.2160024 136.308,94.8720024 137.052,93.8400024 C137.796,92.8080024 138.732,92.3040024 139.86,92.3040024 C141.516,92.3040024 142.332,93.2400024 142.332,95.0880024 L142.332,103.200002 L143.82,103.200002 L143.82,94.8960024 Z M148.188,92.4960024 L148.188,99.7680024 C148.188,102.192002 149.364,103.392002 151.212,103.392002 C152.1,103.392002 152.796,103.248002 153.324,102.960002 L152.916,101.616002 C152.508,101.880002 152.004,102.000002 151.404,102.000002 C150.276,102.000002 149.724,101.328002 149.724,100.008002 L149.724,92.4960024 L152.94,92.4960024 L152.94,91.1040024 L149.724,91.1040024 L149.724,86.2080024 L148.188,87.1920024 L148.188,91.1040024 L146.052,91.1040024 L146.052,92.4960024 L148.188,92.4960024 Z M163.14,92.4960024 L163.14,99.7680024 C163.14,102.192002 164.316,103.392002 166.164,103.392002 C167.052,103.392002 167.748,103.248002 168.276,102.960002 L167.868,101.616002 C167.46,101.880002 166.956,102.000002 166.356,102.000002 C165.228,102.000002 164.676,101.328002 164.676,100.008002 L164.676,92.4960024 L167.892,92.4960024 L167.892,91.1040024 L164.676,91.1040024 L164.676,86.2080024 L163.14,87.1920024 L163.14,91.1040024 L161.004,91.1040024 L161.004,92.4960024 L163.14,92.4960024 Z M171.756,101.520002 C172.788,102.768002 174.156,103.392002 175.86,103.392002 C177.564,103.392002 178.932,102.768002 179.964,101.520002 C180.996,100.272002 181.524,98.8080024 181.524,97.1520024 C181.524,95.4960024 180.996,94.0320024 179.964,92.7840024 C178.932,91.5360024 177.564,90.9120024 175.86,90.9120024 C174.156,90.9120024 172.788,91.5360024 171.756,92.7840024 C170.724,94.0320024 170.196,95.4960024 170.196,97.1520024 C170.196,98.8080024 170.724,100.272002 171.756,101.520002 L171.756,101.520002 Z M172.836,93.7440024 C173.58,92.7840024 174.588,92.3040024 175.86,92.3040024 C177.132,92.3040024 178.14,92.7840024 178.86,93.7440024 C179.604,94.7040024 179.964,95.8320024 179.964,97.1520024 C179.964,98.4720024 179.604,99.6000024 178.86,100.560002 C178.14,101.520002 177.132,102.000002 175.86,102.000002 C174.588,102.000002 173.58,101.520002 172.836,100.560002 C172.116,99.6000024 171.756,98.4720024 171.756,97.1520024 C171.756,95.8320024 172.116,94.7040024 172.836,93.7440024 L172.836,93.7440024 Z M186.012,101.520002 C187.044,102.768002 188.412,103.392002 190.116,103.392002 C191.82,103.392002 193.188,102.768002 194.22,101.520002 C195.252,100.272002 195.78,98.8080024 195.78,97.1520024 C195.78,95.4960024 195.252,94.0320024 194.22,92.7840024 C193.188,91.5360024 191.82,90.9120024 190.116,90.9120024 C188.412,90.9120024 187.044,91.5360024 186.012,92.7840024 C184.98,94.0320024 184.452,95.4960024 184.452,97.1520024 C184.452,98.8080024 184.98,100.272002 186.012,101.520002 L186.012,101.520002 Z M187.092,93.7440024 C187.836,92.7840024 188.844,92.3040024 190.116,92.3040024 C191.388,92.3040024 192.396,92.7840024 193.116,93.7440024 C193.86,94.7040024 194.22,95.8320024 194.22,97.1520024 C194.22,98.4720024 193.86,99.6000024 193.116,100.560002 C192.396,101.520002 191.388,102.000002 190.116,102.000002 C188.844,102.000002 187.836,101.520002 187.092,100.560002 C186.372,99.6000024 186.012,98.4720024 186.012,97.1520024 C186.012,95.8320024 186.372,94.7040024 187.092,93.7440024 L187.092,93.7440024 Z M198.828,103.200002 L200.316,103.200002 L200.316,86.2080024 L198.828,86.2080024 L198.828,103.200002 Z" id="A-personal-project"></path>
                            </g>
                        </g>
                    </g>
                </g>
            </g>
        </g>
    </g>
</svg>