<?xml version="1.0" encoding="UTF-8" standalone="no"?>
<svg width="44px" height="31px" viewBox="0 0 44 31" version="1.1" xmlns="http://www.w3.org/2000/svg" xmlns:xlink="http://www.w3.org/1999/xlink" xmlns:sketch="http://www.bohemiancoding.com/sketch/ns">
    <!-- Generator: Sketch 3.4.2 (15855) - http://www.bohemiancoding.com/sketch -->
    <title>conference</title>
    <desc>Created with Sketch.</desc>
    <defs></defs>
    <g id="Page-1" stroke="none" stroke-width="1" fill="none" fill-rule="evenodd" sketch:type="MSPage">
        <g id="conference" sketch:type="MSLayerGroup">
            <g id="Group" transform="translate(0.000000, 24.000000)" fill="#455A64" sketch:type="MSShapeGroup">
                <path d="M16,4 C16,4 13.786,0 8,0 C2.214,0 0,4 0,4 L0,7 L16,7 L16,4 L16,4 Z" id="Shape"></path>
                <path d="M44,4 C44,4 41.786,0 36,0 C30.214,0 28,4 28,4 L28,7 L44,7 L44,4 L44,4 Z" id="Shape"></path>
            </g>
            <path d="M26,20 C26,20 26,24 22,24 C18,24 18,20 18,20" id="Shape" fill="#FF9800" sketch:type="MSShapeGroup"></path>
            <path d="M34,26.939 C34,26.939 30.679,19 22,19 C13.321,19 10,26.939 10,26.939 L10,31 L34,31 L34,26.939 L34,26.939 Z" id="Shape" fill="#607D8B" sketch:type="MSShapeGroup"></path>
            <g id="Group" transform="translate(14.000000, 10.000000)" fill="#FFA726" sketch:type="MSShapeGroup">
                <path d="M16,1.5 C16,2.329 15.328,3 14.5,3 C13.672,3 13,2.329 13,1.5 C13,0.671 13.672,0 14.5,0 C15.328,0 16,0.671 16,1.5" id="Shape"></path>
                <path d="M3,1.5 C3,2.329 2.328,3 1.5,3 C0.672,3 0,2.329 0,1.5 C0,0.671 0.672,0 1.5,0 C2.328,0 3,0.671 3,1.5" id="Shape"></path>
            </g>
            <g id="Group" transform="translate(6.000000, 16.000000)" fill="#FF9800" sketch:type="MSShapeGroup">
                <path d="M4.001,5 L0.001,5 L0.001,8 C0.001,8 -0.123,10 1.96,10 C4.043,10 4.001,8 4.001,8 L4.001,5 L4.001,5 Z" id="Shape"></path>
                <path d="M32.001,5 L28.001,5 L28.001,8 C28.001,8 27.877,10 29.96,10 C32.043,10 32.001,8 32.001,8 L32.001,5 L32.001,5 Z" id="Shape"></path>
                <path d="M16,8 C12,8 12,4 12,4 L12,0 L20,0 L20,4 C20,4 20,8 16,8 L16,8 Z" id="Shape"></path>
            </g>
            <g id="Group" transform="translate(3.000000, 4.000000)" fill="#FFB74D" sketch:type="MSShapeGroup">
                <path d="M5,19 C2.242,19 0,16.757 0,14 C0,11.243 2.242,9 5,9 C7.758,9 10,11.243 10,14 C10,16.757 7.758,19 5,19" id="Shape"></path>
                <path d="M33,19 C30.242,19 28,16.757 28,14 C28,11.243 30.242,9 33,9 C35.758,9 38,11.243 38,14 C38,16.757 35.758,19 33,19" id="Shape"></path>
                <path d="M26,3.68 C26,-2.198 12,-0.147 12,3.68 L12,8.07 C12,11.896 15.133,15 19,15 C22.866,15 26,11.896 26,8.069 L26,3.68 L26,3.68 Z" id="Shape"></path>
            </g>
            <g id="Group" transform="translate(3.000000, 0.000000)" fill="#424242" sketch:type="MSShapeGroup">
                <path d="M4.781,11 C2.344,11.219 0,12.93 0,16.574 L0,18 L1,19 L1,16 L7.31,13.799 L9,16 L9,19 L10,18 L10,16.798 C10,14.384 9.865,12.592 7,12 L6.515,11 L4.781,11 L4.781,11 Z" id="Shape"></path>
                <path d="M32.781,11 C30.344,11.219 28,12.93 28,16.574 L28,18 L29,19 L29,16 L35.31,13.799 L37,16 L37,19 L38,18 L38,16.798 C38,14.384 37.865,12.592 35,12 L34.515,11 L32.781,11 L32.781,11 Z" id="Shape"></path>
                <path d="M19,0 C14.14,0 11,4.313 11,8.173 L11,10 L13,12 L13,8 L22.2,5 L25,8 L25,12 L27,10 L27,9.192 C27,5.972 26.17,2.388 22.2,1.599 L21.4,0 L19,0 L19,0 Z" id="Shape"></path>
            </g>
            <g id="Group" transform="translate(18.000000, 10.000000)" fill="#784719" sketch:type="MSShapeGroup">
                <path d="M6,1 C6,1.552 6.448,2 7,2 C7.552,2 8,1.552 8,1 C8,0.448 7.552,0 7,0 C6.448,0 6,0.448 6,1" id="Shape"></path>
                <path d="M0,1 C0,1.552 0.448,2 1,2 C1.552,2 2,1.552 2,1 C2,0.448 1.552,0 1,0 C0.448,0 0,0.448 0,1" id="Shape"></path>
            </g>
        </g>
    </g>
</svg>