<?xml version="1.0" encoding="UTF-8" standalone="no"?>
<svg width="34px" height="34px" viewBox="0 0 34 34" version="1.1" xmlns="http://www.w3.org/2000/svg" xmlns:xlink="http://www.w3.org/1999/xlink" xmlns:sketch="http://www.bohemiancoding.com/sketch/ns">
    <!-- Generator: Sketch 3.4.2 (15855) - http://www.bohemiancoding.com/sketch -->
    <title>domain-icon</title>
    <desc>Created with Sketch.</desc>
    <defs></defs>
    <g id="Page-1" stroke="none" stroke-width="1" fill="none" fill-rule="evenodd" sketch:type="MSPage">
        <g id="domain-icon" sketch:type="MSLayerGroup">
            <g id="Group" transform="translate(1.000000, 0.000000)" fill="#2196F3" sketch:type="MSShapeGroup">
                <path d="M2.375,11 C2.844,9.93 3.431,8.924 4.122,8 L8.386,8 C8.084,8.936 7.845,9.951 7.64,11 L9.689,11 C9.913,9.94 10.173,8.92 10.499,8 L15,8 L15,11 L17,11 L17,8 L21.5,8 C21.826,8.92 22.086,9.94 22.311,11 L24.36,11 C24.155,9.951 23.917,8.936 23.614,8 L27.879,8 C28.569,8.924 29.157,9.93 29.626,11 L31.777,11 C29.36,4.582 23.209,0 16,0 C8.791,0 2.64,4.582 0.224,11 L2.375,11 L2.375,11 Z M26.084,6 L22.863,6 C22.342,4.82 21.74,3.781 21.066,2.914 C22.945,3.603 24.645,4.658 26.084,6 L26.084,6 Z M17,2.182 C18.385,2.637 19.648,4.009 20.652,6 L17,6 L17,2.182 L17,2.182 Z M15,2.182 L15,6 L11.347,6 C12.352,4.009 13.615,2.637 15,2.182 L15,2.182 Z M10.933,2.914 C10.26,3.781 9.657,4.82 9.137,6 L5.916,6 C7.355,4.658 9.055,3.603 10.933,2.914 L10.933,2.914 Z" id="Shape"></path>
                <path d="M29.625,23 C29.156,24.07 28.568,25.076 27.878,26 L23.613,26 C23.916,25.064 24.154,24.049 24.359,23 L22.31,23 C22.085,24.06 21.826,25.08 21.499,26 L17,26 L17,23 L15,23 L15,26 L10.5,26 C10.174,25.08 9.914,24.06 9.69,23 L7.641,23 C7.846,24.049 8.084,25.064 8.387,26 L4.123,26 C3.432,25.076 2.845,24.07 2.376,23 L0.224,23 C2.64,29.418 8.791,34 16,34 C23.209,34 29.36,29.418 31.776,23 L29.625,23 L29.625,23 Z M5.916,28 L9.137,28 C9.658,29.179 10.261,30.219 10.933,31.086 C9.055,30.397 7.355,29.342 5.916,28 L5.916,28 Z M15,31.818 C13.615,31.363 12.352,29.991 11.347,28 L15,28 L15,31.818 L15,31.818 Z M17,31.818 L17,28 L20.652,28 C19.648,29.991 18.385,31.363 17,31.818 L17,31.818 Z M21.066,31.086 C21.74,30.219 22.342,29.179 22.863,28 L26.084,28 C24.645,29.342 22.945,30.397 21.066,31.086 L21.066,31.086 Z" id="Shape"></path>
            </g>
            <g id="Group" transform="translate(0.000000, 13.000000)" fill="#3F51B5" sketch:type="MSShapeGroup">
                <path d="M6.999,4.717 L7.756,0 L10,0 L8.229,8 L6.249,8 L5.005,3.251 L3.753,8 L1.773,8 L0,0 L2.246,0 L2.989,4.828 L4.184,0 L5.816,0 L6.999,4.717 L6.999,4.717 Z" id="Shape"></path>
                <path d="M18.998,4.717 L19.756,0 L22,0 L20.227,8 L18.247,8 L17.004,3.251 L15.753,8 L13.772,8 L12,0 L14.245,0 L14.989,4.828 L16.184,0 L17.816,0 L18.998,4.717 L18.998,4.717 Z" id="Shape"></path>
                <path d="M30.998,4.717 L31.756,0 L34,0 L32.229,8 L30.249,8 L29.005,3.252 L27.752,8 L25.772,8 L24,0 L26.244,0 L26.988,4.827 L28.184,0 L29.817,0 L30.998,4.717 L30.998,4.717 Z" id="Shape"></path>
            </g>
        </g>
    </g>
</svg>