<?xml version="1.0" encoding="UTF-8" standalone="no"?>
<svg width="24px" height="27px" viewBox="0 0 24 27" version="1.1" xmlns="http://www.w3.org/2000/svg" xmlns:xlink="http://www.w3.org/1999/xlink" xmlns:sketch="http://www.bohemiancoding.com/sketch/ns">
    <!-- Generator: Sketch 3.4.2 (15855) - http://www.bohemiancoding.com/sketch -->
    <title>stack</title>
    <desc>Created with Sketch.</desc>
    <defs></defs>
    <g id="Project" stroke="none" stroke-width="1" fill="none" fill-rule="evenodd" sketch:type="MSPage">
        <g id="Desktop-HD" sketch:type="MSArtboardGroup" transform="translate(-830.000000, -629.000000)">
            <g id="Page" sketch:type="MSLayerGroup" transform="translate(-60.000000, 189.000000)">
                <g id="Main" transform="translate(832.000000, 144.000000)" sketch:type="MSShapeGroup">
                    <g id="Deets" transform="translate(58.000000, 268.000000)">
                        <g id="Details">
                            <g id="stack" transform="translate(0.000000, 28.000000)">
                                <g id="Слой_1">
                                    <g>
                                        <g id="Group" fill="#455A64">
                                            <path d="M24,20.6666667 C24,22.1393333 22.806,22.6666667 21.3333333,22.6666667 L2.66666667,22.6666667 C1.194,22.6666667 0,22.1393333 0,20.6666667 L2,12.6666667 C2.146,11.2706667 3.194,10 4.66666667,10 L19.3333333,10 C20.806,10 21.792,11.1666667 22,12.6666667 L24,20.6666667 L24,20.6666667 Z" id="Shape"></path>
                                            <path d="M24,15.3333333 C24,16.806 22.806,17.3333333 21.3333333,17.3333333 L2.66666667,17.3333333 C1.194,17.3333333 0,16.806 0,15.3333333 L2,7.33333333 C2.146,5.93733333 3.194,4.66666667 4.66666667,4.66666667 L19.3333333,4.66666667 C20.806,4.66666667 21.792,5.83333333 22,7.33333333 L24,15.3333333 L24,15.3333333 Z" id="Shape"></path>
                                            <path d="M24,10 C24,11.4726667 22.806,12 21.3333333,12 L2.66666667,12 C1.194,12 0,11.4726667 0,10 L2,2 C2.40666667,0.892 3.194,0 4.66666667,0 L19.3333333,0 C20.806,0 21.4673333,0.724666667 22,2 L24,10 L24,10 Z" id="Shape"></path>
                                        </g>
                                        <g id="Group" transform="translate(0.000000, 10.000000)" fill="#78909C">
                                            <path d="M21.3333333,2 L2.66666667,2 C1.194,2 0,1.47266667 0,0 L0,4 C0,5.47266667 1.194,6 2.66666667,6 L21.3333333,6 C22.806,6 24,5.47266667 24,4 L24,0 C24,1.47266667 22.806,2 21.3333333,2 L21.3333333,2 Z" id="Shape"></path>
                                            <path d="M21.3333333,7.33333333 L2.66666667,7.33333333 C1.194,7.33333333 0,6.806 0,5.33333333 L0,9.33333333 C0,10.806 1.194,11.3333333 2.66666667,11.3333333 L21.3333333,11.3333333 C22.806,11.3333333 24,10.806 24,9.33333333 L24,5.33333333 C24,6.806 22.806,7.33333333 21.3333333,7.33333333 L21.3333333,7.33333333 Z" id="Shape"></path>
                                            <path d="M21.3333333,12.6666667 L2.66666667,12.6666667 C1.194,12.6666667 0,12.1393333 0,10.6666667 L0,14.6666667 C0,16.1393333 1.194,16.6666667 2.66666667,16.6666667 L21.3333333,16.6666667 C22.806,16.6666667 24,16.1393333 24,14.6666667 L24,10.6666667 C24,12.1393333 22.806,12.6666667 21.3333333,12.6666667 L21.3333333,12.6666667 Z" id="Shape"></path>
                                        </g>
                                        <g id="Group" transform="translate(18.000000, 12.666667)" fill="#64DD17">
                                            <circle id="Oval" cx="1.33333333" cy="12" r="1.33333333"></circle>
                                            <circle id="Oval" cx="1.33333333" cy="6.66666667" r="1.33333333"></circle>
                                            <circle id="Oval" cx="1.33333333" cy="1.33333333" r="1.33333333"></circle>
                                        </g>
                                    </g>
                                </g>
                            </g>
                        </g>
                    </g>
                </g>
            </g>
        </g>
    </g>
</svg>