<?xml version="1.0" encoding="UTF-8" standalone="no"?>
<svg width="24px" height="30px" viewBox="0 0 24 30" version="1.1" xmlns="http://www.w3.org/2000/svg" xmlns:xlink="http://www.w3.org/1999/xlink" xmlns:sketch="http://www.bohemiancoding.com/sketch/ns">
    <!-- Generator: Sketch 3.4.2 (15855) - http://www.bohemiancoding.com/sketch -->
    <title>collaborator</title>
    <desc>Created with Sketch.</desc>
    <defs></defs>
    <g id="Project" stroke="none" stroke-width="1" fill="none" fill-rule="evenodd" sketch:type="MSPage">
        <g id="Desktop-HD" sketch:type="MSArtboardGroup" transform="translate(-830.000000, -722.000000)">
            <g id="Page" sketch:type="MSLayerGroup" transform="translate(-60.000000, 189.000000)">
                <g id="Main" transform="translate(832.000000, 144.000000)" sketch:type="MSShapeGroup">
                    <g id="Deets" transform="translate(58.000000, 268.000000)">
                        <g id="Details">
                            <g id="Role" transform="translate(0.000000, 121.000000)">
                                <g id="collaborator">
                                    <g id="Слой_1">
                                        <path d="M12,24.75 L8.25,20.25 L8.25,15.75 L15.75,15.75 L15.75,20.25 L12,24.75 Z" id="Shape" fill="#FF9800"></path>
                                        <g id="Group" transform="translate(3.750000, 9.750000)" fill="#FFA726">
                                            <path d="M16.5,1.5 C16.5,2.32875 15.82875,3 15,3 C14.17125,3 13.5,2.32875 13.5,1.5 C13.5,0.67125 14.17125,0 15,0 C15.82875,0 16.5,0.67125 16.5,1.5" id="Shape"></path>
                                            <path d="M3,1.5 C3,2.32875 2.32875,3 1.5,3 C0.67125,3 0,2.32875 0,1.5 C0,0.67125 0.67125,0 1.5,0 C2.32875,0 3,0.67125 3,1.5" id="Shape"></path>
                                        </g>
                                        <path d="M18.75,6.75 C18.75,1.02375 5.25,3.02175 5.25,6.75 L5.25,12 C5.25,15.72825 8.27175,18.75 12,18.75 C15.72825,18.75 18.75,15.72825 18.75,12 L18.75,6.75 L18.75,6.75 Z" id="Shape" fill="#FFB74D"></path>
                                        <path d="M12,0 C7.44375,0 4.5,3.69375 4.5,8.25 L4.5,9.963 L6,11.25 L6,7.5 L15,4.5 L18,7.5 L18,11.25 L19.5,9.94425 L19.5,8.25 C19.5,5.23125 18.7215,2.23875 15,1.5 L14.25,0 L12,0 L12,0 Z" id="Shape" fill="#424242"></path>
                                        <g id="Group" transform="translate(8.250000, 10.500000)" fill="#784719">
                                            <path d="M6,0.75 C6,1.164 6.336,1.5 6.75,1.5 C7.164,1.5 7.5,1.164 7.5,0.75 C7.5,0.336 7.164,0 6.75,0 C6.336,0 6,0.336 6,0.75" id="Shape"></path>
                                            <path d="M0,0.75 C0,1.164 0.336,1.5 0.75,1.5 C1.164,1.5 1.5,1.164 1.5,0.75 C1.5,0.336 1.164,0 0.75,0 C0.336,0 0,0.336 0,0.75" id="Shape"></path>
                                        </g>
                                        <path d="M15.75,20.25 L15.75,20.25 L12,21 L8.25,20.25 C8.25,20.25 0,21.7395 0,30 L24,30 C24,21.76875 15.75,20.25 15.75,20.25" id="Shape" fill="#CFD8DC"></path>
                                        <path d="M11.25,23.25 L10.5,30 L13.5,30 L12.75,23.25 L13.5,22.5 L12,21 L10.5,22.5 L11.25,23.25 Z" id="Shape" fill="#3F51B5"></path>
                                        <rect id="Rectangle-path" fill="#FFFFFF" x="15.75" y="25.5" width="5.25" height="3"></rect>
                                    </g>
                                </g>
                            </g>
                        </g>
                    </g>
                </g>
            </g>
        </g>
    </g>
</svg>