<?xml version="1.0" encoding="UTF-8" standalone="no"?>
<svg width="24px" height="24px" viewBox="0 0 24 24" version="1.1" xmlns="http://www.w3.org/2000/svg" xmlns:xlink="http://www.w3.org/1999/xlink" xmlns:sketch="http://www.bohemiancoding.com/sketch/ns">
    <!-- Generator: Sketch 3.4.2 (15855) - http://www.bohemiancoding.com/sketch -->
    <title>github</title>
    <desc>Created with Sketch.</desc>
    <defs></defs>
    <g id="Project" stroke="none" stroke-width="1" fill="none" fill-rule="evenodd" sketch:type="MSPage">
        <g id="Desktop-HD" sketch:type="MSArtboardGroup" transform="translate(-830.000000, -680.000000)">
            <g id="Page" sketch:type="MSLayerGroup" transform="translate(-60.000000, 189.000000)">
                <g id="Main" transform="translate(832.000000, 144.000000)" sketch:type="MSShapeGroup">
                    <g id="Deets" transform="translate(58.000000, 268.000000)">
                        <g id="Details">
                            <g id="Contribution" transform="translate(0.000000, 76.000000)">
                                <g id="github" transform="translate(0.000000, 3.000000)">
                                    <g id="Слой_1">
                                        <circle id="Oval" fill="#FFFFFF" cx="12" cy="12" r="10.7368421"></circle>
                                        <g id="Group" transform="translate(1.263158, 5.052632)">
                                            <path d="M8.84210526,17.6842105 L8.84210526,14.2105263 C8.84210526,14.0362105 8.98357895,13.8947368 9.15789474,13.8947368 C9.33221053,13.8947368 9.47368421,14.0362105 9.47368421,14.2105263 L9.47368421,17.6842105 L10.7368421,17.6842105 L10.7368421,13.5789474 C10.7368421,13.4046316 10.8783158,13.2631579 11.0526316,13.2631579 C11.2269474,13.2631579 11.3684211,13.4046316 11.3684211,13.5789474 L11.3684211,17.6842105 L12.6315789,17.6842105 L12.6315789,14.2105263 C12.6315789,14.0362105 12.7730526,13.8947368 12.9473684,13.8947368 C13.1216842,13.8947368 13.2631579,14.0362105 13.2631579,14.2105263 L13.2631579,17.6842105 L14.3734737,17.6842105 C14.472,17.5105263 14.5263158,17.2882105 14.5263158,17.0027368 L14.5263158,14.5130526 C14.5263158,13.1482105 13.32,11.2092632 11.8414737,11.2092632 L10.2631579,11.2092632 C8.78526316,11.2092632 7.57894737,13.1488421 7.57894737,14.5130526 L7.57894737,17.0027368 C7.57894737,17.2882105 7.63326316,17.5105263 7.73115789,17.6842105 L8.84210526,17.6842105 L8.84210526,17.6842105 Z" id="Shape" fill="#455A64"></path>
                                            <path id="Shape" stroke="#455A64" stroke-width="0.25" d="M17.4429474,8.33494737 C17.4429474,8.33494737 18.6517895,8.12778947 19.3654737,8.14042105 C20.0873684,8.14736842 20.9052632,8.36968421 20.9052632,8.36968421"></path>
                                            <path id="Shape" stroke="#455A64" stroke-width="0.25" d="M17.1385263,8.72463158 C17.1385263,8.72463158 18.5191579,8.59642105 19.0882105,8.61410526 C19.8789474,8.63431579 20.7252632,8.87747368 20.7252632,8.87747368"></path>
                                            <path id="Shape" stroke="#455A64" stroke-width="0.25" d="M4.77726316,8.26673684 C4.77726316,8.26673684 3.06694737,8.112 2.53263158,8.112 C1.99705263,8.112 0.984,8.26673684 0.496421053,8.40631579"></path>
                                            <path d="M5.16568421,8.80042105 C5.16568421,8.80042105 3.37263158,8.63431579 2.55663158,8.73221053 C1.58084211,8.84778947 0.728842105,9.35873684 0.728842105,9.35873684" id="Shape" stroke="#455A64" stroke-width="0.25"></path>
                                            <path d="M4.53094737,6.60631579 C4.53094737,3.81726316 7.44821053,1.26315789 11.0526316,1.26315789 C14.6507368,1.26315789 17.5743158,3.816 17.5743158,6.60631579 C17.5743158,9.39726316 15.4818947,11.3684211 11.0526316,11.3684211 C6.624,11.3684211 4.53094737,9.39726316 4.53094737,6.60631579 L4.53094737,6.60631579 Z" id="Shape" fill="#455A64"></path>
                                            <path d="M13.6332632,2.09115789 C13.6332632,2.09115789 14.6924211,0.630947368 16.6458947,0.630947368 C17.424,1.40842105 16.8890526,3.63726316 16.6345263,4.30610526 L13.6332632,2.09115789 L13.6332632,2.09115789 Z" id="Shape" fill="#455A64"></path>
                                            <path d="M8.46505263,2.09178947 C8.46505263,2.09178947 7.40589474,0.631578947 5.46,0.631578947 C4.68252632,1.41031579 5.20989474,3.63789474 5.46378947,4.30673684 L8.46505263,2.09178947 L8.46505263,2.09178947 Z" id="Shape" fill="#455A64"></path>
                                            <path d="M8.27747368,14.4397895 L6.51536842,14.4397895 C5.74484211,14.4397895 5.06273684,14.1025263 4.73242105,13.4892632 C4.36168421,12.8077895 4.01242105,12.0366316 3.09978947,11.3993684 C2.93873684,11.2863158 3.03157895,11.1227368 3.348,11.1593684 C3.65684211,11.1915789 4.24231579,11.2597895 4.69073684,11.8465263 C5.13789474,12.4338947 5.62610526,13.1077895 6.46547368,13.1077895 C7.29663158,13.1077895 8.20042105,13.1298947 8.65578947,12.528 L8.27747368,14.4397895 L8.27747368,14.4397895 Z" id="Shape" fill="#455A64"></path>
                                        </g>
                                        <path d="M12,0 C5.37094737,0 0,5.37094737 0,12 C0,18.6290526 5.37094737,24 12,24 C18.6290526,24 24,18.6290526 24,12 C24,5.37094737 18.6290526,0 12,0 L12,0 Z M12,22.1261053 C6.41810526,22.1261053 1.87389474,17.5818947 1.87389474,12 C1.87389474,6.41810526 6.41810526,1.87389474 12,1.87389474 C17.5818947,1.87389474 22.1261053,6.41810526 22.1261053,12 C22.1261053,17.5818947 17.5818947,22.1261053 12,22.1261053 L12,22.1261053 Z" id="Shape" fill="#00BCD4"></path>
                                    </g>
                                </g>
                            </g>
                        </g>
                    </g>
                </g>
            </g>
        </g>
    </g>
</svg>