<?xml version="1.0" encoding="UTF-8" standalone="no"?>
<svg width="276px" height="41px" viewBox="0 0 276 41" version="1.1" xmlns="http://www.w3.org/2000/svg" xmlns:xlink="http://www.w3.org/1999/xlink" xmlns:sketch="http://www.bohemiancoding.com/sketch/ns">
    <!-- Generator: Sketch 3.4.2 (15855) - http://www.bohemiancoding.com/sketch -->
    <title>&lt;slightlytyler /&gt;</title>
    <desc>Created with Sketch.</desc>
    <defs></defs>
    <g id="Project" stroke="none" stroke-width="1" fill="none" fill-rule="evenodd" sketch:type="MSPage">
        <g id="Desktop-HD" sketch:type="MSArtboardGroup" transform="translate(-51.000000, -242.000000)" fill="#19243E">
            <g id="Page" sketch:type="MSLayerGroup" transform="translate(-60.000000, 189.000000)">
                <g id="Header" transform="translate(60.000000, 0.000000)" sketch:type="MSShapeGroup">
                    <path d="M66.002,80.968 L66.002,78.364 L54.116,71.98 L66.002,65.596 L66.002,62.992 L51.932,70.552 L51.932,73.408 L66.002,80.968 Z M79.862,63.496 C75.704,63.496 73.142,65.764 73.142,69.628 C73.142,72.316 74.696,73.786 77.51,74.962 C79.148,75.676 79.946,76.012 80.744,77.188 C81.164,77.734 81.374,78.406 81.374,79.162 C81.374,81.514 79.61,82.9 77.216,82.9 C74.738,82.9 73.142,81.346 72.512,78.28 L69.992,79.456 C70.16,80.926 70.832,82.312 72.05,83.53 C73.268,84.748 74.864,85.336 76.838,85.336 C81.416,85.336 84.188,83.026 84.188,78.49 C84.188,76.18 82.592,74.29 79.358,72.82 C78.14,72.274 77.762,72.064 76.964,71.518 C76.166,70.888 75.872,70.216 75.872,69.25 C75.872,67.234 77.426,65.932 79.484,65.932 C81.29,65.932 82.592,66.73 83.474,68.284 L85.532,66.772 C84.272,64.588 82.382,63.496 79.862,63.496 L79.862,63.496 Z M88.472,85 L91.118,85 L96.83,55.264 L94.184,55.264 L88.472,85 Z M97.754,85 L100.4,85 L104.474,63.832 L101.828,63.832 L97.754,85 Z M102.668,59.296 C103.508,60.094 104.936,60.094 105.734,59.296 C106.574,58.456 106.574,57.028 105.734,56.23 C104.936,55.39 103.508,55.39 102.668,56.23 C101.87,57.028 101.87,58.456 102.668,59.296 L102.668,59.296 Z M109.766,71.728 C109.766,72.988 110.102,74.122 110.732,75.088 C108.338,76.012 107.12,77.566 107.12,79.75 C107.12,80.8 107.456,81.64 108.128,82.228 C106.238,83.488 105.272,85.294 105.272,87.646 C105.272,91.468 108.002,93.904 112.832,93.904 C119.09,93.904 122.744,91.384 122.744,86.008 C122.744,82.69 120.896,81.052 117.158,81.052 L111.992,81.052 C110.522,81.052 109.766,80.422 109.766,79.204 C109.766,78.028 110.564,77.188 112.202,76.642 C113.378,77.356 114.68,77.692 116.108,77.692 C120.98,77.692 124.256,74.626 124.256,69.754 C124.256,68.578 123.962,67.486 123.416,66.478 L126.944,64.546 L125.978,62.32 L121.652,64.504 C120.854,63.832 119.678,63.496 118.166,63.496 C115.688,63.496 113.63,64.252 112.076,65.764 C110.522,67.276 109.766,69.25 109.766,71.728 L109.766,71.728 Z M116.612,83.32 C118.922,83.32 120.098,84.37 120.098,86.428 C120.098,88.234 119.384,89.536 117.998,90.334 C116.612,91.132 114.974,91.552 113.042,91.552 C109.682,91.552 107.792,89.872 107.792,87.394 C107.792,85.462 108.674,84.076 110.48,83.194 C111.11,83.278 111.74,83.32 112.37,83.32 L116.612,83.32 Z M117.914,65.764 C120.098,65.764 121.61,67.276 121.61,69.964 C121.61,73.156 119.51,75.424 116.15,75.424 C113.924,75.424 112.412,74.08 112.412,71.392 C112.412,68.2 114.722,65.764 117.914,65.764 L117.914,65.764 Z M147.902,70.468 C148.028,69.838 148.07,69.166 148.07,68.452 C148.07,65.134 146.306,63.496 142.778,63.496 C139.25,63.496 136.436,65.134 134.378,68.452 L136.94,55.264 L134.294,55.264 L128.582,85 L131.228,85 L132.908,75.97 C133.454,73.114 134.63,70.72 136.394,68.83 C138.2,66.898 140.006,65.932 141.896,65.932 C144.122,65.932 145.34,67.192 145.34,69.208 C145.34,69.754 145.298,70.258 145.172,70.804 L142.442,85 L145.088,85 L147.902,70.468 Z M155.84,66.268 L153.488,78.532 C153.32,79.54 153.236,80.212 153.236,80.59 C153.236,83.614 154.958,85.336 157.478,85.336 C159.032,85.336 160.292,85.084 161.3,84.58 L161.048,82.228 C160.25,82.69 159.326,82.9 158.192,82.9 C156.638,82.9 155.882,82.144 155.882,80.632 C155.882,80.254 155.924,79.834 156.008,79.414 L158.57,66.268 L164.03,66.268 L164.492,63.832 L159.032,63.832 L160.712,55.264 L157.646,56.986 L156.302,63.832 L152.648,63.832 L152.186,66.268 L155.84,66.268 Z M166.004,85 L168.65,85 L174.362,55.264 L171.716,55.264 L166.004,85 Z M182.594,81.094 L179.906,63.832 L177.092,63.832 L180.494,84.874 L175.748,93.568 L178.562,93.568 L194.858,63.832 L191.792,63.832 L182.594,81.094 Z M200.318,66.268 L197.966,78.532 C197.798,79.54 197.714,80.212 197.714,80.59 C197.714,83.614 199.436,85.336 201.956,85.336 C203.51,85.336 204.77,85.084 205.778,84.58 L205.526,82.228 C204.728,82.69 203.804,82.9 202.67,82.9 C201.116,82.9 200.36,82.144 200.36,80.632 C200.36,80.254 200.402,79.834 200.486,79.414 L203.048,66.268 L208.508,66.268 L208.97,63.832 L203.51,63.832 L205.19,55.264 L202.124,56.986 L200.78,63.832 L197.126,63.832 L196.664,66.268 L200.318,66.268 Z M217.79,81.094 L215.102,63.832 L212.288,63.832 L215.69,84.874 L210.944,93.568 L213.758,93.568 L230.054,63.832 L226.988,63.832 L217.79,81.094 Z M230.012,85 L232.658,85 L238.37,55.264 L235.724,55.264 L230.012,85 Z M259.37,73.24 C259.538,72.4 259.622,71.686 259.622,71.098 C259.622,66.52 256.85,63.496 252.146,63.496 C249.836,63.496 247.736,64.168 245.888,65.512 C244.082,66.856 242.696,68.536 241.772,70.51 C240.848,72.484 240.386,74.5 240.386,76.642 C240.386,81.976 243.2,85.336 247.904,85.336 C252.146,85.336 255.422,83.404 257.69,79.498 L255.548,78.154 C253.238,81.388 251.348,82.9 248.366,82.9 C244.964,82.9 243.116,80.59 243.116,76.768 C243.116,75.886 243.2,75.088 243.41,74.416 L259.16,74.416 L259.37,73.24 Z M251.684,65.932 C255.212,65.932 256.976,67.948 256.976,71.98 L244.124,71.98 C245.594,68.41 248.366,65.932 251.684,65.932 L251.684,65.932 Z M278.564,64.21 C277.472,63.748 276.464,63.496 275.582,63.496 C272.852,63.496 270.038,65.134 268.568,67.612 L269.324,63.832 L266.678,63.832 L262.604,85 L265.25,85 L266.972,76.012 C267.602,72.862 268.652,70.426 270.122,68.62 C271.592,66.814 273.146,65.932 274.742,65.932 C275.75,65.932 276.674,66.184 277.472,66.688 L278.564,64.21 Z M284.528,87.1 L287.594,87.1 L312.416,53.5 L309.35,53.5 L284.528,87.1 Z M312.248,62.992 L312.248,65.596 L324.134,71.98 L312.248,78.364 L312.248,80.968 L326.318,73.408 L326.318,70.552 L312.248,62.992 Z" id="&lt;slightlytyler-/&gt;"></path>
                </g>
            </g>
        </g>
    </g>
</svg>