<?xml version="1.0" encoding="UTF-8" standalone="no"?>
<svg width="38px" height="39px" viewBox="0 0 38 39" version="1.1" xmlns="http://www.w3.org/2000/svg" xmlns:xlink="http://www.w3.org/1999/xlink" xmlns:sketch="http://www.bohemiancoding.com/sketch/ns">
    <!-- Generator: Sketch 3.4.2 (15855) - http://www.bohemiancoding.com/sketch -->
    <title>sell</title>
    <desc>Created with Sketch.</desc>
    <defs></defs>
    <g id="Page-1" stroke="none" stroke-width="1" fill="none" fill-rule="evenodd" sketch:type="MSPage">
        <g id="sell" sketch:type="MSLayerGroup">
            <path d="M27.4,23.1 L14.2,30.9 L17.3,34.9 L30,27.3 C31.1,26.6 31.5,25.1 30.8,24 L30.8,24 C30.1,22.8 28.6,22.4 27.4,23.1 L27.4,23.1 Z" id="Shape" fill="#E39D36" sketch:type="MSShapeGroup"></path>
            <path d="M31,23.5 L17.8,31.3 L20.9,35.3 L33.5,27.7 C34.6,27 35,25.5 34.3,24.4 L34.3,24.4 C33.6,23.3 32.1,22.9 31,23.5 L31,23.5 Z" id="Shape" fill="#EDA740" sketch:type="MSShapeGroup"></path>
            <path d="M33.9,24.4 L21.5,31.7 L21.5,31.7 L15.6,28.3 L18.5,29.9 C19.8,30.6 21.4,30.4 22.4,29.3 C23.7,27.8 23.3,25.5 21.6,24.6 L9.2,17.8 C8.1,17.2 6.7,17.2 5.5,17.8 L0,21.1 C0,21.1 0,21.1 0,21.2 L0,31.9 L4,29.4 L19.1,37.6 C20.3,38.2 21.7,38.2 22.9,37.5 L36.7,29.2 C38,28.4 38.4,26.8 37.6,25.5 L37.6,25.5 C36.9,24.1 35.2,23.7 33.9,24.4 L33.9,24.4 Z" id="Shape" fill="#FFB74D" sketch:type="MSShapeGroup"></path>
            <path d="M34,16 L12,16 C10.9,16 10,15.1 10,14 L10,4 L36,4 L36,14 C36,15.1 35.1,16 34,16 L34,16 Z" id="Shape" fill="#7986CB" sketch:type="MSShapeGroup"></path>
            <path d="M37,4 L9,4 L9,2 C9,0.9 9.9,0 11,0 L35,0 C36.1,0 37,0.9 37,2 L37,4 L37,4 Z" id="Shape" fill="#9FA8DA" sketch:type="MSShapeGroup"></path>
            <path d="M21.5,31.8 L21.5,31.8 L20.2,30.9 L9.5,24.9 L17.5,31.5 C18.7,32.4 20.2,32.5 21.5,31.8 L21.5,31.8 Z" id="Shape" fill="#EDA740" sketch:type="MSShapeGroup"></path>
            <path d="M19.4,29.2 C18.5,28.7 18.8,27.9 19.3,27 C19.8,26.1 20.2,25.4 21.1,25.9 C22,26.4 22.4,27.5 21.9,28.4 C21.5,29.3 20.4,29.6 19.4,29.2 L19.4,29.2 Z" id="Shape" fill="#FFCC80" sketch:type="MSShapeGroup"></path>
            <path d="M26,7 L20,7 C19.4,7 19,6.6 19,6 L19,6 C19,5.4 19.4,5 20,5 L26,5 C26.6,5 27,5.4 27,6 L27,6 C27,6.6 26.6,7 26,7 L26,7 Z" id="Shape" fill="#3E4778" sketch:type="MSShapeGroup"></path>
        </g>
    </g>
</svg>