<?xml version="1.0" encoding="UTF-8" standalone="no"?>
<svg width="32px" height="42px" viewBox="0 0 32 42" version="1.1" xmlns="http://www.w3.org/2000/svg" xmlns:xlink="http://www.w3.org/1999/xlink" xmlns:sketch="http://www.bohemiancoding.com/sketch/ns">
    <!-- Generator: Sketch 3.4.2 (15855) - http://www.bohemiancoding.com/sketch -->
    <title>agreement</title>
    <desc>Created with Sketch.</desc>
    <defs></defs>
    <g id="Page-1" stroke="none" stroke-width="1" fill="none" fill-rule="evenodd" sketch:type="MSPage">
        <g id="agreement" sketch:type="MSLayerGroup">
            <path d="M32,42 L0,42 L0,0 L22,0 L32,10 L32,42 Z" id="Shape" fill="#90CAF9" sketch:type="MSShapeGroup"></path>
            <path d="M30.5,11 L21,11 L21,1.5 L30.5,11 Z" id="Shape" fill="#E1F5FE" sketch:type="MSShapeGroup"></path>
            <g id="Group" transform="translate(6.000000, 7.000000)" fill="#1976D2" sketch:type="MSShapeGroup">
                <rect id="Rectangle-path" x="0" y="10" width="20" height="2"></rect>
                <rect id="Rectangle-path" x="0" y="6" width="20" height="2"></rect>
                <rect id="Rectangle-path" x="0" y="0" width="13" height="4"></rect>
                <rect id="Rectangle-path" x="0" y="14" width="20" height="2"></rect>
            </g>
            <path d="M22.929,32.08 C21.113,32.08 20.782,34.257 19.838,34.257 C19.012,34.257 19.886,32.08 18.981,32.08 C18.133,32.08 17.295,34.983 16.028,34.983 C15.21,34.983 14.946,33.946 14.946,32.568 C14.946,31.19 15.476,29.902 16.398,29.902 C18.345,29.902 15.14,35.708 11.765,35.708 C10.131,35.708 9.156,33.701 9.156,32.234 C9.156,28.88 11.118,26.999 12.293,26.999 C13.421,26.999 13.495,28.226 13.495,29.008 C13.495,32.733 9.14,37.16 9.14,37.16" id="XMLID_7217_" stroke="#1565C0" stroke-width="1.2" sketch:type="MSShapeGroup"></path>
        </g>
    </g>
</svg>