<?xml version="1.0" encoding="UTF-8" standalone="no"?>
<svg width="213px" height="113px" viewBox="0 0 213 113" version="1.1" xmlns="http://www.w3.org/2000/svg" xmlns:xlink="http://www.w3.org/1999/xlink" xmlns:sketch="http://www.bohemiancoding.com/sketch/ns">
    <!-- Generator: Sketch 3.4.2 (15855) - http://www.bohemiancoding.com/sketch -->
    <title>Logo</title>
    <desc>Created with Sketch.</desc>
    <defs></defs>
    <g id="Home" stroke="none" stroke-width="1" fill="none" fill-rule="evenodd" sketch:type="MSPage">
        <g id="Desktop-HD" sketch:type="MSArtboardGroup" transform="translate(-778.000000, -1340.000000)" fill="#FFFFFF">
            <g id="Page" sketch:type="MSLayerGroup" transform="translate(0.000000, 189.000000)">
                <g id="Content" transform="translate(0.000000, 143.000000)">
                    <g id="Featured-projects" transform="translate(0.000000, 890.000000)">
                        <g id="Product-2" transform="translate(720.000000, 0.000000)">
                            <g id="Logo" transform="translate(58.000000, 90.000000)">
                                <text id="Moxie" sketch:type="MSTextLayer" font-family="Pacifico" font-size="64" font-weight="normal" line-spacing="83">
                                    <tspan x="2" y="83">Moxie</tspan>
                                </text>
                                <path d="M13.08,113 L13.08,105.234 L8.064,105.234 L8.064,106.598 L11.628,106.598 C11.606,110.008 9.978,111.812 7.052,111.812 C5.49,111.812 4.214,111.24 3.246,110.096 C2.3,108.952 1.816,107.346 1.816,105.3 C1.816,103.254 2.3,101.648 3.246,100.504 C4.214,99.36 5.49,98.788 7.052,98.788 C9.274,98.788 10.858,100.042 11.562,102.308 L12.992,101.912 C12.222,99.118 10.066,97.424 7.052,97.424 C5.182,97.424 3.598,98.106 2.278,99.492 C0.958,100.878 0.298,102.814 0.298,105.3 C0.298,107.786 0.958,109.722 2.278,111.108 C3.598,112.494 5.182,113.176 7.052,113.176 C9.076,113.176 10.814,112.208 11.628,110.624 L11.804,113 L13.08,113 Z M16.578,99.536 C17.018,99.954 17.766,99.954 18.184,99.536 C18.624,99.096 18.624,98.348 18.184,97.93 C17.766,97.49 17.018,97.49 16.578,97.93 C16.16,98.348 16.16,99.096 16.578,99.536 L16.578,99.536 Z M16.71,113 L18.074,113 L18.074,101.912 L16.71,101.912 L16.71,113 Z M24.938,111.174 L21.88,101.912 L20.45,101.912 L24.19,113 L25.686,113 L29.426,101.912 L27.996,101.912 L24.938,111.174 Z M40.756,106.84 C40.756,105.322 40.294,104.09 39.392,103.144 C38.49,102.198 37.324,101.736 35.894,101.736 C34.42,101.736 33.232,102.286 32.33,103.364 C31.428,104.442 30.966,105.806 30.966,107.456 C30.966,109.106 31.428,110.492 32.33,111.57 C33.232,112.648 34.42,113.176 35.894,113.176 C38.006,113.176 39.392,112.318 40.514,110.118 L39.304,109.524 C38.49,111.218 37.566,111.9 35.894,111.9 C33.716,111.9 32.396,110.096 32.396,107.456 L40.756,107.456 L40.756,106.84 Z M35.894,103.012 C37.852,103.012 39.084,104.222 39.348,106.18 L32.484,106.18 C32.858,104.31 34.112,103.012 35.894,103.012 L35.894,103.012 Z M52.526,110.888 L49.226,101.912 L47.796,101.912 L51.778,112.934 L50.172,117.488 L51.536,117.488 L57.036,101.912 L55.606,101.912 L52.526,110.888 Z M60.16,111.46 C61.106,112.604 62.36,113.176 63.922,113.176 C65.484,113.176 66.738,112.604 67.684,111.46 C68.63,110.316 69.114,108.974 69.114,107.456 C69.114,105.938 68.63,104.596 67.684,103.452 C66.738,102.308 65.484,101.736 63.922,101.736 C62.36,101.736 61.106,102.308 60.16,103.452 C59.214,104.596 58.73,105.938 58.73,107.456 C58.73,108.974 59.214,110.316 60.16,111.46 L60.16,111.46 Z M61.15,104.332 C61.832,103.452 62.756,103.012 63.922,103.012 C65.088,103.012 66.012,103.452 66.672,104.332 C67.354,105.212 67.684,106.246 67.684,107.456 C67.684,108.666 67.354,109.7 66.672,110.58 C66.012,111.46 65.088,111.9 63.922,111.9 C62.756,111.9 61.832,111.46 61.15,110.58 C60.49,109.7 60.16,108.666 60.16,107.456 C60.16,106.246 60.49,105.212 61.15,104.332 L61.15,104.332 Z M71.974,109.524 C71.974,111.834 73.272,113.176 75.384,113.176 C76.968,113.176 78.42,112.186 79.19,110.69 L79.19,113 L80.554,113 L80.554,101.912 L79.19,101.912 L79.19,106.774 C79.19,108.314 78.838,109.546 78.156,110.492 C77.474,111.438 76.638,111.9 75.604,111.9 C74.086,111.9 73.338,111.042 73.338,109.348 L73.338,101.912 L71.974,101.912 L71.974,109.524 Z M90.212,102.11 C89.596,101.868 89.046,101.736 88.54,101.736 C87.066,101.736 85.966,102.462 85.284,103.892 L85.284,101.912 L83.92,101.912 L83.92,113 L85.284,113 L85.284,108.71 C85.284,105.08 86.56,103.012 88.342,103.012 C88.892,103.012 89.42,103.144 89.904,103.408 L90.212,102.11 Z M101.19,101.736 C99.408,101.736 98.088,102.946 98.088,104.706 C98.088,106.774 99.98,107.39 101.476,107.984 C102.51,108.358 103.324,109.018 103.324,109.92 C103.324,111.152 102.62,111.9 101.322,111.9 C99.826,111.9 99.078,111.02 98.528,109.502 L97.318,110.14 C97.824,111.812 99.144,113.176 101.322,113.176 C103.434,113.176 104.754,111.834 104.754,109.7 C104.754,107.83 102.84,107.104 101.344,106.51 C100.31,106.092 99.496,105.498 99.496,104.684 C99.496,103.694 100.156,103.012 101.124,103.012 C101.938,103.012 102.664,103.43 103.302,104.288 L104.27,103.452 C103.456,102.308 102.444,101.736 101.19,101.736 L101.19,101.736 Z M115.05,109.634 C114.434,111.152 113.356,111.9 111.816,111.9 C110.694,111.9 109.814,111.482 109.22,110.646 C108.626,109.788 108.34,108.732 108.34,107.456 C108.34,106.18 108.626,105.124 109.22,104.288 C109.814,103.43 110.694,103.012 111.816,103.012 C113.356,103.012 114.434,103.76 115.05,105.278 L116.282,104.794 C115.512,102.748 114.016,101.736 111.816,101.736 C110.276,101.736 109.066,102.308 108.208,103.43 C107.35,104.552 106.91,105.894 106.91,107.456 C106.91,109.018 107.35,110.382 108.208,111.504 C109.066,112.626 110.276,113.176 111.816,113.176 C114.016,113.176 115.512,112.164 116.282,110.118 L115.05,109.634 Z M125.456,102.11 C124.84,101.868 124.29,101.736 123.784,101.736 C122.31,101.736 121.21,102.462 120.528,103.892 L120.528,101.912 L119.164,101.912 L119.164,113 L120.528,113 L120.528,108.71 C120.528,105.08 121.804,103.012 123.586,103.012 C124.136,103.012 124.664,103.144 125.148,103.408 L125.456,102.11 Z M136.61,106.84 C136.61,105.322 136.148,104.09 135.246,103.144 C134.344,102.198 133.178,101.736 131.748,101.736 C130.274,101.736 129.086,102.286 128.184,103.364 C127.282,104.442 126.82,105.806 126.82,107.456 C126.82,109.106 127.282,110.492 128.184,111.57 C129.086,112.648 130.274,113.176 131.748,113.176 C133.86,113.176 135.246,112.318 136.368,110.118 L135.158,109.524 C134.344,111.218 133.42,111.9 131.748,111.9 C129.57,111.9 128.25,110.096 128.25,107.456 L136.61,107.456 L136.61,106.84 Z M131.748,103.012 C133.706,103.012 134.938,104.222 135.202,106.18 L128.338,106.18 C128.712,104.31 129.966,103.012 131.748,103.012 L131.748,103.012 Z M148.886,106.84 C148.886,105.322 148.424,104.09 147.522,103.144 C146.62,102.198 145.454,101.736 144.024,101.736 C142.55,101.736 141.362,102.286 140.46,103.364 C139.558,104.442 139.096,105.806 139.096,107.456 C139.096,109.106 139.558,110.492 140.46,111.57 C141.362,112.648 142.55,113.176 144.024,113.176 C146.136,113.176 147.522,112.318 148.644,110.118 L147.434,109.524 C146.62,111.218 145.696,111.9 144.024,111.9 C141.846,111.9 140.526,110.096 140.526,107.456 L148.886,107.456 L148.886,106.84 Z M144.024,103.012 C145.982,103.012 147.214,104.222 147.478,106.18 L140.614,106.18 C140.988,104.31 142.242,103.012 144.024,103.012 L144.024,103.012 Z M160.48,105.388 C160.48,103.078 159.182,101.736 157.07,101.736 C155.486,101.736 154.034,102.726 153.264,104.222 L153.264,101.912 L151.9,101.912 L151.9,113 L153.264,113 L153.264,108.138 C153.264,106.598 153.594,105.366 154.276,104.42 C154.958,103.474 155.816,103.012 156.85,103.012 C158.368,103.012 159.116,103.87 159.116,105.564 L159.116,113 L160.48,113 L160.48,105.388 Z M166.772,101.736 C164.99,101.736 163.67,102.946 163.67,104.706 C163.67,106.774 165.562,107.39 167.058,107.984 C168.092,108.358 168.906,109.018 168.906,109.92 C168.906,111.152 168.202,111.9 166.904,111.9 C165.408,111.9 164.66,111.02 164.11,109.502 L162.9,110.14 C163.406,111.812 164.726,113.176 166.904,113.176 C169.016,113.176 170.336,111.834 170.336,109.7 C170.336,107.83 168.422,107.104 166.926,106.51 C165.892,106.092 165.078,105.498 165.078,104.684 C165.078,103.694 165.738,103.012 166.706,103.012 C167.52,103.012 168.246,103.43 168.884,104.288 L169.852,103.452 C169.038,102.308 168.026,101.736 166.772,101.736 L166.772,101.736 Z M181.886,105.388 C181.886,103.078 180.61,101.736 178.432,101.736 C176.826,101.736 175.198,102.638 174.472,104.332 L174.472,97.424 L173.108,97.424 L173.108,113 L174.472,113 L174.472,108.27 C174.472,106.708 174.824,105.432 175.55,104.464 C176.276,103.496 177.178,103.012 178.212,103.012 C179.708,103.012 180.522,103.958 180.522,105.564 L180.522,113 L181.886,113 L181.886,105.388 Z M186.374,111.46 C187.32,112.604 188.574,113.176 190.136,113.176 C191.698,113.176 192.952,112.604 193.898,111.46 C194.844,110.316 195.328,108.974 195.328,107.456 C195.328,105.938 194.844,104.596 193.898,103.452 C192.952,102.308 191.698,101.736 190.136,101.736 C188.574,101.736 187.32,102.308 186.374,103.452 C185.428,104.596 184.944,105.938 184.944,107.456 C184.944,108.974 185.428,110.316 186.374,111.46 L186.374,111.46 Z M187.364,104.332 C188.046,103.452 188.97,103.012 190.136,103.012 C191.302,103.012 192.226,103.452 192.886,104.332 C193.568,105.212 193.898,106.246 193.898,107.456 C193.898,108.666 193.568,109.7 192.886,110.58 C192.226,111.46 191.302,111.9 190.136,111.9 C188.97,111.9 188.046,111.46 187.364,110.58 C186.704,109.7 186.374,108.666 186.374,107.456 C186.374,106.246 186.704,105.212 187.364,104.332 L187.364,104.332 Z M198.98,103.188 L198.98,109.854 C198.98,112.076 200.058,113.176 201.752,113.176 C202.566,113.176 203.204,113.044 203.688,112.78 L203.314,111.548 C202.94,111.79 202.478,111.9 201.928,111.9 C200.894,111.9 200.388,111.284 200.388,110.074 L200.388,103.188 L203.336,103.188 L203.336,101.912 L200.388,101.912 L200.388,97.424 L198.98,98.326 L198.98,101.912 L197.022,101.912 L197.022,103.188 L198.98,103.188 Z M209.43,101.736 C207.648,101.736 206.328,102.946 206.328,104.706 C206.328,106.774 208.22,107.39 209.716,107.984 C210.75,108.358 211.564,109.018 211.564,109.92 C211.564,111.152 210.86,111.9 209.562,111.9 C208.066,111.9 207.318,111.02 206.768,109.502 L205.558,110.14 C206.064,111.812 207.384,113.176 209.562,113.176 C211.674,113.176 212.994,111.834 212.994,109.7 C212.994,107.83 211.08,107.104 209.584,106.51 C208.55,106.092 207.736,105.498 207.736,104.684 C207.736,103.694 208.396,103.012 209.364,103.012 C210.178,103.012 210.904,103.43 211.542,104.288 L212.51,103.452 C211.696,102.308 210.684,101.736 209.43,101.736 L209.43,101.736 Z M8.372,136.734002 C7.756,138.252002 6.678,139.000002 5.138,139.000002 C4.016,139.000002 3.136,138.582002 2.542,137.746002 C1.948,136.888002 1.662,135.832002 1.662,134.556002 C1.662,133.280002 1.948,132.224002 2.542,131.388002 C3.136,130.530002 4.016,130.112002 5.138,130.112002 C6.678,130.112002 7.756,130.860002 8.372,132.378002 L9.604,131.894002 C8.834,129.848002 7.338,128.836002 5.138,128.836002 C3.598,128.836002 2.388,129.408002 1.53,130.530002 C0.672,131.652002 0.232,132.994002 0.232,134.556002 C0.232,136.118002 0.672,137.482002 1.53,138.604002 C2.388,139.726002 3.598,140.276002 5.138,140.276002 C7.338,140.276002 8.834,139.264002 9.604,137.218002 L8.372,136.734002 Z M13.19,138.560002 C14.136,139.704002 15.39,140.276002 16.952,140.276002 C18.514,140.276002 19.768,139.704002 20.714,138.560002 C21.66,137.416002 22.144,136.074002 22.144,134.556002 C22.144,133.038002 21.66,131.696002 20.714,130.552002 C19.768,129.408002 18.514,128.836002 16.952,128.836002 C15.39,128.836002 14.136,129.408002 13.19,130.552002 C12.244,131.696002 11.76,133.038002 11.76,134.556002 C11.76,136.074002 12.244,137.416002 13.19,138.560002 L13.19,138.560002 Z M14.18,131.432002 C14.862,130.552002 15.786,130.112002 16.952,130.112002 C18.118,130.112002 19.042,130.552002 19.702,131.432002 C20.384,132.312002 20.714,133.346002 20.714,134.556002 C20.714,135.766002 20.384,136.800002 19.702,137.680002 C19.042,138.560002 18.118,139.000002 16.952,139.000002 C15.786,139.000002 14.862,138.560002 14.18,137.680002 C13.52,136.800002 13.19,135.766002 13.19,134.556002 C13.19,133.346002 13.52,132.312002 14.18,131.432002 L14.18,131.432002 Z M33.892,132.488002 C33.892,130.178002 32.594,128.836002 30.482,128.836002 C28.898,128.836002 27.446,129.826002 26.676,131.322002 L26.676,129.012002 L25.312,129.012002 L25.312,140.100002 L26.676,140.100002 L26.676,135.238002 C26.676,133.698002 27.006,132.466002 27.688,131.520002 C28.37,130.574002 29.228,130.112002 30.262,130.112002 C31.78,130.112002 32.528,130.970002 32.528,132.664002 L32.528,140.100002 L33.892,140.100002 L33.892,132.488002 Z M37.896,130.288002 L37.896,136.954002 C37.896,139.176002 38.974,140.276002 40.668,140.276002 C41.482,140.276002 42.12,140.144002 42.604,139.880002 L42.23,138.648002 C41.856,138.890002 41.394,139.000002 40.844,139.000002 C39.81,139.000002 39.304,138.384002 39.304,137.174002 L39.304,130.288002 L42.252,130.288002 L42.252,129.012002 L39.304,129.012002 L39.304,124.524002 L37.896,125.426002 L37.896,129.012002 L35.938,129.012002 L35.938,130.288002 L37.896,130.288002 Z M54.154,133.940002 C54.154,132.422002 53.692,131.190002 52.79,130.244002 C51.888,129.298002 50.722,128.836002 49.292,128.836002 C47.818,128.836002 46.63,129.386002 45.728,130.464002 C44.826,131.542002 44.364,132.906002 44.364,134.556002 C44.364,136.206002 44.826,137.592002 45.728,138.670002 C46.63,139.748002 47.818,140.276002 49.292,140.276002 C51.404,140.276002 52.79,139.418002 53.912,137.218002 L52.702,136.624002 C51.888,138.318002 50.964,139.000002 49.292,139.000002 C47.114,139.000002 45.794,137.196002 45.794,134.556002 L54.154,134.556002 L54.154,133.940002 Z M49.292,130.112002 C51.25,130.112002 52.482,131.322002 52.746,133.280002 L45.882,133.280002 C46.256,131.410002 47.51,130.112002 49.292,130.112002 L49.292,130.112002 Z M59.126,134.050002 L55.386,140.100002 L56.816,140.100002 L59.874,135.260002 L62.932,140.100002 L64.362,140.100002 L60.622,134.050002 L63.746,129.012002 L62.228,129.012002 L59.874,132.840002 L57.52,129.012002 L56.002,129.012002 L59.126,134.050002 Z M67.332,130.288002 L67.332,136.954002 C67.332,139.176002 68.41,140.276002 70.104,140.276002 C70.918,140.276002 71.556,140.144002 72.04,139.880002 L71.666,138.648002 C71.292,138.890002 70.83,139.000002 70.28,139.000002 C69.246,139.000002 68.74,138.384002 68.74,137.174002 L68.74,130.288002 L71.688,130.288002 L71.688,129.012002 L68.74,129.012002 L68.74,124.524002 L67.332,125.426002 L67.332,129.012002 L65.374,129.012002 L65.374,130.288002 L67.332,130.288002 Z" id="Give-your-screenshot" sketch:type="MSShapeGroup"></path>
                            </g>
                        </g>
                    </g>
                </g>
            </g>
        </g>
    </g>
</svg>