<?xml version="1.0" encoding="UTF-8" standalone="no"?>
<svg width="188px" height="75px" viewBox="0 0 188 75" version="1.1" xmlns="http://www.w3.org/2000/svg" xmlns:xlink="http://www.w3.org/1999/xlink" xmlns:sketch="http://www.bohemiancoding.com/sketch/ns">
    <!-- Generator: Sketch 3.4.2 (15855) - http://www.bohemiancoding.com/sketch -->
    <title>Logo</title>
    <desc>Created with Sketch.</desc>
    <defs></defs>
    <g id="Home" stroke="none" stroke-width="1" fill="none" fill-rule="evenodd" sketch:type="MSPage">
        <g id="Desktop-HD" sketch:type="MSArtboardGroup" transform="translate(-2217.000000, -1354.000000)" fill="#FFFFFF">
            <g id="Page" sketch:type="MSLayerGroup" transform="translate(0.000000, 189.000000)">
                <g id="Content" transform="translate(0.000000, 143.000000)" sketch:type="MSShapeGroup">
                    <g id="Featured-projects" transform="translate(0.000000, 890.000000)">
                        <g id="Product-4" transform="translate(2160.000000, 0.000000)">
                            <g id="Logo" transform="translate(57.000000, 132.400000)">
                                <path d="M26.9775391,26.9726563 C26.9775391,29.1347764 26.7578147,31.1079012 26.3183594,32.8920898 C25.8789041,34.6762785 25.202153,36.20556 24.2880859,37.4799805 C23.3740189,38.7544009 22.2226632,39.747555 20.8339844,40.4594727 C19.4453056,41.1713903 17.8017673,41.5273438 15.9033203,41.5273438 C14.3388594,41.5273438 12.9897518,41.2241241 11.855957,40.6176758 C10.7221623,40.0112274 9.73340266,39.1630914 8.88964844,38.0732422 L8.52050781,41 L0.557617188,41 L0.557617188,0.5 L9.44335937,0.5 L9.44335937,14.7646484 C10.234379,13.8681596 11.1572213,13.1738306 12.2119141,12.6816406 C13.2666068,12.1894507 14.4794853,11.9433594 15.8505859,11.9433594 C17.7666111,11.9433594 19.4233329,12.3037073 20.8208008,13.0244141 C22.2182687,13.7451208 23.3740189,14.7514584 24.2880859,16.043457 C25.202153,17.3354557 25.8789041,18.8647373 26.3183594,20.6313477 C26.7578147,22.3979581 26.9775391,24.327138 26.9775391,26.4189453 L26.9775391,26.9726563 Z M18.0654297,26.4189453 C18.0654297,25.3818308 18.0083014,24.4018601 17.894043,23.4790039 C17.7797846,22.5561477 17.5600602,21.7475621 17.2348633,21.0532227 C16.9096663,20.3588832 16.4570342,19.8095723 15.8769531,19.4052734 C15.2968721,19.0009745 14.5410203,18.7988281 13.609375,18.7988281 C12.5546822,18.7988281 11.6889682,18.9965801 11.012207,19.3920898 C10.3354458,19.7875996 9.81250185,20.3544885 9.44335938,21.0927734 L9.44335938,32.4306641 C9.81250185,33.168949 10.3354458,33.7314434 11.012207,34.1181641 C11.6889682,34.5048847 12.5722602,34.6982422 13.6621094,34.6982422 C14.6289111,34.6982422 15.4023408,34.5092792 15.9824219,34.1313477 C16.5625029,33.7534161 17.0063461,33.2260776 17.3139648,32.5493164 C17.6215836,31.8725552 17.82373,31.0595751 17.9204102,30.1103516 C18.0170903,29.1611281 18.0654297,28.1152401 18.0654297,26.9726562 L18.0654297,26.4189453 Z M40.2666016,41 L31.3544922,41 L31.3544922,0.5 L40.2666016,0.5 L40.2666016,41 Z M62.7314453,37.9150391 C61.8349565,39.0576229 60.7539126,39.9453093 59.4882812,40.578125 C58.2226499,41.2109407 56.7636801,41.5273438 55.1113281,41.5273438 C53.7050711,41.5273438 52.4174863,41.3295918 51.2485352,40.934082 C50.079584,40.5385722 49.0776409,39.914555 48.2426758,39.0620117 C47.4077107,38.2094684 46.7573265,37.1108466 46.2915039,35.7661133 C45.8256813,34.42138 45.5927734,32.8086032 45.5927734,30.9277344 L45.5927734,12.4707031 L54.4785156,12.4707031 L54.4785156,30.9804688 C54.4785156,32.2461001 54.7817352,33.1777314 55.3881836,33.7753906 C55.9946319,34.3730499 56.8779239,34.671875 58.0380859,34.671875 C59.1455133,34.671875 60.0463832,34.4785176 60.7407227,34.0917969 C61.4350621,33.7050762 61.984373,33.1689487 62.3886719,32.4833984 L62.3886719,12.4707031 L71.3271484,12.4707031 L71.3271484,41 L62.9951172,41 L62.7314453,37.9150391 Z M102.677734,26.9462891 C102.677734,29.0205182 102.440432,30.9453036 101.96582,32.7207031 C101.491209,34.4961026 100.783696,36.0385677 99.8432617,37.3481445 C98.9028273,38.6577214 97.7426827,39.6816369 96.362793,40.4199219 C94.9829033,41.1582068 93.3964933,41.5273438 91.6035156,41.5273438 C90.1972586,41.5273438 88.9668021,41.2724635 87.9121094,40.7626953 C86.8574166,40.2529271 85.9345743,39.5498092 85.1435547,38.6533203 L85.1435547,51.96875 L76.2578125,51.96875 L76.2578125,12.4707031 L84.5634766,12.4707031 L84.8271484,15.1074219 C85.6357462,14.1054637 86.5849555,13.3276395 87.6748047,12.7739258 C88.7646539,12.2202121 90.0566332,11.9433594 91.5507812,11.9433594 C93.3613372,11.9433594 94.9609306,12.2905239 96.3496094,12.9848633 C97.7382882,13.6792027 98.8984328,14.6591734 99.8300781,15.9248047 C100.761723,17.190436 101.469236,18.7109286 101.952637,20.4863281 C102.436038,22.2617276 102.677734,24.2304579 102.677734,26.3925781 L102.677734,26.9462891 Z M93.7919922,26.3925781 C93.7919922,25.2851507 93.7128914,24.2656297 93.5546875,23.3339844 C93.3964836,22.4023391 93.1459978,21.6025424 92.8032227,20.9345703 C92.4604475,20.2665982 92.0034208,19.7436542 91.4321289,19.3657227 C90.860837,18.9877911 90.1709025,18.7988281 89.3623047,18.7988281 C88.2724555,18.7988281 87.3847691,18.9877911 86.6992188,19.3657227 C86.0136684,19.7436542 85.4951189,20.3105431 85.1435547,21.0664062 L85.1435547,32.2988281 C85.5126972,33.0546913 86.0400356,33.6391581 86.7255859,34.0522461 C87.4111362,34.4653341 88.3076117,34.671875 89.4150391,34.671875 C90.2587933,34.671875 90.9575168,34.4697286 91.5112305,34.0654297 C92.0649442,33.6611308 92.5131819,33.1118199 92.855957,32.4174805 C93.1987322,31.7231411 93.440429,30.9057664 93.5810547,29.965332 C93.7216804,29.0248976 93.7919922,28.01856 93.7919922,26.9462891 L93.7919922,26.3925781 Z M123.850586,20.5126953 C123.674804,20.4951171 123.459474,20.4731447 123.20459,20.4467773 C122.949706,20.42041 122.686037,20.3984376 122.413574,20.3808594 C122.141112,20.3632812 121.873048,20.3457032 121.609375,20.328125 C121.345702,20.3105468 121.117188,20.3017578 120.923828,20.3017578 C119.499993,20.3017578 118.348637,20.5170877 117.469727,20.9477539 C116.590816,21.3784201 115.949221,22.0419877 115.544922,22.9384766 L115.544922,41 L106.65918,41 L106.65918,12.4707031 L114.991211,12.4707031 L115.28125,16.1357422 C115.984379,14.8173762 116.858881,13.7890662 117.904785,13.0507812 C118.950689,12.3124963 120.159173,11.9433594 121.530273,11.9433594 C121.969729,11.9433594 122.404783,11.9697263 122.835449,12.0224609 C123.266115,12.0751956 123.657225,12.1542963 124.008789,12.2597656 L123.850586,20.5126953 Z M136.427734,41 L127.515625,41 L127.515625,12.4707031 L136.427734,12.4707031 L136.427734,41 Z M126.988281,5.11425781 C126.988281,4.48144215 127.106932,3.90136982 127.344238,3.37402344 C127.581544,2.84667705 127.91992,2.38965037 128.359375,2.00292969 C128.79883,1.616209 129.31738,1.31738387 129.915039,1.10644531 C130.512698,0.895506758 131.18066,0.790039062 131.918945,0.790039062 C132.65723,0.790039062 133.325192,0.895506758 133.922852,1.10644531 C134.520511,1.31738387 135.03906,1.616209 135.478516,2.00292969 C135.917971,2.38965037 136.256346,2.84667705 136.493652,3.37402344 C136.730958,3.90136982 136.849609,4.48144215 136.849609,5.11425781 C136.849609,5.74707348 136.730958,6.3271458 136.493652,6.85449219 C136.256346,7.38183857 135.917971,7.83886525 135.478516,8.22558594 C135.03906,8.61230662 134.520511,8.91113176 133.922852,9.12207031 C133.325192,9.33300887 132.65723,9.43847656 131.918945,9.43847656 C131.18066,9.43847656 130.512698,9.33300887 129.915039,9.12207031 C129.31738,8.91113176 128.79883,8.61230662 128.359375,8.22558594 C127.91992,7.83886525 127.581544,7.38183857 127.344238,6.85449219 C127.106932,6.3271458 126.988281,5.74707348 126.988281,5.11425781 L126.988281,5.11425781 Z M150.05957,12.4707031 L150.349609,15.8193359 C151.316411,14.5537046 152.489739,13.5913119 153.869629,12.9321289 C155.249519,12.2729459 156.791984,11.9433594 158.49707,11.9433594 C159.815436,11.9433594 161.02392,12.1323223 162.122559,12.5102539 C163.221197,12.8881855 164.166012,13.5122027 164.957031,14.3823242 C165.748051,15.2524458 166.358885,16.3950125 166.789551,17.8100586 C167.220217,19.2251047 167.435547,20.9697162 167.435547,23.0439453 L167.435547,41 L158.523438,41 L158.523438,23.0175781 C158.523438,22.1562457 158.431153,21.4531277 158.246582,20.9082031 C158.062011,20.3632785 157.798342,19.9326188 157.455566,19.6162109 C157.112791,19.2998031 156.69092,19.0844732 156.189941,18.9702148 C155.688962,18.8559565 155.122073,18.7988281 154.489258,18.7988281 C153.540034,18.7988281 152.753421,18.9833966 152.129395,19.3525391 C151.505368,19.7216815 151.000002,20.2226531 150.613281,20.8554688 L150.613281,41 L141.727539,41 L141.727539,12.4707031 L150.05957,12.4707031 Z M182.702148,5.37792969 L182.702148,12.4707031 L187.395508,12.4707031 L187.395508,18.640625 L182.702148,18.640625 L182.702148,31.6923828 C182.702148,32.2548856 182.750488,32.7207013 182.847168,33.0898438 C182.943848,33.4589862 183.10205,33.7534169 183.321777,33.9731445 C183.541505,34.1928722 183.835936,34.3466792 184.205078,34.4345703 C184.574221,34.5224614 185.031247,34.5664062 185.576172,34.5664062 C186.08594,34.5664062 186.507811,34.5532228 186.841797,34.5268555 C187.175783,34.5004881 187.492186,34.4609378 187.791016,34.4082031 L187.791016,40.7626953 C187.017574,41.0087903 186.226567,41.1977532 185.417969,41.3295898 C184.609371,41.4614264 183.730473,41.5273438 182.78125,41.5273438 C181.357415,41.5273438 180.087408,41.3647477 178.971191,41.0395508 C177.854975,40.7143538 176.914555,40.2001988 176.149902,39.4970703 C175.38525,38.7939418 174.805178,37.8886774 174.409668,36.78125 C174.014158,35.6738226 173.816406,34.3466874 173.816406,32.7998047 L173.816406,18.640625 L170.177734,18.640625 L170.177734,12.4707031 L173.816406,12.4707031 L173.816406,5.37792969 L182.702148,5.37792969 Z" id="bluprint"></path>
                                <path d="M1.24,73.6 L2.872,73.6 L4.552,68.824 L11.464,68.824 L13.144,73.6 L14.776,73.6 L8.704,56.8 L7.312,56.8 L1.24,73.6 Z M10.96,67.336 L5.056,67.336 L8.008,58.96 L10.96,67.336 Z M34.672,68.536 C34.024,70.936 32.392,72.304 29.896,72.304 C28.168,72.304 26.776,71.68 25.72,70.432 C24.664,69.184 24.136,67.432 24.136,65.2 C24.136,62.968 24.664,61.216 25.72,59.968 C26.776,58.72 28.168,58.096 29.896,58.096 C32.392,58.096 34.024,59.464 34.672,61.864 L36.232,61.408 C35.368,58.432 33.064,56.608 29.896,56.608 C27.976,56.608 26.2,57.352 24.784,58.72 C23.368,60.064 22.48,62.392 22.48,65.2 C22.48,67.96 23.2,70.072 24.64,71.56 C26.104,73.048 27.856,73.792 29.896,73.792 C33.064,73.792 35.368,71.968 36.232,68.992 L34.672,68.536 Z M39.592,73.6 L49.048,73.6 L49.048,72.112 L41.176,72.112 L41.176,56.8 L39.592,56.8 L39.592,73.6 Z M51.784,56.8 L51.784,73.6 L53.368,73.6 L53.368,56.8 L51.784,56.8 Z M64.624,62.896 L64.624,70.168 C64.624,72.592 65.8,73.792 67.648,73.792 C68.536,73.792 69.232,73.648 69.76,73.36 L69.352,72.016 C68.944,72.28 68.44,72.4 67.84,72.4 C66.712,72.4 66.16,71.728 66.16,70.408 L66.16,62.896 L69.376,62.896 L69.376,61.504 L66.16,61.504 L66.16,56.608 L64.624,57.592 L64.624,61.504 L62.488,61.504 L62.488,62.896 L64.624,62.896 Z M73.24,71.92 C74.272,73.168 75.64,73.792 77.344,73.792 C79.048,73.792 80.416,73.168 81.448,71.92 C82.48,70.672 83.008,69.208 83.008,67.552 C83.008,65.896 82.48,64.432 81.448,63.184 C80.416,61.936 79.048,61.312 77.344,61.312 C75.64,61.312 74.272,61.936 73.24,63.184 C72.208,64.432 71.68,65.896 71.68,67.552 C71.68,69.208 72.208,70.672 73.24,71.92 L73.24,71.92 Z M74.32,64.144 C75.064,63.184 76.072,62.704 77.344,62.704 C78.616,62.704 79.624,63.184 80.344,64.144 C81.088,65.104 81.448,66.232 81.448,67.552 C81.448,68.872 81.088,70 80.344,70.96 C79.624,71.92 78.616,72.4 77.344,72.4 C76.072,72.4 75.064,71.92 74.32,70.96 C73.6,70 73.24,68.872 73.24,67.552 C73.24,66.232 73.6,65.104 74.32,64.144 L74.32,64.144 Z M87.496,71.92 C88.528,73.168 89.896,73.792 91.6,73.792 C93.304,73.792 94.672,73.168 95.704,71.92 C96.736,70.672 97.264,69.208 97.264,67.552 C97.264,65.896 96.736,64.432 95.704,63.184 C94.672,61.936 93.304,61.312 91.6,61.312 C89.896,61.312 88.528,61.936 87.496,63.184 C86.464,64.432 85.936,65.896 85.936,67.552 C85.936,69.208 86.464,70.672 87.496,71.92 L87.496,71.92 Z M88.576,64.144 C89.32,63.184 90.328,62.704 91.6,62.704 C92.872,62.704 93.88,63.184 94.6,64.144 C95.344,65.104 95.704,66.232 95.704,67.552 C95.704,68.872 95.344,70 94.6,70.96 C93.88,71.92 92.872,72.4 91.6,72.4 C90.328,72.4 89.32,71.92 88.576,70.96 C87.856,70 87.496,68.872 87.496,67.552 C87.496,66.232 87.856,65.104 88.576,64.144 L88.576,64.144 Z M100.312,73.6 L101.8,73.6 L101.8,56.608 L100.312,56.608 L100.312,73.6 Z" id="A-CLI-tool"></path>
                            </g>
                        </g>
                    </g>
                </g>
            </g>
        </g>
    </g>
</svg>