<?xml version="1.0" encoding="UTF-8" standalone="no"?>
<svg width="221px" height="113px" viewBox="0 0 221 113" version="1.1" xmlns="http://www.w3.org/2000/svg" xmlns:xlink="http://www.w3.org/1999/xlink" xmlns:sketch="http://www.bohemiancoding.com/sketch/ns">
    <!-- Generator: Sketch 3.4.2 (15855) - http://www.bohemiancoding.com/sketch -->
    <title>Logo</title>
    <desc>Created with Sketch.</desc>
    <defs></defs>
    <g id="Home" stroke="none" stroke-width="1" fill="none" fill-rule="evenodd" sketch:type="MSPage">
        <g id="Desktop-HD" sketch:type="MSArtboardGroup" transform="translate(-1898.000000, -1347.000000)" fill="#FFFFFF">
            <g id="Page" sketch:type="MSLayerGroup" transform="translate(0.000000, 189.000000)">
                <g id="Content" transform="translate(0.000000, 143.000000)" sketch:type="MSShapeGroup">
                    <g id="Featured-projects" transform="translate(0.000000, 890.000000)">
                        <g id="Product-3" transform="translate(1440.000000, 0.000000)">
                            <g id="Logo" transform="translate(458.000000, 125.000000)">
                                <path d="M40.453,81 L42.389,81 L43.753,76.886 L49.649,76.886 L51.013,81 L52.949,81 L47.625,65.6 L45.777,65.6 L40.453,81 Z M49.033,75.038 L44.369,75.038 L46.701,68.108 L49.033,75.038 Z M67.755,70.066 C67.337,69.846 66.831,69.736 66.237,69.736 C65.005,69.736 63.619,70.572 62.981,71.804 L62.981,69.912 L61.133,69.912 L61.133,81 L62.981,81 L62.981,76.798 C62.981,75.104 63.289,73.784 63.905,72.838 C64.521,71.892 65.247,71.408 66.083,71.408 C66.545,71.408 66.963,71.518 67.381,71.716 L67.755,70.066 Z M78.975,74.994 C78.975,73.52 78.535,72.288 77.633,71.276 C76.753,70.242 75.521,69.736 73.959,69.736 C72.353,69.736 71.121,70.286 70.241,71.408 C69.383,72.508 68.943,73.85 68.943,75.456 C68.943,77.062 69.383,78.404 70.241,79.526 C71.121,80.626 72.353,81.176 73.959,81.176 C76.247,81.176 77.633,80.274 78.667,78.096 L77.039,77.392 C76.401,78.822 75.521,79.504 73.959,79.504 C72.045,79.504 70.945,78.03 70.835,75.852 L78.975,75.852 L78.975,74.994 Z M73.959,71.408 C75.653,71.408 76.687,72.508 77.039,74.18 L70.945,74.18 C71.297,72.486 72.309,71.408 73.959,71.408 L73.959,71.408 Z M83.331,77.81 C83.331,76.556 84.409,75.852 86.279,75.852 L88.259,75.852 L88.259,76.116 C88.259,77.282 87.951,78.14 87.335,78.69 C86.719,79.24 85.993,79.504 85.157,79.504 C83.991,79.504 83.331,78.866 83.331,77.81 L83.331,77.81 Z M90.107,73.916 C90.107,71.1 88.413,69.736 85.839,69.736 C83.749,69.736 82.187,70.902 81.901,72.772 L83.529,73.146 C83.771,72.068 84.673,71.408 85.839,71.408 C87.445,71.408 88.259,72.178 88.259,73.696 L88.259,74.18 L86.455,74.18 C83.353,74.18 81.439,75.456 81.439,77.81 C81.439,80.076 82.869,81.176 84.871,81.176 C86.389,81.176 87.533,80.604 88.347,79.438 L88.655,81 L90.107,81 L90.107,73.916 Z M101.041,77.458 C100.447,78.822 99.435,79.504 98.005,79.504 C95.959,79.504 94.859,77.832 94.859,75.456 C94.859,73.08 95.959,71.408 98.005,71.408 C99.435,71.408 100.447,72.09 101.041,73.454 L102.647,72.794 C101.745,70.748 100.205,69.736 98.005,69.736 C96.399,69.736 95.145,70.286 94.265,71.408 C93.407,72.508 92.967,73.85 92.967,75.456 C92.967,77.062 93.407,78.404 94.265,79.526 C95.145,80.626 96.399,81.176 98.005,81.176 C100.205,81.176 101.745,80.164 102.647,78.118 L101.041,77.458 Z M106.409,71.584 L106.409,77.524 C106.409,79.922 107.663,81.176 109.621,81.176 C110.347,81.176 110.941,81.044 111.425,80.758 L110.985,79.152 C110.633,79.394 110.215,79.504 109.731,79.504 C108.785,79.504 108.257,78.844 108.257,77.678 L108.257,71.584 L111.161,71.584 L111.161,69.912 L108.257,69.912 L108.257,65.424 L106.409,66.59 L106.409,69.912 L104.495,69.912 L104.495,71.584 L106.409,71.584 Z M128.959,73.19 C128.959,70.99 127.727,69.736 125.703,69.736 C124.097,69.736 122.865,70.484 122.029,71.958 L122.029,69.912 L120.181,69.912 L120.181,81 L122.029,81 L122.029,76.358 C122.029,74.884 122.337,73.674 122.953,72.772 C123.591,71.87 124.339,71.408 125.197,71.408 C126.473,71.408 127.111,72.156 127.111,73.674 L127.111,81 L128.959,81 L128.959,73.19 Z M133.733,77.81 C133.733,76.556 134.811,75.852 136.681,75.852 L138.661,75.852 L138.661,76.116 C138.661,77.282 138.353,78.14 137.737,78.69 C137.121,79.24 136.395,79.504 135.559,79.504 C134.393,79.504 133.733,78.866 133.733,77.81 L133.733,77.81 Z M140.509,73.916 C140.509,71.1 138.815,69.736 136.241,69.736 C134.151,69.736 132.589,70.902 132.303,72.772 L133.931,73.146 C134.173,72.068 135.075,71.408 136.241,71.408 C137.847,71.408 138.661,72.178 138.661,73.696 L138.661,74.18 L136.857,74.18 C133.755,74.18 131.841,75.456 131.841,77.81 C131.841,80.076 133.271,81.176 135.273,81.176 C136.791,81.176 137.935,80.604 138.749,79.438 L139.057,81 L140.509,81 L140.509,73.916 Z M144.645,71.584 L144.645,77.524 C144.645,79.922 145.899,81.176 147.857,81.176 C148.583,81.176 149.177,81.044 149.661,80.758 L149.221,79.152 C148.869,79.394 148.451,79.504 147.967,79.504 C147.021,79.504 146.493,78.844 146.493,77.678 L146.493,71.584 L149.397,71.584 L149.397,69.912 L146.493,69.912 L146.493,65.424 L144.645,66.59 L144.645,69.912 L142.731,69.912 L142.731,71.584 L144.645,71.584 Z M152.499,81 L154.347,81 L154.347,69.912 L152.499,69.912 L152.499,81 Z M152.037,66.832 C152.037,67.602 152.631,68.196 153.423,68.196 C154.215,68.196 154.809,67.602 154.809,66.832 C154.809,66.04 154.215,65.424 153.423,65.424 C152.631,65.424 152.037,66.04 152.037,66.832 L152.037,66.832 Z M161.629,78.646 L158.923,69.912 L157.031,69.912 L160.683,81 L162.575,81 L166.227,69.912 L164.335,69.912 L161.629,78.646 Z M177.711,74.994 C177.711,73.52 177.271,72.288 176.369,71.276 C175.489,70.242 174.257,69.736 172.695,69.736 C171.089,69.736 169.857,70.286 168.977,71.408 C168.119,72.508 167.679,73.85 167.679,75.456 C167.679,77.062 168.119,78.404 168.977,79.526 C169.857,80.626 171.089,81.176 172.695,81.176 C174.983,81.176 176.369,80.274 177.403,78.096 L175.775,77.392 C175.137,78.822 174.257,79.504 172.695,79.504 C170.781,79.504 169.681,78.03 169.571,75.852 L177.711,75.852 L177.711,74.994 Z M172.695,71.408 C174.389,71.408 175.423,72.508 175.775,74.18 L169.681,74.18 C170.033,72.486 171.045,71.408 172.695,71.408 L172.695,71.408 Z M66.138,104.558002 C65.544,105.922002 64.532,106.604002 63.102,106.604002 C61.056,106.604002 59.956,104.932002 59.956,102.556002 C59.956,100.180002 61.056,98.5080022 63.102,98.5080022 C64.532,98.5080022 65.544,99.1900022 66.138,100.554002 L67.744,99.8940022 C66.842,97.8480022 65.302,96.8360022 63.102,96.8360022 C61.496,96.8360022 60.242,97.3860022 59.362,98.5080022 C58.504,99.6080022 58.064,100.950002 58.064,102.556002 C58.064,104.162002 58.504,105.504002 59.362,106.626002 C60.242,107.726002 61.496,108.276002 63.102,108.276002 C65.302,108.276002 66.842,107.264002 67.744,105.218002 L66.138,104.558002 Z M71.99,104.910002 C71.99,103.656002 73.068,102.952002 74.938,102.952002 L76.918,102.952002 L76.918,103.216002 C76.918,104.382002 76.61,105.240002 75.994,105.790002 C75.378,106.340002 74.652,106.604002 73.816,106.604002 C72.65,106.604002 71.99,105.966002 71.99,104.910002 L71.99,104.910002 Z M78.766,101.016002 C78.766,98.2000022 77.072,96.8360022 74.498,96.8360022 C72.408,96.8360022 70.846,98.0020022 70.56,99.8720022 L72.188,100.246002 C72.43,99.1680022 73.332,98.5080022 74.498,98.5080022 C76.104,98.5080022 76.918,99.2780022 76.918,100.796002 L76.918,101.280002 L75.114,101.280002 C72.012,101.280002 70.098,102.556002 70.098,104.910002 C70.098,107.176002 71.528,108.276002 73.53,108.276002 C75.048,108.276002 76.192,107.704002 77.006,106.538002 L77.314,108.100002 L78.766,108.100002 L78.766,101.016002 Z M85.3,96.8360022 C83.342,96.8360022 82.044,98.1340022 82.044,99.8940022 C82.044,102.006002 83.892,102.710002 85.344,103.260002 C86.334,103.612002 87.148,104.140002 87.148,104.866002 C87.148,106.032002 86.554,106.604002 85.366,106.604002 C84.244,106.604002 83.386,105.878002 82.792,104.426002 L81.23,105.284002 C81.868,106.978002 83.276,108.276002 85.366,108.276002 C87.632,108.276002 89.04,106.956002 89.04,104.756002 C89.062,101.500002 83.87,101.896002 83.892,99.9160022 C83.892,99.0360022 84.464,98.5080022 85.234,98.5080022 C85.916,98.5080022 86.576,98.8820022 87.258,99.6080022 L88.512,98.5300022 C87.72,97.4080022 86.642,96.8360022 85.3,96.8360022 L85.3,96.8360022 Z M101.404,102.094002 C101.404,100.620002 100.964,99.3880022 100.062,98.3760022 C99.182,97.3420022 97.95,96.8360022 96.388,96.8360022 C94.782,96.8360022 93.55,97.3860022 92.67,98.5080022 C91.812,99.6080022 91.372,100.950002 91.372,102.556002 C91.372,104.162002 91.812,105.504002 92.67,106.626002 C93.55,107.726002 94.782,108.276002 96.388,108.276002 C98.676,108.276002 100.062,107.374002 101.096,105.196002 L99.468,104.492002 C98.83,105.922002 97.95,106.604002 96.388,106.604002 C94.474,106.604002 93.374,105.130002 93.264,102.952002 L101.404,102.952002 L101.404,102.094002 Z M96.388,98.5080022 C98.082,98.5080022 99.116,99.6080022 99.468,101.280002 L93.374,101.280002 C93.726,99.5860022 94.738,98.5080022 96.388,98.5080022 L96.388,98.5080022 Z M113.592,96.8360022 C111.634,96.8360022 110.336,98.1340022 110.336,99.8940022 C110.336,102.006002 112.184,102.710002 113.636,103.260002 C114.626,103.612002 115.44,104.140002 115.44,104.866002 C115.44,106.032002 114.846,106.604002 113.658,106.604002 C112.536,106.604002 111.678,105.878002 111.084,104.426002 L109.522,105.284002 C110.16,106.978002 111.568,108.276002 113.658,108.276002 C115.924,108.276002 117.332,106.956002 117.332,104.756002 C117.354,101.500002 112.162,101.896002 112.184,99.9160022 C112.184,99.0360022 112.756,98.5080022 113.526,98.5080022 C114.208,98.5080022 114.868,98.8820022 115.55,99.6080022 L116.804,98.5300022 C116.012,97.4080022 114.934,96.8360022 113.592,96.8360022 L113.592,96.8360022 Z M120.808,98.6840022 L120.808,104.624002 C120.808,107.022002 122.062,108.276002 124.02,108.276002 C124.746,108.276002 125.34,108.144002 125.824,107.858002 L125.384,106.252002 C125.032,106.494002 124.614,106.604002 124.13,106.604002 C123.184,106.604002 122.656,105.944002 122.656,104.778002 L122.656,98.6840022 L125.56,98.6840022 L125.56,97.0120022 L122.656,97.0120022 L122.656,92.5240022 L120.808,93.6900022 L120.808,97.0120022 L118.894,97.0120022 L118.894,98.6840022 L120.808,98.6840022 Z M128.222,104.822002 C128.222,107.022002 129.454,108.276002 131.478,108.276002 C133.084,108.276002 134.316,107.528002 135.152,106.054002 L135.152,108.100002 L137,108.100002 L137,97.0120022 L135.152,97.0120022 L135.152,101.654002 C135.152,103.128002 134.844,104.338002 134.206,105.240002 C133.59,106.142002 132.842,106.604002 131.984,106.604002 C130.708,106.604002 130.07,105.856002 130.07,104.338002 L130.07,97.0120022 L128.222,97.0120022 L128.222,104.822002 Z M144.964,96.8360022 C141.796,96.8360022 140.036,99.1240022 140.036,102.556002 C140.036,105.988002 141.796,108.276002 144.964,108.276002 C146.284,108.276002 147.648,107.594002 148.198,106.736002 L148.198,108.100002 L150.046,108.100002 L150.046,92.5240022 L148.198,92.5240022 L148.198,98.3320022 C148,97.9800022 147.56,97.6500022 146.922,97.3200022 C146.284,96.9900022 145.624,96.8360022 144.964,96.8360022 L144.964,96.8360022 Z M145.14,106.604002 C143.204,106.604002 141.928,104.954002 141.928,102.556002 C141.928,100.158002 143.204,98.5080022 145.14,98.5080022 C147.142,98.5080022 148.352,100.158002 148.352,102.556002 C148.352,104.954002 147.142,106.604002 145.14,106.604002 L145.14,106.604002 Z M157.174,105.020002 L154.358,97.0120022 L152.334,97.0120022 L156.228,107.638002 L154.468,112.588002 L156.36,112.588002 L161.86,97.0120022 L159.924,97.0120022 L157.174,105.020002 Z" id="A-react-native"></path>
                                <path d="M66.75,8.84375 L56.625,8.84375 L56.625,42.125 C56.625,44.0416763 56.1979209,45.463537 55.34375,46.390625 C54.4895791,47.317713 53.3854234,47.78125 52.03125,47.78125 C50.6562431,47.78125 49.5364627,47.3125047 48.671875,46.375 C47.8072873,45.4374953 47.375,44.0208428 47.375,42.125 L47.375,8.84375 L37.25,8.84375 C35.6666587,8.84375 34.4895872,8.49479516 33.71875,7.796875 C32.9479128,7.09895484 32.5625,6.17708906 32.5625,5.03125 C32.5625,3.84374406 32.9635377,2.90625344 33.765625,2.21875 C34.5677123,1.53124656 35.7291591,1.1875 37.25,1.1875 L66.75,1.1875 C68.3541747,1.1875 69.5468711,1.54166312 70.328125,2.25 C71.1093789,2.95833688 71.5,3.88541094 71.5,5.03125 C71.5,6.17708906 71.1041706,7.09895484 70.3125,7.796875 C69.5208294,8.49479516 68.3333413,8.84375 66.75,8.84375 L66.75,8.84375 Z M104.3125,30.4375 C104.3125,32.9791794 103.916671,35.3229059 103.125,37.46875 C102.333329,39.6145941 101.187508,41.4583256 99.6875,43 C98.1874925,44.5416744 96.3958437,45.7239542 94.3125,46.546875 C92.2291563,47.3697958 89.8854297,47.78125 87.28125,47.78125 C84.6979037,47.78125 82.3750103,47.3645875 80.3125,46.53125 C78.2499897,45.6979125 76.4635492,44.5052161 74.953125,42.953125 C73.4427008,41.4010339 72.2968789,39.5677189 71.515625,37.453125 C70.7343711,35.3385311 70.34375,33.0000128 70.34375,30.4375 C70.34375,27.8541538 70.7395794,25.4895941 71.53125,23.34375 C72.3229206,21.1979059 73.4583259,19.3645909 74.9375,17.84375 C76.4166741,16.3229091 78.2083228,15.1510458 80.3125,14.328125 C82.4166772,13.5052042 84.7395706,13.09375 87.28125,13.09375 C89.8645963,13.09375 92.2083228,13.5104125 94.3125,14.34375 C96.4166772,15.1770875 98.2187425,16.3645756 99.71875,17.90625 C101.218757,19.4479244 102.359371,21.2812394 103.140625,23.40625 C103.921879,25.5312606 104.3125,27.8749872 104.3125,30.4375 L104.3125,30.4375 Z M95.75,30.4375 C95.75,26.9583159 94.9843827,24.2500097 93.453125,22.3125 C91.9218673,20.3749903 89.8645963,19.40625 87.28125,19.40625 C85.614575,19.40625 84.1458397,19.8385373 82.875,20.703125 C81.6041603,21.5677127 80.6250034,22.8437416 79.9375,24.53125 C79.2499966,26.2187584 78.90625,28.1874887 78.90625,30.4375 C78.90625,32.6666778 79.2447883,34.614575 79.921875,36.28125 C80.5989617,37.947925 81.567702,39.2239539 82.828125,40.109375 C84.088548,40.9947961 85.5729081,41.4375 87.28125,41.4375 C89.8645963,41.4375 91.9218673,40.4635514 93.453125,38.515625 C94.9843827,36.5676986 95.75,33.8750172 95.75,30.4375 L95.75,30.4375 Z M134.40625,42.90625 L134.40625,42.0625 C133.260411,43.3750066 132.130214,44.4427042 131.015625,45.265625 C129.901036,46.0885458 128.692715,46.7135395 127.390625,47.140625 C126.088535,47.5677105 124.666674,47.78125 123.125,47.78125 C121.083323,47.78125 119.192717,47.3489627 117.453125,46.484375 C115.713533,45.6197873 114.20834,44.3854247 112.9375,42.78125 C111.66666,41.1770753 110.703128,39.2916775 110.046875,37.125 C109.390622,34.9583225 109.0625,32.6145959 109.0625,30.09375 C109.0625,24.76039 110.36457,20.6041816 112.96875,17.625 C115.57293,14.6458184 118.999979,13.15625 123.25,13.15625 C125.708346,13.15625 127.781242,13.5781208 129.46875,14.421875 C131.156258,15.2656292 132.802075,16.5624913 134.40625,18.3125 L134.40625,5.71875 C134.40625,3.96874125 134.755205,2.64583781 135.453125,1.75 C136.151045,0.854162188 137.145827,0.40625 138.4375,0.40625 C139.729173,0.40625 140.723955,0.817704219 141.421875,1.640625 C142.119795,2.46354578 142.46875,3.67707531 142.46875,5.28125 L142.46875,42.90625 C142.46875,44.5312581 142.093754,45.7499959 141.34375,46.5625 C140.593746,47.3750041 139.625006,47.78125 138.4375,47.78125 C137.270827,47.78125 136.307295,47.3593792 135.546875,46.515625 C134.786455,45.6718708 134.40625,44.4687578 134.40625,42.90625 L134.40625,42.90625 Z M117.625,30.375 C117.625,32.6875116 117.984371,34.6562419 118.703125,36.28125 C119.421879,37.9062581 120.406244,39.1302042 121.65625,39.953125 C122.906256,40.7760458 124.270826,41.1875 125.75,41.1875 C127.250007,41.1875 128.619785,40.7968789 129.859375,40.015625 C131.098965,39.2343711 132.088538,38.0364664 132.828125,36.421875 C133.567712,34.8072836 133.9375,32.7916788 133.9375,30.375 C133.9375,28.1041553 133.567712,26.1510498 132.828125,24.515625 C132.088538,22.8802002 131.088548,21.6302127 129.828125,20.765625 C128.567702,19.9010373 127.187507,19.46875 125.6875,19.46875 C124.124992,19.46875 122.729173,19.9114539 121.5,20.796875 C120.270827,21.6822961 119.317712,22.9531167 118.640625,24.609375 C117.963538,26.2656333 117.625,28.1874891 117.625,30.375 L117.625,30.375 Z M182.96875,30.4375 C182.96875,32.9791794 182.572921,35.3229059 181.78125,37.46875 C180.989579,39.6145941 179.843757,41.4583256 178.34375,43 C176.843743,44.5416744 175.052094,45.7239542 172.96875,46.546875 C170.885406,47.3697958 168.54168,47.78125 165.9375,47.78125 C163.354154,47.78125 161.03126,47.3645875 158.96875,46.53125 C156.90624,45.6979125 155.119799,44.5052161 153.609375,42.953125 C152.098951,41.4010339 150.953129,39.5677189 150.171875,37.453125 C149.390621,35.3385311 149,33.0000128 149,30.4375 C149,27.8541538 149.395829,25.4895941 150.1875,23.34375 C150.979171,21.1979059 152.114576,19.3645909 153.59375,17.84375 C155.072924,16.3229091 156.864573,15.1510458 158.96875,14.328125 C161.072927,13.5052042 163.395821,13.09375 165.9375,13.09375 C168.520846,13.09375 170.864573,13.5104125 172.96875,14.34375 C175.072927,15.1770875 176.874993,16.3645756 178.375,17.90625 C179.875007,19.4479244 181.015621,21.2812394 181.796875,23.40625 C182.578129,25.5312606 182.96875,27.8749872 182.96875,30.4375 L182.96875,30.4375 Z M174.40625,30.4375 C174.40625,26.9583159 173.640633,24.2500097 172.109375,22.3125 C170.578117,20.3749903 168.520846,19.40625 165.9375,19.40625 C164.270825,19.40625 162.80209,19.8385373 161.53125,20.703125 C160.26041,21.5677127 159.281253,22.8437416 158.59375,24.53125 C157.906247,26.2187584 157.5625,28.1874887 157.5625,30.4375 C157.5625,32.6666778 157.901038,34.614575 158.578125,36.28125 C159.255212,37.947925 160.223952,39.2239539 161.484375,40.109375 C162.744798,40.9947961 164.229158,41.4375 165.9375,41.4375 C168.520846,41.4375 170.578117,40.4635514 172.109375,38.515625 C173.640633,36.5676986 174.40625,33.8750172 174.40625,30.4375 L174.40625,30.4375 Z" id="Todo"></path>
                            </g>
                        </g>
                    </g>
                </g>
            </g>
        </g>
    </g>
</svg>