<?xml version="1.0" encoding="UTF-8" standalone="no"?>
<svg width="153px" height="112px" viewBox="0 0 153 112" version="1.1" xmlns="http://www.w3.org/2000/svg" xmlns:xlink="http://www.w3.org/1999/xlink" xmlns:sketch="http://www.bohemiancoding.com/sketch/ns">
    <!-- Generator: Sketch 3.5.2 (25235) - http://www.bohemiancoding.com/sketch -->
    <title>Logo</title>
    <desc>Created with Sketch.</desc>
    <defs></defs>
    <g id="Home" stroke="none" stroke-width="1" fill="none" fill-rule="evenodd" sketch:type="MSPage">
        <g id="Desktop-HD" sketch:type="MSArtboardGroup" transform="translate(-74.000000, -1332.000000)">
            <g id="Page" sketch:type="MSLayerGroup" transform="translate(0.000000, 189.000000)">
                <g id="Content" transform="translate(0.000000, 143.000000)">
                    <g id="Featured-projects" transform="translate(0.000000, 890.000000)">
                        <g id="Product-4">
                            <g id="Logo" transform="translate(74.000000, 110.000000)">
                                <g>
                                    <g id="text" fill="#017DDA" sketch:type="MSShapeGroup">
                                        <g id="TheTaxPlan" transform="translate(1.264986, 0.000000)">
                                            <path d="M41.363248,42.1995913 C39.8173961,40.0007212 37.5688844,38.3164803 34.4771807,37.1000841 C31.4323209,35.8836879 27.6379573,35.2754898 23.1877777,35.2754898 C22.2508978,35.2754898 20.564514,35.3222743 18.1754702,35.3690588 C15.7864265,35.4158433 13.5847587,35.4626277 11.6173109,35.4626277 C6.60500336,35.4626277 2.90432772,35.3690588 0.421595959,35.2287054 L0.421595959,36.7258084 C2.0611358,36.8193773 3.23223569,37.0065152 3.98173961,37.287222 C4.73124354,37.6147133 5.24652749,38.1761269 5.52759146,39.0182474 C5.80865544,39.8603678 5.94918742,41.2171174 5.94918742,43.0417117 L5.94918742,79.5335978 C5.94918742,81.3581921 5.80865544,82.7149417 5.52759146,83.5570621 C5.24652749,84.3991826 4.73124354,84.9605962 3.98173961,85.2880875 C3.23223569,85.6155788 2.0611358,85.8027167 0.421595959,85.8495011 L0.421595959,87.3466042 C6.74553535,87.2062508 10.633587,87.1126818 12.0389068,87.1126818 C14.9900785,87.1126818 19.4871021,87.2062508 25.5299775,87.3466042 L25.5299775,85.7091477 C23.2346217,85.6623633 21.5482379,85.5220099 20.470826,85.1945186 C19.3934141,84.8670273 18.6439102,84.2588292 18.2691582,83.3699243 C17.8475623,82.4810194 17.6601863,81.0307008 17.6601863,79.0657531 L17.6601863,66.2468085 L21.5482379,66.2468085 C26.9352974,66.2468085 31.291789,65.4046881 34.5708686,63.7672316 C37.8499483,62.1297752 40.1921481,60.0244741 41.550624,57.5448972 C42.9090998,55.0653204 43.6117598,52.4453901 43.6117598,49.7786753 C43.6117598,46.8780382 42.8622558,44.3516769 41.363248,42.1995913 L41.363248,42.1995913 Z M14.1468866,81.4985455 L11.7109989,79.7207357 L9.2751111,81.4985455 L10.211991,78.6446929 L7.77610325,76.866883 L10.774119,76.866883 L11.7109989,74.0130304 L12.6478788,76.866883 L15.6458945,76.866883 L13.2100067,78.6446929 L14.1468866,81.4985455 L14.1468866,81.4985455 Z M13.2100067,67.1824979 L14.1468866,70.0363505 L11.7109989,68.2585407 L9.2751111,70.0363505 L10.211991,67.1824979 L7.77610325,65.4046881 L10.774119,65.4046881 L11.7109989,62.5508354 L12.6478788,65.4046881 L15.6458945,65.4046881 L13.2100067,67.1824979 L13.2100067,67.1824979 Z M13.2100067,55.6735185 L14.1468866,58.5273711 L11.7109989,56.7495612 L9.2751111,58.5273711 L10.211991,55.6735185 L7.77610325,53.8957086 L10.774119,53.8957086 L11.7109989,51.041856 L12.6478788,53.8957086 L15.6458945,53.8957086 L13.2100067,55.6735185 L13.2100067,55.6735185 Z M13.2100067,44.164539 L14.1468866,47.0183916 L11.7109989,45.2405818 L9.2751111,47.0183916 L10.211991,44.164539 L7.77610325,42.3867292 L10.774119,42.3867292 L11.7109989,39.5328765 L12.6478788,42.3867292 L15.6458945,42.3867292 L13.2100067,44.164539 L13.2100067,44.164539 Z M29.1369652,60.9601635 C27.6379573,63.5333093 24.8741616,64.79649 20.845578,64.79649 L17.6601863,64.79649 L17.6601863,42.9949273 C17.6601863,41.2171174 17.7538743,39.9071523 17.9880943,39.0182474 C18.2223142,38.1293425 18.6439102,37.5211444 19.2997261,37.1936531 C19.9555421,36.8661618 20.892422,36.6790239 22.2508978,36.6790239 C25.5299775,36.6790239 27.8721773,37.8018512 29.2774972,40.0475057 C30.682817,42.2931602 31.385477,45.8019954 31.385477,50.5740113 C31.385477,54.9717514 30.635973,58.4338021 29.1369652,60.9601635 L29.1369652,60.9601635 Z" id="Shape"></path>
                                            <g id="Group" transform="translate(45.438676, 29.474216)">
                                                <path d="M16.1611784,54.2231999 C16.4422424,54.9717514 16.9575264,55.533165 17.6601863,55.8606563 C18.3628462,56.1881476 19.2528821,56.328501 20.470826,56.328501 L20.470826,57.8723885 C15.3648305,57.6852506 12.0857508,57.5916817 10.586743,57.5916817 C8.90035914,57.5916817 5.48074747,57.6852506 0.374751964,57.8723885 L0.374751964,56.328501 C1.54585185,56.328501 2.48273176,56.1881476 3.1385477,55.8606563 C3.79436363,55.533165 4.30964758,55.0185359 4.63755555,54.2231999 C4.96546352,53.4746484 5.1059955,52.3986056 5.1059955,51.041856 L5.1059955,9.02940257 C5.1059955,6.73696358 4.73124354,5.09950715 4.02858361,4.07024883 C3.32592368,3.0409905 2.1079798,2.52636134 0.374751964,2.52636134 L0.374751964,0.982473855 C1.92060381,1.12282726 3.46645566,1.2163962 4.96546352,1.2163962 C9.2751111,1.2163962 12.8820987,0.888904916 15.7395825,0.187137877 L15.7395825,51.041856 C15.7395825,52.3986056 15.8801145,53.4746484 16.1611784,54.2231999 L16.1611784,54.2231999 Z" id="Shape"></path>
                                                <path d="M42.5811919,21.9887006 C41.597468,20.8190888 40.0984601,20.2108907 38.0373243,20.2108907 C37.1004444,20.2108907 36.1167205,20.3512441 35.1798406,20.6787354 C34.2429607,20.9594422 33.4466128,21.4272869 32.7907968,22.035485 C34.1492727,22.5033297 35.2266846,23.2050968 35.9761885,24.1875706 C36.7256924,25.1700445 37.1472884,26.3864407 37.1472884,27.8367592 C37.1472884,28.8660176 36.9130684,29.7549225 36.3977845,30.5502584 C35.8825005,31.3455944 35.2266846,32.000577 34.2898047,32.4684217 C33.3997688,32.9362664 32.3223569,33.1701887 31.151257,33.1701887 C29.5585611,33.1701887 28.2937733,32.6087751 27.3568933,31.5327323 C26.4200134,30.4566895 25.9515735,29.0999399 25.9515735,27.4624835 C25.9515735,24.9361221 27.3100493,22.8776055 30.0738451,21.2869335 C33.0718608,19.6494771 36.8193804,18.8073567 41.316404,18.8073567 C46.3755555,18.8073567 49.9356992,19.9301839 52.0905229,22.129054 C53.1210908,23.1583123 53.8237508,24.421493 54.1985027,25.9653805 C54.5732547,27.5092679 54.7606307,29.6613535 54.7606307,32.4216372 L54.7606307,52.3986056 C54.7606307,53.6150018 54.8543187,54.4571223 55.0885387,54.9249669 C55.3227586,55.4395961 55.6975106,55.6735185 56.3064825,55.6735185 C57.1028305,55.6735185 57.9928664,55.2524582 59.0234343,54.4103378 L59.7729382,55.6735185 C58.6486823,56.6092078 57.4307384,57.3109749 56.1191066,57.7320351 C54.8074747,58.1530953 53.2147788,58.3870177 51.387863,58.3870177 C48.9051313,58.3870177 47.0782154,57.825604 46.0008035,56.7495612 C44.8765476,55.626734 44.3612637,54.2231999 44.3612637,52.4453901 C43.1433198,54.4571223 41.597468,55.9074408 39.6300202,56.9366991 C37.6625723,57.919173 35.6014365,58.4338021 33.3997688,58.4338021 C30.589129,58.4338021 28.3406172,57.6852506 26.6542334,56.2349321 C24.9678496,54.7378291 24.1246577,52.7260969 24.1246577,50.0593821 C24.1246577,47.4862363 24.9678496,45.3809352 26.6542334,43.6966943 C28.3406172,42.0124534 30.917037,40.5153504 34.4771807,39.2521697 C34.8519326,39.1118163 36.1167205,38.6439716 38.2247003,37.8486357 C40.3326801,37.0532997 41.8785319,36.2111792 42.8154118,35.3690588 C43.7522918,34.5269383 44.2207317,33.5912489 44.2207317,32.6087751 L44.2207317,26.9010698 C44.0333557,24.7489843 43.5180718,23.1583123 42.5811919,21.9887006 L42.5811919,21.9887006 Z M42.4875039,37.1936531 C41.7848439,37.7550667 40.754276,38.4568338 39.4426442,39.2521697 C37.8967923,40.3282125 36.6788484,41.5446087 35.7888125,42.9013583 C34.8987766,44.2581079 34.4771807,45.9423488 34.4771807,47.954081 C34.4771807,49.8722443 34.8987766,51.3225628 35.7419685,52.2582522 C36.5851604,53.1939416 37.7094163,53.6617863 39.0678922,53.6617863 C41.03534,53.6617863 42.6748799,52.6325279 44.0801997,50.6207958 L44.0801997,35.5561967 C43.7054478,36.0708258 43.1901638,36.6322395 42.4875039,37.1936531 L42.4875039,37.1936531 Z" id="Shape"></path>
                                                <path d="M89.2378113,18.7605722 C91.2521031,18.7605722 92.891643,18.9944945 94.2032749,19.4623392 C95.4680627,19.9301839 96.5454746,20.631951 97.3418226,21.5676403 C98.1381705,22.5033297 98.7471424,23.7197259 99.1218944,25.2168289 C99.4966463,26.713932 99.6840223,28.6788797 99.6840223,31.205241 L99.6840223,50.9950715 C99.6840223,52.3518211 99.8245543,53.4278639 100.152462,54.1764154 C100.48037,54.9249669 100.94881,55.4863806 101.65147,55.8138719 C102.307286,56.1413631 103.244166,56.2817166 104.415266,56.2817166 L104.415266,57.825604 C99.4966463,57.6384662 96.2644107,57.5448972 94.6717148,57.5448972 C93.172707,57.5448972 89.9404713,57.6384662 85.0686957,57.825604 L85.0686957,56.2817166 C86.0992636,56.2817166 86.8487676,56.1413631 87.4577395,55.8138719 C88.0198675,55.4863806 88.4414634,54.9717514 88.7225274,54.1764154 C88.9567474,53.4278639 89.0972794,52.3518211 89.0972794,50.9950715 L89.0972794,28.0706816 C89.0972794,26.0589494 88.7693714,24.5150619 88.1135554,23.4858036 C87.4577395,22.4565453 86.2397956,21.9419161 84.5534118,21.9419161 C83.1949359,21.9419161 81.976992,22.3161918 80.8527362,23.0647434 C79.7284803,23.8132949 78.8384443,24.8425532 78.2294724,26.1525183 C77.5736565,27.4624835 77.2457485,28.912802 77.2457485,30.503474 L77.2457485,50.9950715 C77.2457485,52.3518211 77.3862805,53.4278639 77.6205005,54.1764154 C77.9015644,54.9249669 78.3231604,55.4863806 78.8852883,55.8138719 C79.4474163,56.1413631 80.2437642,56.2817166 81.2274881,56.2817166 L81.2274881,57.825604 C76.7304646,57.6384662 73.6856048,57.5448972 72.092909,57.5448972 C70.5939011,57.5448972 67.1742895,57.6384662 61.880918,57.825604 L61.880918,56.2817166 C63.0520179,56.2817166 63.9888978,56.1413631 64.6915577,55.8138719 C65.3942177,55.4863806 65.8626576,54.9717514 66.1905656,54.1764154 C66.4716295,53.4278639 66.6590055,52.3518211 66.6590055,50.9950715 L66.6590055,27.7899748 C66.6590055,25.4975358 66.3310976,23.8600793 65.6284376,22.830821 C64.9257777,21.8015627 63.7078338,21.2869335 61.974606,21.2869335 L61.974606,19.743046 C63.5204578,19.8833994 65.0663097,19.9769684 66.5653175,19.9769684 C70.9218091,19.9769684 74.4819528,19.6494771 77.3394365,18.9477101 L77.3394365,25.5443202 C79.4005723,21.0530112 83.4291559,18.7605722 89.2378113,18.7605722 L89.2378113,18.7605722 Z" id="Shape"></path>
                                            </g>
                                            <g id="Group" transform="translate(64.644714, 0.935689)">
                                                <path d="M0.468439955,6.31590335 C0.468439955,4.39774011 0.327907968,2.292439 0.0936879909,0 C2.81063973,0.0935689386 7.49503927,0.140353408 14.0531986,0.140353408 C20.564514,0.140353408 25.2020696,0.0935689386 27.9190213,0 C27.6848013,2.33922346 27.5911133,4.44452458 27.5911133,6.31590335 C27.5911133,7.95335978 27.6379573,9.31010939 27.7316453,10.3861522 L26.6073894,10.3861522 C26.3731694,7.81300637 26.0452615,5.9416276 25.6236655,4.7252314 C25.2489135,3.5088352 24.5462536,2.61993028 23.5625297,2.01173218 C22.5788058,1.45031855 21.079798,1.16961173 19.0186622,1.16961173 L16.3485544,1.16961173 L16.3485544,29.2402933 C16.3485544,30.5970429 16.4890864,31.6263012 16.7233064,32.2344993 C16.9575264,32.8894819 17.4259663,33.3105421 18.1286262,33.5444645 C18.7844422,33.7783868 19.8618541,33.9187402 21.3140179,33.9655247 L21.3140179,34.9479986 C19.5807901,34.8544296 17.1449023,34.8076451 14.0531986,34.8076451 C10.774119,34.8076451 8.33823119,34.8544296 6.74553535,34.9479986 L6.74553535,33.9655247 C8.1976992,33.9187402 9.2751111,33.7783868 9.93092704,33.5444645 C10.586743,33.3105421 11.0551829,32.8894819 11.3362469,32.2344993 C11.5704669,31.5795168 11.7109989,30.5970429 11.7109989,29.2402933 L11.7109989,1.16961173 L9.04089112,1.16961173 C6.97975532,1.16961173 5.48074747,1.45031855 4.49702356,2.01173218 C3.51329966,2.57314581 2.81063973,3.46205073 2.43588776,4.7252314 C2.0611358,5.9416276 1.73322783,7.85979084 1.45216386,10.3861522 L0.327907968,10.3861522 C0.421595959,9.31010939 0.468439955,7.95335978 0.468439955,6.31590335 L0.468439955,6.31590335 Z" id="Shape"></path>
                                                <path d="M43.2838518,10.8539969 C42.4875039,10.1522298 41.363248,9.82473855 39.9110841,9.82473855 C37.5688844,9.82473855 35.9293445,10.4329367 34.9924646,11.6025484 C35.6482805,11.7429018 36.2104085,12.1171775 36.6320044,12.6318067 C37.0536004,13.1932203 37.2878204,13.8014184 37.2878204,14.5967544 C37.2878204,15.4388749 37.0067564,16.0938574 36.4914725,16.5617021 C35.9761885,17.0295468 35.2735286,17.2634692 34.3834927,17.2634692 C33.5403007,17.2634692 32.8844848,16.9827624 32.4160449,16.4213487 C31.9476049,15.8599351 31.7133849,15.1113836 31.7133849,14.2224787 C31.7133849,12.959298 32.4628888,11.7429018 34.0087407,10.7136435 C34.8050886,10.1990143 35.7888125,9.73116961 37.0067564,9.40367833 C38.1778563,9.02940257 39.4894882,8.88904916 40.941652,8.88904916 C42.3001279,8.88904916 43.4712278,9.07618704 44.5017957,9.40367833 C45.5323636,9.73116961 46.3287115,10.1990143 46.8908394,10.7604279 C47.6403434,11.5089794 48.1556273,12.4446688 48.4366913,13.4271427 C48.7177553,14.456401 48.8582873,15.8599351 48.8582873,17.6377449 L48.8582873,31.3455944 C48.8582873,32.1877149 48.9519752,32.7491285 49.1861952,33.1234043 C49.4204152,33.49768 49.7951672,33.6848179 50.3572951,33.6848179 C50.7788911,33.6848179 51.106799,33.5912489 51.481551,33.4041111 C51.809459,33.2169732 52.1842109,32.9830508 52.6058069,32.6555596 L53.1679348,33.49768 C52.6058069,33.9187402 52.0905229,34.2462315 51.715771,34.5269383 C51.341019,34.7608607 50.8725791,34.9479986 50.4041391,35.088352 C49.8888552,35.2287054 49.3267272,35.3222743 48.6709113,35.3222743 C47.0782154,35.3222743 45.9539595,34.9479986 45.3449876,34.1526626 C44.7360157,33.3573266 44.4081077,32.2812838 44.4081077,30.9713187 C43.4243838,32.5619906 42.3001279,33.6848179 40.941652,34.3398005 C39.5831762,34.994783 38.2247003,35.3222743 36.8193804,35.3222743 C35.6951245,35.3222743 34.6177126,35.1351364 33.6808327,34.7140762 C32.7439528,34.3398005 31.9944489,33.7316024 31.385477,32.8894819 C30.823349,32.0473615 30.542285,31.0181031 30.542285,29.8017069 C30.542285,28.5385263 30.870193,27.4624835 31.4791649,26.620363 C32.0881369,25.7314581 32.9313288,24.9829066 34.0555847,24.2811396 C35.1798406,23.626157 36.6320044,22.8776055 38.5057643,22.0822695 C38.8336722,21.9419161 39.6300202,21.6144248 40.847964,21.0997956 C42.1127519,20.5851665 43.0027878,20.0705373 43.5649158,19.5559082 C44.1270437,19.041279 44.4081077,18.4798654 44.4081077,17.8716673 L44.4081077,14.8306768 C44.4549517,12.8657291 44.0801997,11.5557639 43.2838518,10.8539969 L43.2838518,10.8539969 Z M43.2838518,20.9126578 C42.7217239,21.2401491 41.550624,21.8483472 39.7705521,22.6904676 C38.8336722,23.1583123 38.0373243,23.5793725 37.3815084,24.0940017 C36.7256924,24.5618464 36.1635645,25.2168289 35.6951245,26.0121649 C35.2266846,26.8075009 34.9924646,27.7899748 34.9924646,28.9595865 C34.9924646,30.409905 35.3672166,31.4859478 36.0698765,32.1877149 C36.7725364,32.9362664 37.7562603,33.2637577 38.9273602,33.2637577 C41.129028,33.2637577 42.9559438,32.000577 44.5017957,29.5210001 L44.5017957,19.8833994 C44.2207317,20.2108907 43.8459797,20.5851665 43.2838518,20.9126578 L43.2838518,20.9126578 Z" id="Shape"></path>
                                                <path d="M76.6836206,33.2169732 C77.1052165,33.5444645 77.6205005,33.7783868 78.2294724,33.9187402 L78.2294724,34.9479986 C76.5430886,34.8076451 75.3719887,34.7608607 74.7161727,34.7608607 C73.5919169,34.7608607 71.624469,34.8076451 68.8606733,34.9479986 L68.8606733,33.9187402 C69.3759573,33.9187402 69.8443972,33.8251713 70.2191492,33.5912489 C70.5939011,33.4041111 70.7812771,33.1234043 70.7812771,32.795913 C70.7812771,32.6555596 70.6875891,32.4216372 70.5470572,32.2344993 L64.9257777,24.0472172 L61.31879,28.7256641 C60.3819101,29.8952759 59.9603142,30.8777497 59.9603142,31.6730857 C59.9603142,33.0298353 61.1782581,33.7783868 63.6141458,33.9187402 L63.6141458,34.9012141 C61.880918,34.8076451 60.0071582,34.7608607 57.9928664,34.7608607 C56.5407025,34.7608607 55.2759146,34.8076451 54.2453467,34.9012141 L54.2453467,33.9187402 C54.9011627,33.8251713 55.5569786,33.5444645 56.2127945,33.0298353 C56.8686105,32.5152062 57.6649584,31.6730857 58.5549943,30.4566895 L64.2699618,22.9711744 L57.3838944,13.0060825 C56.9154545,12.3510999 56.5407025,11.8364707 56.2596385,11.5089794 C55.9317306,11.1814882 55.6506666,10.9475658 55.3696026,10.8072124 C55.0885387,10.666859 54.7606307,10.5732901 54.3390347,10.5265056 L54.3390347,9.49724727 C56.0722626,9.63760067 57.2433624,9.68438514 57.8523344,9.68438514 C58.9765903,9.68438514 60.8971941,9.63760067 63.6609898,9.49724727 L63.6609898,10.5265056 C63.1457059,10.5265056 62.6772659,10.6200745 62.302514,10.8072124 C61.927762,10.9943503 61.740386,11.2750571 61.740386,11.6025484 C61.740386,11.7896863 61.78723,11.9768241 61.927762,12.163962 L67.2211335,19.836615 L70.6407451,15.0645991 C71.624469,13.661065 72.139753,12.6318067 72.139753,11.9768241 C72.139753,11.5089794 71.905533,11.1347037 71.4839371,10.9007813 C71.0154971,10.666859 70.3128372,10.4797211 69.3291133,10.4329367 L69.3291133,9.4504628 C71.0154971,9.54403173 72.420817,9.5908162 73.4982289,9.5908162 C74.9503927,9.5908162 76.1683366,9.54403173 77.2457485,9.4504628 L77.2457485,10.4329367 C75.8872726,10.5732901 74.4819528,11.7429018 72.8892569,13.8949874 L67.9237934,20.8658733 L75.1846127,31.4391634 C75.7935846,32.2812838 76.2620246,32.8426974 76.6836206,33.2169732 L76.6836206,33.2169732 Z" id="Shape"></path>
                                            </g>
                                            <g id="Group" transform="translate(5.621279, 0.000000)">
                                                <path d="M0.421595959,6.08198101 C0.421595959,4.91236928 0.327907968,3.6491886 0.187375982,2.24565453 C1.87375982,2.33922346 4.73124354,2.33922346 8.71298315,2.33922346 C12.6478788,2.33922346 15.4585185,2.33922346 17.1449023,2.24565453 C17.0043703,3.69597307 16.9575264,4.95915374 16.9575264,6.08198101 C16.9575264,7.11123933 17.0043703,7.90657531 17.0512143,8.56155788 L16.3485544,8.56155788 C16.2080224,7.01767039 15.9738024,5.84805866 15.7395825,5.09950715 C15.5053625,4.35095564 15.0837665,3.78954201 14.4747946,3.46205073 C13.8658227,3.13455944 12.9289427,2.94742157 11.7109989,2.94742157 L10.071459,2.94742157 L10.071459,20.0237529 C10.071459,20.8658733 10.165147,21.4740714 10.305679,21.8483472 C10.446211,22.2226229 10.727275,22.5033297 11.1488709,22.6436831 C11.5704669,22.7840365 12.2262828,22.8776055 13.1163187,22.92439 L13.1163187,23.5325881 C12.0389068,23.4858036 10.586743,23.4390191 8.71298315,23.4390191 C6.69869135,23.4390191 5.24652749,23.4858036 4.26280359,23.5325881 L4.26280359,22.92439 C5.1528395,22.8776055 5.80865544,22.7840365 6.2302514,22.6436831 C6.65184735,22.5033297 6.93291133,22.2226229 7.07344331,21.8483472 C7.2139753,21.4740714 7.30766329,20.8658733 7.30766329,20.0237529 L7.30766329,2.94742157 L5.66812345,2.94742157 C4.40333557,2.94742157 3.51329966,3.13455944 2.90432772,3.46205073 C2.29535578,3.78954201 1.87375982,4.35095564 1.63953984,5.09950715 C1.40531986,5.84805866 1.21794388,7.01767039 1.0305679,8.56155788 L0.327907968,8.56155788 C0.421595959,7.90657531 0.421595959,7.11123933 0.421595959,6.08198101 L0.421595959,6.08198101 Z" id="Shape"></path>
                                                <path d="M25.5299775,8.46798894 C26.4200134,7.90657531 27.4505813,7.62586849 28.5279932,7.62586849 C29.9333131,7.62586849 31.010725,8.00014425 31.7133849,8.74869576 C32.0881369,9.16975598 32.3692009,9.68438514 32.5097328,10.2457988 C32.6502648,10.8539969 32.7439528,11.6493329 32.7439528,12.6785912 L32.7439528,20.6787354 C32.7439528,21.2401491 32.8376408,21.6612093 32.9781728,21.9887006 C33.1187048,22.3161918 33.3529248,22.5033297 33.6808327,22.6436831 C34.0087407,22.7840365 34.4771807,22.830821 35.0393086,22.830821 L35.0393086,23.4390191 C33.1655488,23.3454502 31.9476049,23.2986657 31.4323209,23.2986657 C30.870193,23.2986657 29.7459371,23.3454502 28.0595533,23.4390191 L28.0595533,22.830821 C28.5748372,22.830821 28.9495892,22.7840365 29.2306532,22.6436831 C29.5117171,22.5033297 29.6990931,22.3161918 29.8396251,21.9887006 C29.9801571,21.6612093 30.0270011,21.2401491 30.0270011,20.6787354 L30.0270011,12.0703931 C30.0270011,11.368626 29.9801571,10.7604279 29.8396251,10.2457988 C29.6990931,9.77795408 29.4648731,9.35689386 29.1369652,9.07618704 C28.7622132,8.79548023 28.2469293,8.60834235 27.5911133,8.60834235 C26.7947654,8.60834235 26.0452615,8.8422647 25.3894455,9.31010939 C24.7336296,9.77795408 24.2651896,10.4329367 23.8904377,11.2282726 C23.5156857,12.0703931 23.3751537,13.0060825 23.3751537,14.0353408 L23.3751537,20.7255199 C23.3751537,21.2869335 23.4219977,21.7079937 23.5625297,22.035485 C23.7030617,22.3629763 23.8904377,22.5501142 24.1715017,22.6904676 C24.4525656,22.830821 24.8273176,22.8776055 25.3426015,22.8776055 L25.3426015,23.4858036 C23.6562177,23.3922346 22.5319618,23.3454502 21.9698339,23.3454502 C21.4077059,23.3454502 20.189762,23.3922346 18.3628462,23.4858036 L18.3628462,22.8776055 C18.9249742,22.8776055 19.3934141,22.830821 19.7213221,22.6904676 C20.0492301,22.5501142 20.28345,22.3629763 20.423982,22.035485 C20.564514,21.7079937 20.658202,21.2869335 20.658202,20.7255199 L20.658202,3.60240414 C20.658202,2.66671475 20.470826,2.01173218 20.142918,1.59067196 C19.8150101,1.16961173 19.2060381,0.982473855 18.3628462,0.982473855 L18.3628462,0.327491285 C19.0186622,0.374275754 19.6276341,0.421060224 20.236606,0.421060224 C21.5482379,0.421060224 22.5788058,0.280706816 23.3751537,0 L23.3751537,11.2282726 C23.9372817,9.96509196 24.6399416,9.02940257 25.5299775,8.46798894 L25.5299775,8.46798894 Z" id="Shape"></path>
                                                <path d="M48.2961593,21.8951316 C47.7808754,22.5033297 47.1250594,23.0179589 46.3755555,23.3922346 C45.6260516,23.7665104 44.7360157,23.9536483 43.7991357,23.9536483 C42.3469719,23.9536483 41.129028,23.626157 40.0984601,22.9711744 C39.0678922,22.3161918 38.2715443,21.4272869 37.7094163,20.2108907 C37.1472884,19.041279 36.8662244,17.6845294 36.8662244,16.1406419 C36.8662244,14.4096165 37.1472884,12.9125135 37.7094163,11.6025484 C38.2715443,10.3393677 39.0678922,9.35689386 40.0984601,8.65512682 C41.129028,7.95335978 42.3001279,7.62586849 43.7054478,7.62586849 C45.4855196,7.62586849 46.8908394,8.18728213 47.8745634,9.26332492 C48.8582873,10.3393677 49.3267272,12.0236086 49.3267272,14.2224787 L39.9110841,14.2224787 C39.8642401,14.7371078 39.8173961,15.3920904 39.8173961,16.1406419 C39.8173961,17.450607 40.0516161,18.6202188 40.4732121,19.6026926 C40.894808,20.5851665 41.456936,21.333718 42.2064399,21.8951316 C42.9090998,22.4097608 43.6586038,22.6904676 44.4549517,22.6904676 C46.4692435,22.6904676 47.9214073,21.7079937 48.8582873,19.6962616 L49.4672592,19.9301839 C49.1861952,20.631951 48.8114433,21.2869335 48.2961593,21.8951316 L48.2961593,21.8951316 Z M46.1881795,10.9007813 C46.0008035,10.0586609 45.6728956,9.40367833 45.2044556,8.93583363 C44.7828597,8.46798894 44.2207317,8.18728213 43.5649158,8.18728213 C42.9559438,8.18728213 42.3938159,8.37442 41.8785319,8.79548023 C41.363248,9.16975598 40.941652,9.77795408 40.5669001,10.6200745 C40.1921481,11.4154105 40.0047721,12.4446688 39.8642401,13.661065 L46.4223995,13.661065 C46.4692435,12.6785912 46.3755555,11.7429018 46.1881795,10.9007813 L46.1881795,10.9007813 Z" id="Shape"></path>
                                            </g>
                                        </g>
                                        <g id="Layer_6" transform="translate(0.000000, 95.231638)">
                                            <path d="M0.42169418,0 L0.42169418,16.3491525 L152.700148,16.3491525 L152.700148,0 L0.42169418,0 L0.42169418,0 Z M131.615439,12.8557439 L130.631486,12.8557439 C130.490921,12.8557439 130.444066,12.7625863 130.397211,12.62285 L128.804144,7.8252354 C128.75729,7.73207784 128.75729,7.59234149 128.710435,7.49918393 C128.66358,7.40602637 128.66358,7.26629002 128.616725,7.17313245 C128.616725,7.26629002 128.56987,7.40602637 128.56987,7.49918393 C128.523015,7.59234149 128.523015,7.73207784 128.47616,7.8252354 L126.883093,12.62285 C126.836238,12.7625863 126.742528,12.8557439 126.601964,12.8557439 L125.664866,12.8557439 L123.368975,5.77576899 L124.352928,5.77576899 C124.446638,5.77576899 124.540348,5.82234777 124.587203,5.86892655 C124.634058,5.91550534 124.680912,5.96208412 124.727767,6.05524168 L126.08656,10.6199623 C126.133415,10.8062775 126.18027,10.9460138 126.18027,11.0857502 C126.227124,11.2254865 126.227124,11.4118016 126.273979,11.551538 C126.320834,11.4118016 126.367689,11.2254865 126.414544,11.0857502 C126.461399,10.9460138 126.508254,10.7596987 126.555109,10.6199623 L128.054466,6.05524168 C128.054466,6.0086629 128.101321,5.91550534 128.195031,5.86892655 C128.241886,5.82234777 128.335595,5.77576899 128.429305,5.77576899 L128.991564,5.77576899 C129.085274,5.77576899 129.178984,5.82234777 129.225839,5.86892655 C129.272694,5.91550534 129.319548,5.96208412 129.366403,6.05524168 L130.818906,10.6199623 C130.86576,10.7596987 130.912615,10.9460138 130.95947,11.0857502 C131.006325,11.2254865 131.05318,11.4118016 131.05318,11.551538 C131.100035,11.4118016 131.100035,11.2254865 131.14689,11.0857502 C131.193745,10.899435 131.2406,10.7596987 131.287455,10.6199623 L132.693102,6.05524168 C132.693102,5.96208412 132.739957,5.91550534 132.833667,5.86892655 C132.880522,5.82234777 132.974231,5.77576899 133.067941,5.77576899 L134.005039,5.77576899 L131.615439,12.8557439 L131.615439,12.8557439 Z M136.39464,12.8557439 L135.129557,12.8557439 L135.129557,5.77576899 L136.39464,5.77576899 L136.39464,12.8557439 L136.39464,12.8557439 Z M136.628914,3.9126177 C136.582059,4.00577527 136.535204,4.09893283 136.441495,4.1920904 C136.347785,4.28524796 136.254075,4.33182674 136.160365,4.37840552 C136.066655,4.42498431 135.926091,4.42498431 135.832381,4.42498431 C135.691816,4.42498431 135.598106,4.42498431 135.504396,4.37840552 C135.410687,4.33182674 135.316977,4.28524796 135.223267,4.1920904 C135.129557,4.09893283 135.082702,4.00577527 135.035847,3.9126177 C134.988992,3.81946014 134.988992,3.67972379 134.988992,3.58656623 C134.988992,3.44682988 135.035847,3.35367232 135.035847,3.26051475 C135.082702,3.16735719 135.129557,3.07419962 135.223267,2.98104206 C135.316977,2.88788449 135.410687,2.84130571 135.504396,2.79472693 C135.598106,2.74814815 135.738671,2.70156937 135.832381,2.70156937 C135.972946,2.70156937 136.066655,2.74814815 136.160365,2.79472693 C136.254075,2.84130571 136.347785,2.88788449 136.441495,2.98104206 C136.535204,3.07419962 136.582059,3.16735719 136.628914,3.26051475 C136.675769,3.35367232 136.722624,3.49340866 136.722624,3.58656623 C136.675769,3.72630257 136.675769,3.81946014 136.628914,3.9126177 L136.628914,3.9126177 Z M141.689244,12.8091651 C141.408115,12.9023227 141.080131,12.9954802 140.752146,12.9954802 C140.189887,12.9954802 139.768193,12.8557439 139.440209,12.5296924 C139.159079,12.2036409 138.97166,11.7844319 138.97166,11.1789077 L138.97166,6.84708098 L138.128271,6.84708098 C138.034562,6.84708098 137.987707,6.84708098 137.940852,6.8005022 C137.893997,6.75392341 137.847142,6.70734463 137.847142,6.61418707 L137.847142,6.05524168 L139.018515,5.91550534 L139.299644,3.72630257 C139.299644,3.63314501 139.346499,3.58656623 139.393354,3.53998745 C139.440209,3.49340866 139.487064,3.49340866 139.580774,3.49340866 L140.189887,3.49340866 L140.189887,5.91550534 L142.204648,5.91550534 L142.204648,6.8005022 L140.189887,6.8005022 L140.189887,11.0391714 C140.189887,11.3186441 140.283597,11.551538 140.424162,11.6912743 C140.564727,11.8310107 140.752146,11.9241682 140.986421,11.9241682 C141.126985,11.9241682 141.220695,11.9241682 141.314405,11.8775895 C141.408115,11.8310107 141.501825,11.7844319 141.54868,11.7844319 C141.642389,11.7378531 141.689244,11.6912743 141.736099,11.6912743 C141.782954,11.6446955 141.829809,11.6446955 141.876664,11.6446955 C141.923519,11.6446955 142.017229,11.6912743 142.064084,11.7844319 L142.438923,12.3899561 C142.251503,12.5296924 142.017229,12.7160075 141.689244,12.8091651 L141.689244,12.8091651 Z M149.748289,12.8557439 L148.530061,12.8557439 L148.530061,8.38418079 C148.530061,7.87181419 148.389496,7.45260515 148.155222,7.12655367 C147.920947,6.84708098 147.546108,6.66076585 147.030704,6.66076585 C146.655865,6.66076585 146.32788,6.75392341 145.999896,6.94023854 C145.671912,7.12655367 145.390782,7.35944758 145.109653,7.63892028 L145.109653,12.8557439 L143.84457,12.8557439 L143.84457,2.56183302 L145.109653,2.56183302 L145.109653,6.70734463 C145.390782,6.38129316 145.765621,6.14839925 146.140461,5.91550534 C146.5153,5.72919021 146.936994,5.63603264 147.405543,5.63603264 C147.780383,5.63603264 148.155222,5.68261142 148.436351,5.82234777 C148.717481,5.96208412 148.99861,6.14839925 149.18603,6.38129316 C149.373449,6.61418707 149.514014,6.89365976 149.654579,7.21971124 C149.748289,7.54576271 149.795144,7.91839297 149.795144,8.33760201 L149.795144,12.8557439 L149.748289,12.8557439 Z" id="Shape"></path>
                                        </g>
                                    </g>
                                    <rect id="Rectangle-9" fill="#017DDA" sketch:type="MSShapeGroup" x="0" y="95" width="153" height="17"></rect>
                                    <text id="Data-Visualization" sketch:type="MSTextLayer" font-family="Lato" font-size="12" font-weight="normal" letter-spacing="0.100000001" fill="#FAFAFA">
                                        <tspan x="28" y="108">Data Visualizatio</tspan>
                                        <tspan x="118.884" y="108">n</tspan>
                                    </text>
                                </g>
                            </g>
                        </g>
                    </g>
                </g>
            </g>
        </g>
    </g>
</svg>