<?xml version="1.0" encoding="UTF-8" standalone="no"?>
<svg width="214px" height="117px" viewBox="0 0 214 117" version="1.1" xmlns="http://www.w3.org/2000/svg" xmlns:xlink="http://www.w3.org/1999/xlink" xmlns:sketch="http://www.bohemiancoding.com/sketch/ns">
    <!-- Generator: Sketch 3.4.2 (15855) - http://www.bohemiancoding.com/sketch -->
    <title>Logo</title>
    <desc>Created with Sketch.</desc>
    <defs></defs>
    <g id="Page-1" stroke="none" stroke-width="1" fill="none" fill-rule="evenodd" sketch:type="MSPage">
        <g id="Product-2" sketch:type="MSLayerGroup" transform="translate(-58.000000, -114.000000)" fill="#FFFFFF">
            <g id="Logo" transform="translate(58.000000, 113.000000)" sketch:type="MSShapeGroup">
                <path d="M13.08,90 L13.08,82.234 L8.064,82.234 L8.064,83.598 L11.628,83.598 C11.606,87.008 9.978,88.812 7.052,88.812 C5.49,88.812 4.214,88.24 3.246,87.096 C2.3,85.952 1.816,84.346 1.816,82.3 C1.816,80.254 2.3,78.648 3.246,77.504 C4.214,76.36 5.49,75.788 7.052,75.788 C9.274,75.788 10.858,77.042 11.562,79.308 L12.992,78.912 C12.222,76.118 10.066,74.424 7.052,74.424 C5.182,74.424 3.598,75.106 2.278,76.492 C0.958,77.878 0.298,79.814 0.298,82.3 C0.298,84.786 0.958,86.722 2.278,88.108 C3.598,89.494 5.182,90.176 7.052,90.176 C9.076,90.176 10.814,89.208 11.628,87.624 L11.804,90 L13.08,90 Z M16.578,76.536 C17.018,76.954 17.766,76.954 18.184,76.536 C18.624,76.096 18.624,75.348 18.184,74.93 C17.766,74.49 17.018,74.49 16.578,74.93 C16.16,75.348 16.16,76.096 16.578,76.536 L16.578,76.536 Z M16.71,90 L18.074,90 L18.074,78.912 L16.71,78.912 L16.71,90 Z M24.938,88.174 L21.88,78.912 L20.45,78.912 L24.19,90 L25.686,90 L29.426,78.912 L27.996,78.912 L24.938,88.174 Z M40.756,83.84 C40.756,82.322 40.294,81.09 39.392,80.144 C38.49,79.198 37.324,78.736 35.894,78.736 C34.42,78.736 33.232,79.286 32.33,80.364 C31.428,81.442 30.966,82.806 30.966,84.456 C30.966,86.106 31.428,87.492 32.33,88.57 C33.232,89.648 34.42,90.176 35.894,90.176 C38.006,90.176 39.392,89.318 40.514,87.118 L39.304,86.524 C38.49,88.218 37.566,88.9 35.894,88.9 C33.716,88.9 32.396,87.096 32.396,84.456 L40.756,84.456 L40.756,83.84 Z M35.894,80.012 C37.852,80.012 39.084,81.222 39.348,83.18 L32.484,83.18 C32.858,81.31 34.112,80.012 35.894,80.012 L35.894,80.012 Z M52.526,87.888 L49.226,78.912 L47.796,78.912 L51.778,89.934 L50.172,94.488 L51.536,94.488 L57.036,78.912 L55.606,78.912 L52.526,87.888 Z M60.16,88.46 C61.106,89.604 62.36,90.176 63.922,90.176 C65.484,90.176 66.738,89.604 67.684,88.46 C68.63,87.316 69.114,85.974 69.114,84.456 C69.114,82.938 68.63,81.596 67.684,80.452 C66.738,79.308 65.484,78.736 63.922,78.736 C62.36,78.736 61.106,79.308 60.16,80.452 C59.214,81.596 58.73,82.938 58.73,84.456 C58.73,85.974 59.214,87.316 60.16,88.46 L60.16,88.46 Z M61.15,81.332 C61.832,80.452 62.756,80.012 63.922,80.012 C65.088,80.012 66.012,80.452 66.672,81.332 C67.354,82.212 67.684,83.246 67.684,84.456 C67.684,85.666 67.354,86.7 66.672,87.58 C66.012,88.46 65.088,88.9 63.922,88.9 C62.756,88.9 61.832,88.46 61.15,87.58 C60.49,86.7 60.16,85.666 60.16,84.456 C60.16,83.246 60.49,82.212 61.15,81.332 L61.15,81.332 Z M71.974,86.524 C71.974,88.834 73.272,90.176 75.384,90.176 C76.968,90.176 78.42,89.186 79.19,87.69 L79.19,90 L80.554,90 L80.554,78.912 L79.19,78.912 L79.19,83.774 C79.19,85.314 78.838,86.546 78.156,87.492 C77.474,88.438 76.638,88.9 75.604,88.9 C74.086,88.9 73.338,88.042 73.338,86.348 L73.338,78.912 L71.974,78.912 L71.974,86.524 Z M90.212,79.11 C89.596,78.868 89.046,78.736 88.54,78.736 C87.066,78.736 85.966,79.462 85.284,80.892 L85.284,78.912 L83.92,78.912 L83.92,90 L85.284,90 L85.284,85.71 C85.284,82.08 86.56,80.012 88.342,80.012 C88.892,80.012 89.42,80.144 89.904,80.408 L90.212,79.11 Z M4.06,105.836002 C2.278,105.836002 0.958,107.046002 0.958,108.806002 C0.958,110.874002 2.85,111.490002 4.346,112.084002 C5.38,112.458002 6.194,113.118002 6.194,114.020002 C6.194,115.252002 5.49,116.000002 4.192,116.000002 C2.696,116.000002 1.948,115.120002 1.398,113.602002 L0.188,114.240002 C0.694,115.912002 2.014,117.276002 4.192,117.276002 C6.304,117.276002 7.624,115.934002 7.624,113.800002 C7.624,111.930002 5.71,111.204002 4.214,110.610002 C3.18,110.192002 2.366,109.598002 2.366,108.784002 C2.366,107.794002 3.026,107.112002 3.994,107.112002 C4.808,107.112002 5.534,107.530002 6.172,108.388002 L7.14,107.552002 C6.326,106.408002 5.314,105.836002 4.06,105.836002 L4.06,105.836002 Z M17.92,113.734002 C17.304,115.252002 16.226,116.000002 14.686,116.000002 C13.564,116.000002 12.684,115.582002 12.09,114.746002 C11.496,113.888002 11.21,112.832002 11.21,111.556002 C11.21,110.280002 11.496,109.224002 12.09,108.388002 C12.684,107.530002 13.564,107.112002 14.686,107.112002 C16.226,107.112002 17.304,107.860002 17.92,109.378002 L19.152,108.894002 C18.382,106.848002 16.886,105.836002 14.686,105.836002 C13.146,105.836002 11.936,106.408002 11.078,107.530002 C10.22,108.652002 9.78,109.994002 9.78,111.556002 C9.78,113.118002 10.22,114.482002 11.078,115.604002 C11.936,116.726002 13.146,117.276002 14.686,117.276002 C16.886,117.276002 18.382,116.264002 19.152,114.218002 L17.92,113.734002 Z M28.326,106.210002 C27.71,105.968002 27.16,105.836002 26.654,105.836002 C25.18,105.836002 24.08,106.562002 23.398,107.992002 L23.398,106.012002 L22.034,106.012002 L22.034,117.100002 L23.398,117.100002 L23.398,112.810002 C23.398,109.180002 24.674,107.112002 26.456,107.112002 C27.006,107.112002 27.534,107.244002 28.018,107.508002 L28.326,106.210002 Z M39.48,110.940002 C39.48,109.422002 39.018,108.190002 38.116,107.244002 C37.214,106.298002 36.048,105.836002 34.618,105.836002 C33.144,105.836002 31.956,106.386002 31.054,107.464002 C30.152,108.542002 29.69,109.906002 29.69,111.556002 C29.69,113.206002 30.152,114.592002 31.054,115.670002 C31.956,116.748002 33.144,117.276002 34.618,117.276002 C36.73,117.276002 38.116,116.418002 39.238,114.218002 L38.028,113.624002 C37.214,115.318002 36.29,116.000002 34.618,116.000002 C32.44,116.000002 31.12,114.196002 31.12,111.556002 L39.48,111.556002 L39.48,110.940002 Z M34.618,107.112002 C36.576,107.112002 37.808,108.322002 38.072,110.280002 L31.208,110.280002 C31.582,108.410002 32.836,107.112002 34.618,107.112002 L34.618,107.112002 Z M51.756,110.940002 C51.756,109.422002 51.294,108.190002 50.392,107.244002 C49.49,106.298002 48.324,105.836002 46.894,105.836002 C45.42,105.836002 44.232,106.386002 43.33,107.464002 C42.428,108.542002 41.966,109.906002 41.966,111.556002 C41.966,113.206002 42.428,114.592002 43.33,115.670002 C44.232,116.748002 45.42,117.276002 46.894,117.276002 C49.006,117.276002 50.392,116.418002 51.514,114.218002 L50.304,113.624002 C49.49,115.318002 48.566,116.000002 46.894,116.000002 C44.716,116.000002 43.396,114.196002 43.396,111.556002 L51.756,111.556002 L51.756,110.940002 Z M46.894,107.112002 C48.852,107.112002 50.084,108.322002 50.348,110.280002 L43.484,110.280002 C43.858,108.410002 45.112,107.112002 46.894,107.112002 L46.894,107.112002 Z M63.35,109.488002 C63.35,107.178002 62.052,105.836002 59.94,105.836002 C58.356,105.836002 56.904,106.826002 56.134,108.322002 L56.134,106.012002 L54.77,106.012002 L54.77,117.100002 L56.134,117.100002 L56.134,112.238002 C56.134,110.698002 56.464,109.466002 57.146,108.520002 C57.828,107.574002 58.686,107.112002 59.72,107.112002 C61.238,107.112002 61.986,107.970002 61.986,109.664002 L61.986,117.100002 L63.35,117.100002 L63.35,109.488002 Z M69.642,105.836002 C67.86,105.836002 66.54,107.046002 66.54,108.806002 C66.54,110.874002 68.432,111.490002 69.928,112.084002 C70.962,112.458002 71.776,113.118002 71.776,114.020002 C71.776,115.252002 71.072,116.000002 69.774,116.000002 C68.278,116.000002 67.53,115.120002 66.98,113.602002 L65.77,114.240002 C66.276,115.912002 67.596,117.276002 69.774,117.276002 C71.886,117.276002 73.206,115.934002 73.206,113.800002 C73.206,111.930002 71.292,111.204002 69.796,110.610002 C68.762,110.192002 67.948,109.598002 67.948,108.784002 C67.948,107.794002 68.608,107.112002 69.576,107.112002 C70.39,107.112002 71.116,107.530002 71.754,108.388002 L72.722,107.552002 C71.908,106.408002 70.896,105.836002 69.642,105.836002 L69.642,105.836002 Z M84.756,109.488002 C84.756,107.178002 83.48,105.836002 81.302,105.836002 C79.696,105.836002 78.068,106.738002 77.342,108.432002 L77.342,101.524002 L75.978,101.524002 L75.978,117.100002 L77.342,117.100002 L77.342,112.370002 C77.342,110.808002 77.694,109.532002 78.42,108.564002 C79.146,107.596002 80.048,107.112002 81.082,107.112002 C82.578,107.112002 83.392,108.058002 83.392,109.664002 L83.392,117.100002 L84.756,117.100002 L84.756,109.488002 Z M89.244,115.560002 C90.19,116.704002 91.444,117.276002 93.006,117.276002 C94.568,117.276002 95.822,116.704002 96.768,115.560002 C97.714,114.416002 98.198,113.074002 98.198,111.556002 C98.198,110.038002 97.714,108.696002 96.768,107.552002 C95.822,106.408002 94.568,105.836002 93.006,105.836002 C91.444,105.836002 90.19,106.408002 89.244,107.552002 C88.298,108.696002 87.814,110.038002 87.814,111.556002 C87.814,113.074002 88.298,114.416002 89.244,115.560002 L89.244,115.560002 Z M90.234,108.432002 C90.916,107.552002 91.84,107.112002 93.006,107.112002 C94.172,107.112002 95.096,107.552002 95.756,108.432002 C96.438,109.312002 96.768,110.346002 96.768,111.556002 C96.768,112.766002 96.438,113.800002 95.756,114.680002 C95.096,115.560002 94.172,116.000002 93.006,116.000002 C91.84,116.000002 90.916,115.560002 90.234,114.680002 C89.574,113.800002 89.244,112.766002 89.244,111.556002 C89.244,110.346002 89.574,109.312002 90.234,108.432002 L90.234,108.432002 Z M101.85,107.288002 L101.85,113.954002 C101.85,116.176002 102.928,117.276002 104.622,117.276002 C105.436,117.276002 106.074,117.144002 106.558,116.880002 L106.184,115.648002 C105.81,115.890002 105.348,116.000002 104.798,116.000002 C103.764,116.000002 103.258,115.384002 103.258,114.174002 L103.258,107.288002 L106.206,107.288002 L106.206,106.012002 L103.258,106.012002 L103.258,101.524002 L101.85,102.426002 L101.85,106.012002 L99.892,106.012002 L99.892,107.288002 L101.85,107.288002 Z M112.3,105.836002 C110.518,105.836002 109.198,107.046002 109.198,108.806002 C109.198,110.874002 111.09,111.490002 112.586,112.084002 C113.62,112.458002 114.434,113.118002 114.434,114.020002 C114.434,115.252002 113.73,116.000002 112.432,116.000002 C110.936,116.000002 110.188,115.120002 109.638,113.602002 L108.428,114.240002 C108.934,115.912002 110.254,117.276002 112.432,117.276002 C114.544,117.276002 115.864,115.934002 115.864,113.800002 C115.864,111.930002 113.95,111.204002 112.454,110.610002 C111.42,110.192002 110.606,109.598002 110.606,108.784002 C110.606,107.794002 111.266,107.112002 112.234,107.112002 C113.048,107.112002 113.774,107.530002 114.412,108.388002 L115.38,107.552002 C114.566,106.408002 113.554,105.836002 112.3,105.836002 L112.3,105.836002 Z M132.056,113.734002 C131.44,115.252002 130.362,116.000002 128.822,116.000002 C127.7,116.000002 126.82,115.582002 126.226,114.746002 C125.632,113.888002 125.346,112.832002 125.346,111.556002 C125.346,110.280002 125.632,109.224002 126.226,108.388002 C126.82,107.530002 127.7,107.112002 128.822,107.112002 C130.362,107.112002 131.44,107.860002 132.056,109.378002 L133.288,108.894002 C132.518,106.848002 131.022,105.836002 128.822,105.836002 C127.282,105.836002 126.072,106.408002 125.214,107.530002 C124.356,108.652002 123.916,109.994002 123.916,111.556002 C123.916,113.118002 124.356,114.482002 125.214,115.604002 C126.072,116.726002 127.282,117.276002 128.822,117.276002 C131.022,117.276002 132.518,116.264002 133.288,114.218002 L132.056,113.734002 Z M136.874,115.560002 C137.82,116.704002 139.074,117.276002 140.636,117.276002 C142.198,117.276002 143.452,116.704002 144.398,115.560002 C145.344,114.416002 145.828,113.074002 145.828,111.556002 C145.828,110.038002 145.344,108.696002 144.398,107.552002 C143.452,106.408002 142.198,105.836002 140.636,105.836002 C139.074,105.836002 137.82,106.408002 136.874,107.552002 C135.928,108.696002 135.444,110.038002 135.444,111.556002 C135.444,113.074002 135.928,114.416002 136.874,115.560002 L136.874,115.560002 Z M137.864,108.432002 C138.546,107.552002 139.47,107.112002 140.636,107.112002 C141.802,107.112002 142.726,107.552002 143.386,108.432002 C144.068,109.312002 144.398,110.346002 144.398,111.556002 C144.398,112.766002 144.068,113.800002 143.386,114.680002 C142.726,115.560002 141.802,116.000002 140.636,116.000002 C139.47,116.000002 138.546,115.560002 137.864,114.680002 C137.204,113.800002 136.874,112.766002 136.874,111.556002 C136.874,110.346002 137.204,109.312002 137.864,108.432002 L137.864,108.432002 Z M157.576,109.488002 C157.576,107.178002 156.278,105.836002 154.166,105.836002 C152.582,105.836002 151.13,106.826002 150.36,108.322002 L150.36,106.012002 L148.996,106.012002 L148.996,117.100002 L150.36,117.100002 L150.36,112.238002 C150.36,110.698002 150.69,109.466002 151.372,108.520002 C152.054,107.574002 152.912,107.112002 153.946,107.112002 C155.464,107.112002 156.212,107.970002 156.212,109.664002 L156.212,117.100002 L157.576,117.100002 L157.576,109.488002 Z M161.58,107.288002 L161.58,113.954002 C161.58,116.176002 162.658,117.276002 164.352,117.276002 C165.166,117.276002 165.804,117.144002 166.288,116.880002 L165.914,115.648002 C165.54,115.890002 165.078,116.000002 164.528,116.000002 C163.494,116.000002 162.988,115.384002 162.988,114.174002 L162.988,107.288002 L165.936,107.288002 L165.936,106.012002 L162.988,106.012002 L162.988,101.524002 L161.58,102.426002 L161.58,106.012002 L159.622,106.012002 L159.622,107.288002 L161.58,107.288002 Z M177.838,110.940002 C177.838,109.422002 177.376,108.190002 176.474,107.244002 C175.572,106.298002 174.406,105.836002 172.976,105.836002 C171.502,105.836002 170.314,106.386002 169.412,107.464002 C168.51,108.542002 168.048,109.906002 168.048,111.556002 C168.048,113.206002 168.51,114.592002 169.412,115.670002 C170.314,116.748002 171.502,117.276002 172.976,117.276002 C175.088,117.276002 176.474,116.418002 177.596,114.218002 L176.386,113.624002 C175.572,115.318002 174.648,116.000002 172.976,116.000002 C170.798,116.000002 169.478,114.196002 169.478,111.556002 L177.838,111.556002 L177.838,110.940002 Z M172.976,107.112002 C174.934,107.112002 176.166,108.322002 176.43,110.280002 L169.566,110.280002 C169.94,108.410002 171.194,107.112002 172.976,107.112002 L172.976,107.112002 Z M182.81,111.050002 L179.07,117.100002 L180.5,117.100002 L183.558,112.260002 L186.616,117.100002 L188.046,117.100002 L184.306,111.050002 L187.43,106.012002 L185.912,106.012002 L183.558,109.840002 L181.204,106.012002 L179.686,106.012002 L182.81,111.050002 Z M191.016,107.288002 L191.016,113.954002 C191.016,116.176002 192.094,117.276002 193.788,117.276002 C194.602,117.276002 195.24,117.144002 195.724,116.880002 L195.35,115.648002 C194.976,115.890002 194.514,116.000002 193.964,116.000002 C192.93,116.000002 192.424,115.384002 192.424,114.174002 L192.424,107.288002 L195.372,107.288002 L195.372,106.012002 L192.424,106.012002 L192.424,101.524002 L191.016,102.426002 L191.016,106.012002 L189.058,106.012002 L189.058,107.288002 L191.016,107.288002 Z" id="Give-your"></path>
                <path d="M178.551383,49.7963152 C177.61688,50.2324164 176.718733,50.6529362 175.856914,51.0578873 C174.995095,51.4628383 174.190397,51.9145078 173.442795,52.4129091 C173.442795,51.0838389 173.39607,49.9313031 173.30262,48.9552672 C173.20917,47.9792312 173.084571,47.1174252 172.928821,46.3698232 C172.773071,45.6222212 172.612131,44.9628877 172.445997,44.3918028 C172.279863,43.820718 172.118924,43.2807913 171.963173,42.7720066 C171.807423,42.2632219 171.682824,41.7440617 171.589374,41.2145103 C171.495924,40.6849589 171.449199,40.0983078 171.449199,39.4545394 C171.5115,39.2261054 171.755505,38.8782681 172.181223,38.4110168 C172.606941,37.9437656 173.05861,37.4297969 173.536245,36.8690954 C174.013879,36.3083939 174.449974,35.7269344 174.844541,35.1246995 C175.239109,34.5224646 175.43639,33.9721547 175.43639,33.4737534 C175.43639,33.2245527 175.415624,32.9286313 175.37409,32.5859804 C175.332557,32.2433295 175.187192,31.9162586 174.937991,31.6047577 C174.688791,31.2932569 174.294229,31.0284852 173.754294,30.8104346 C173.214359,30.592384 172.446002,30.4833603 171.449199,30.4833603 C170.846964,30.4833603 170.301846,30.5716176 169.813828,30.7481347 C169.32581,30.9246519 168.879332,31.1530824 168.474381,31.4334331 C168.06943,31.7137839 167.700827,32.0304716 167.368559,32.3835059 C167.036291,32.7365402 166.735178,33.0999524 166.465211,33.4737534 C165.136141,35.1350911 164.056288,36.521249 163.225619,37.6322686 C162.39495,38.7432883 161.688892,39.6829683 161.107424,40.4513371 C160.525955,41.2197058 160.02237,41.8842309 159.596652,42.4449324 C159.170934,43.0056339 158.698498,43.5611354 158.17933,44.1114535 C157.660162,44.6617716 157.03717,45.2691891 156.310335,45.9337242 C155.967469,46.2472017 155.576084,46.5976452 155.136179,46.9850572 C155.136179,46.9850572 154.835408,47.0083967 153.804221,47.9091245 C152.773035,48.8098523 152.79738,48.8306675 152.369869,49.2044666 C151.942358,49.5782657 152.148876,49.4659941 152.036798,49.5959666 C151.934964,49.6899978 151.83313,49.7879306 151.731295,49.889765 C151.506246,50.1148146 151.300252,50.3612969 151.113311,50.6292155 C151.023989,50.7256845 150.934059,50.8218502 150.843523,50.9177126 C150.313971,51.4784141 149.789619,51.9871911 149.270451,52.444059 C148.751283,52.9009269 148.247698,53.2695307 147.75968,53.5498814 C147.271662,53.8302322 146.819992,53.9704055 146.404658,53.9704055 C145.636289,53.9704055 145.070405,53.8094658 144.706987,53.4875816 C144.343569,53.1656974 144.161863,52.6309623 144.161863,51.8833603 C144.161863,51.011158 144.369527,50.1389688 144.784862,49.2667665 C145.200196,48.3945641 145.719356,47.5171833 146.342358,46.6345976 C146.96536,45.7520119 147.640268,44.8746311 148.367103,44.0024288 C149.093939,43.1302264 149.768847,42.2580372 150.391849,41.3858349 C151.01485,40.5136325 151.534011,39.6466349 151.949345,38.7848159 C152.364679,37.922997 152.572344,37.0663826 152.572344,36.214947 C152.572344,35.3427446 152.458128,34.553621 152.229694,33.8475525 C152.00126,33.1414839 151.689764,32.539258 151.295197,32.0408567 C150.900629,31.5424554 150.438576,31.1582768 149.909025,30.8883094 C149.379473,30.618342 148.823972,30.4833603 148.242504,30.4833603 C147.100334,30.4833603 146.062013,30.6443 145.127511,30.9661842 C144.193008,31.2880684 143.403885,31.6774386 142.760116,32.1343065 C142.344782,32.4250406 141.778897,32.9753505 141.062445,33.7852526 C140.345994,34.5951548 139.55687,35.5192601 138.695051,36.5575961 C137.833232,37.5959322 136.955851,38.6861688 136.062882,39.8283385 C135.169913,40.9705082 134.34964,42.0192119 133.602038,42.9744812 L132.85444,42.5072322 L136.561281,36.9625452 C136.748181,36.6302777 137.127168,35.9294113 137.698253,34.8599251 C138.269338,33.7904389 138.928672,32.4769635 139.676274,30.9194593 C140.423876,29.3619552 141.202616,27.6175767 142.012518,25.6862715 C142.82242,23.7549664 143.570011,21.7665826 144.255313,19.7210605 C144.940615,17.6755384 145.506499,15.6352385 145.952984,13.6000998 C146.399469,11.564961 146.622707,9.66483448 146.622707,7.89966311 C146.622707,6.90286045 146.539642,5.97875519 146.373508,5.12731958 C146.207374,4.27588398 145.921836,3.54386801 145.516885,2.93124972 C145.111934,2.31863142 144.566816,1.84100398 143.881514,1.49835306 C143.196212,1.15570215 142.324023,0.984379264 141.26492,0.984379264 C139.915083,0.984379264 138.669098,1.26472581 137.526929,1.8254273 C136.384759,2.38612879 135.336055,3.14929438 134.380786,4.11494695 C133.425517,5.08059952 132.563711,6.20717729 131.795342,7.49471405 C131.026973,8.78225082 130.33649,10.1372591 129.723872,11.5597796 C129.111254,12.9823 128.571327,14.446332 128.104076,15.9519193 C127.636824,17.4575066 127.231879,18.9059638 126.889229,20.2973341 C126.546578,21.6887045 126.261039,22.9917968 126.032606,24.20665 C125.804172,25.4215032 125.617274,26.4546322 125.471907,27.3060678 C125.077339,29.7150075 124.739885,32.1965936 124.459534,34.7509004 C124.179183,37.3052072 123.955945,39.750452 123.789811,42.0867082 C123.678514,43.6518242 123.585858,45.1307149 123.511841,46.5233997 C123.058354,47.0291602 122.569546,47.5490489 122.045415,48.0830692 C120.944779,49.2044722 119.787051,50.2324095 118.572198,51.166912 C117.357345,52.1014145 116.147701,52.8749633 114.943231,53.4875816 C113.738762,54.1001999 112.638142,54.4065044 111.641339,54.4065044 C110.62377,54.4065044 109.793113,54.1832655 109.149345,53.736781 C108.505577,53.2902965 107.9968,52.7296034 107.622999,52.0546849 C107.249198,51.3797665 106.994809,50.6373673 106.859825,49.8274651 C106.724842,49.017563 106.657351,48.2388226 106.657351,47.4912206 C106.657351,46.9928193 106.678117,46.3750186 106.719651,45.6377999 C106.761184,44.9005813 106.854633,44.1270325 107,43.3171304 C107.145367,42.5072282 107.342648,41.6921466 107.591849,40.8718611 C107.841049,40.0515756 108.178503,39.314368 108.604221,38.6602162 C109.029939,38.0060645 109.543908,37.476521 110.146143,37.0715699 C110.748378,36.6666189 111.475202,36.4641464 112.326638,36.4641464 C112.679672,36.4641464 112.908102,36.6302777 113.011936,36.9625452 C113.11577,37.2948128 113.167686,37.710141 113.167686,38.2085423 C113.167686,38.5408098 113.152111,38.9146052 113.120961,39.3299397 C113.089811,39.7452741 113.074236,40.1398359 113.074236,40.5136369 C113.074236,41.4273727 113.224792,42.1438138 113.52591,42.6629819 C113.827027,43.1821499 114.465594,43.4417301 115.44163,43.4417301 C116.085399,43.4417301 116.666858,43.2755988 117.186026,42.9433312 C117.705194,42.6110637 118.14648,42.1697775 118.509898,41.6194593 C118.873316,41.0691412 119.148471,40.4513405 119.335371,39.7660387 C119.522272,39.0807368 119.615721,38.3850621 119.615721,37.6789935 C119.615721,36.6614242 119.413248,35.7113609 119.008297,34.8287752 C118.603346,33.9461895 118.042653,33.1830239 117.326201,32.5392555 C116.609749,31.8954872 115.747943,31.3919017 114.740757,31.0284841 C113.733571,30.6650664 112.638143,30.4833603 111.45444,30.4833603 C110.063069,30.4833603 108.785935,30.7377489 107.622999,31.2465336 C106.460062,31.7553182 105.406167,32.4406098 104.461281,33.3024288 C103.516395,34.1642477 102.685739,35.166227 101.969287,36.3083967 C101.697053,36.7423921 101.441312,37.1846302 101.202061,37.6351131 C99.674569,36.069574 98.2728363,34.8910802 96.7672489,33.8631274 C95.2616616,32.8351747 93.6470731,32.0149015 91.9234352,31.4022832 C90.1997973,30.7896649 88.3515868,30.4833603 86.3787482,30.4833603 C84.073642,30.4833603 81.997001,30.9038802 80.1487627,31.7449324 C78.3005245,32.5859846 76.7378521,33.7385204 75.4606987,35.2025743 C74.1835453,36.6666282 73.2023324,38.3902403 72.5170306,40.3734622 C71.8317287,42.3566842 71.489083,44.4904329 71.489083,46.7747723 C71.489083,47.2496369 71.5047767,47.7228029 71.5361644,48.1942714 C71.3649739,48.4112039 71.1935305,48.6233359 71.0218341,48.8306675 C70.5441995,49.4121357 70.0458056,49.9780204 69.5266376,50.5283385 C69.0074695,51.0786566 68.4831176,51.5666673 67.9535662,51.9923851 C67.4240148,52.4181029 66.8944714,52.7607487 66.3649199,53.0203327 C65.8353685,53.2799167 65.3317831,53.4097068 64.8541485,53.4097068 C64.0027129,53.4097068 63.3537625,53.1345518 62.907278,52.5842337 C62.4607935,52.0339156 62.2375546,51.1461515 62.2375546,49.9209149 C62.2375546,48.944879 62.3569614,47.7871516 62.5957787,46.447698 C62.8345961,45.1082445 63.1305174,43.6494041 63.4835517,42.0711333 C63.8365859,40.4928624 64.2155729,38.8211664 64.620524,37.055995 C65.0254751,35.2908236 65.4044621,33.4893375 65.7574964,31.6514826 C66.1105306,29.8136277 66.406452,27.955034 66.6452693,26.0756456 C66.8840866,24.1962573 67.0034934,22.3636216 67.0034934,20.5776835 C67.0034934,18.6671451 66.826979,16.8552757 66.4739447,15.1420212 C66.1209104,13.4287666 65.6121334,11.9335851 64.9475983,10.6564317 C64.2830631,9.37927826 63.4575983,8.36691575 62.471179,7.61931376 C61.4847597,6.87171177 60.358182,6.49791638 59.0914119,6.49791638 C57.2639404,6.49791638 55.4987955,6.95477741 53.7959243,7.86851318 C52.0930531,8.78224895 50.5044227,10.0957244 49.0299854,11.808979 C47.5555482,13.5222335 46.2264979,15.6040662 45.0427948,18.0545394 C43.8590916,20.5050126 42.8623039,23.2669452 42.0524017,26.34042 L41.3982533,26.3715699 C41.5851538,24.9178994 41.7616683,23.5680827 41.927802,22.3220794 C41.9901022,21.8029114 42.057593,21.2785595 42.1302766,20.7490081 C42.2029601,20.2194567 42.2652593,19.7262544 42.3171761,19.2693865 C42.3690929,18.8125187 42.4106258,18.4075737 42.4417758,18.0545394 C42.4729259,17.7015051 42.4885007,17.441925 42.4885007,17.2757912 C42.4885007,15.4483197 42.327561,13.8700725 42.0056769,12.5410023 C41.6837927,11.2119321 41.2321232,10.1113123 40.650655,9.23910998 C40.0691868,8.36690765 39.3735121,7.72314893 38.5636099,7.30781449 C37.7537077,6.89248005 36.8711353,6.68481595 35.9158661,6.68481595 C34.6283293,6.68481595 33.3304287,7.03784492 32.0221252,7.74391347 C30.7138217,8.44998202 29.4211126,9.44676972 28.1439592,10.7343065 C26.8668058,12.0218432 25.6260128,13.5637492 24.4215429,15.3600707 C23.2170731,17.1563921 22.0801121,19.1603507 21.0106259,21.3720066 C19.9411397,23.5836625 18.9547352,25.9614165 18.0513828,28.50534 C17.1480304,31.0492634 16.3640984,33.7021723 15.6995633,36.4641464 C16.0110641,34.9689424 16.3329435,33.3595456 16.6652111,31.6359076 C16.9974786,29.9122697 17.3037832,28.1938493 17.5841339,26.4805947 C17.8644847,24.7673401 18.0981068,23.1319853 18.2850073,21.5744812 C18.4719078,20.016977 18.5653566,18.6567771 18.5653566,17.4938407 C18.5653566,15.97787 18.4667162,14.5969037 18.2694323,13.3509004 C18.0721485,12.1048971 17.7243111,11.0406185 17.2259098,10.1580328 C16.7275084,9.27544715 16.0526001,8.5901556 15.2011645,8.10213763 C14.3497289,7.61411967 13.2802587,7.37011434 11.992722,7.37011434 C10.9959193,7.37011434 9.9524072,7.57777845 8.86215429,7.99311289 C7.77190139,8.40844733 6.70243125,9.10931368 5.65371179,10.095733 C4.60499233,11.0821523 3.60820463,12.4008193 2.66331878,14.0517737 C1.71843293,15.7027281 0.8722017,17.7534112 0.124599709,20.2038844 C0.041532821,20.2869512 0,20.3907833 0,20.5153836 C0,20.7438176 0.0311496157,20.9982061 0.0934497817,21.2785568 C0.155749948,21.5589076 0.233623987,21.8236793 0.327074236,22.07288 C0.420524485,22.3220807 0.524356537,22.5349364 0.638573508,22.7114535 C0.752790479,22.8879706 0.861814134,22.9762279 0.965647744,22.9762279 C1.2979153,22.9762279 1.59902825,22.908737 1.86899563,22.7737534 C2.13896302,22.6387697 2.33624392,22.4155307 2.46084425,22.1040299 C3.12537935,21.2110609 3.85220372,20.3752129 4.64133916,19.5964608 C5.43047459,18.8177087 6.21959819,18.1376088 7.00873362,17.5561405 C7.79786906,16.9746723 8.55065144,16.5126197 9.26710335,16.1699688 C9.98355526,15.8273179 10.5909728,15.655995 11.0893741,15.655995 C11.4008749,15.655995 11.634497,15.7494438 11.7902475,15.9363443 C11.9459979,16.1232448 12.0550215,16.3464837 12.1173217,16.6060678 C12.1796219,16.8656518 12.2107715,17.1408067 12.2107715,17.4315408 L12.2107715,18.1479892 C12.0446377,20.3077282 11.8888896,22.3324533 11.7435226,24.222225 C11.5981555,26.1119967 11.4372158,27.9446324 11.2606987,29.7201871 C11.0841816,31.4957419 10.8817091,33.2608867 10.6532751,35.0156748 C10.4248412,36.7704628 10.1548778,38.5823321 9.843377,40.4513371 C9.53187617,42.320342 9.15808078,44.2983426 8.72197962,46.3853982 C8.28587846,48.4724537 7.7771014,50.7308009 7.19563319,53.1605074 C7.02949941,53.8873426 6.90490095,54.6089754 6.82183406,55.3254273 C6.73876717,56.0418792 6.69723435,56.8258112 6.69723435,57.6772468 C6.69723435,58.113348 6.81144961,58.5027182 7.03988355,58.8453691 C7.26831749,59.18802 7.57981365,59.4787497 7.97438137,59.717567 C8.36894909,59.9563843 8.82061851,60.1328988 9.3294032,60.2471158 C9.83818789,60.3613328 10.3625398,60.4184404 10.9024745,60.4184404 C11.3593424,60.4184404 11.8369699,60.371716 12.3353712,60.2782657 C12.8337725,60.1848155 13.3010167,60.0238758 13.7371179,59.7954419 C14.1732191,59.5670079 14.5470145,59.2555118 14.8585153,58.860944 C15.1700161,58.4663763 15.367297,57.9575993 15.4503639,57.3345976 C15.7203313,55.3409923 16.1252763,53.2072436 16.6652111,50.9332876 C17.2051458,48.6593315 17.8281381,46.3334935 18.5342067,43.9557039 C19.2402752,41.5779142 20.013824,39.2001602 20.8548763,36.8223705 C21.6959285,34.4445809 22.5681178,32.1654673 23.4714702,29.9849615 C24.3748226,27.8044557 25.283353,25.7745391 26.1970888,23.8951507 C27.1108246,22.0157624 27.9985886,20.3804076 28.8604076,18.9890372 C29.7222265,17.5976668 30.5269249,16.5074303 31.2745269,15.7182948 C32.0221289,14.9291594 32.6866541,14.5345976 33.2681223,14.5345976 C33.9741908,14.5345976 34.5400755,14.7214953 34.9657933,15.0952963 C35.3915111,15.4690973 35.7185821,16.009024 35.947016,16.7150925 C36.17545,17.4211611 36.3208148,18.2829671 36.383115,19.3005365 C36.4454152,20.3181058 36.4765648,21.4706416 36.4765648,22.7581784 C36.4765648,24.6271834 36.3519663,26.6726748 36.1027656,28.8947141 C35.853565,31.1167533 35.5368772,33.3647172 35.1526929,35.6386733 C34.7685085,37.9126294 34.3531803,40.1450185 33.9066958,42.3359076 C33.4602113,44.5267968 33.044883,46.5411386 32.6606987,48.3789935 C32.2765143,50.2168484 31.9598266,51.7950956 31.7106259,53.1137825 C31.4614252,54.4324693 31.3368268,55.3617662 31.3368268,55.901701 C31.3368268,56.7116031 31.4354672,57.3968947 31.6327511,57.9575961 C31.830035,58.5182976 32.0896151,58.9803503 32.4114993,59.3437679 C32.7333835,59.7071855 33.1071789,59.9719573 33.5328967,60.1380911 C33.9586145,60.3042248 34.3895175,60.3872905 34.8256186,60.3872905 C35.32402,60.3872905 35.8224138,60.3301828 36.3208151,60.2159659 C36.8192165,60.1017489 37.2916523,59.9200428 37.7381368,59.6708421 C38.1846213,59.4216415 38.5791831,59.0945705 38.9218341,58.6896194 C39.264485,58.2846684 39.5188735,57.7914661 39.6850073,57.2099979 C40.0588083,55.1333257 40.4637533,52.9320862 40.8998544,50.6062133 C41.3359556,48.2803405 41.8031998,45.9233529 42.3016012,43.5351798 C42.8000025,41.1470068 43.3399292,38.7744444 43.9213974,36.4174215 C44.5028656,34.0603985 45.1310495,31.807243 45.805968,29.6578873 C46.4808864,27.5085315 47.1973276,25.5097645 47.955313,23.6615263 C48.7132983,21.813288 49.5283799,20.2142744 50.4005822,18.8644375 C51.2727846,17.5146006 52.1968898,16.4555136 53.1729258,15.6871449 C54.1489617,14.9187762 55.1872822,14.5345976 56.2879185,14.5345976 C56.8693867,14.5345976 57.3366309,14.6799625 57.6896652,14.9706966 C58.0426995,15.2614307 58.3126628,15.6715673 58.4995633,16.2011187 C58.6864638,16.7306701 58.8110623,17.3744288 58.8733624,18.1324142 C58.9356626,18.8903996 58.9668122,19.7366308 58.9668122,20.6711333 C58.9668122,22.2078707 58.8629802,23.8120759 58.655313,25.483797 C58.4476457,27.1555181 58.1880656,28.8479806 57.8765648,30.5612352 C57.5650639,32.2744897 57.2224182,33.9929102 56.8486172,35.7165481 C56.4748162,37.440186 56.1165956,39.1326485 55.7739447,40.7939863 C55.4312938,42.455324 55.1249892,44.0699124 54.8550218,45.6377999 C54.5850544,47.2056874 54.40854,48.6852942 54.3254731,50.0766646 C54.3047063,50.2635651 54.2891315,50.4504628 54.2787482,50.6373633 C54.2683648,50.8242638 54.2631732,51.0007782 54.2631732,51.166912 C54.2631732,52.662116 54.5123701,53.9859747 55.0107715,55.1385277 C55.5091728,56.2910808 56.1736979,57.2567189 57.0043668,58.035471 C57.8350357,58.814223 58.785099,59.4008741 59.8545852,59.7954419 C60.9240713,60.1900096 62.0194995,60.3872905 63.1409025,60.3872905 C64.3038389,60.3872905 65.4719495,60.210776 66.6452693,59.8577417 C67.8185891,59.5047074 68.9763165,58.9284395 70.1184862,58.1289207 C71.2191771,57.3584371 72.3005666,56.3710027 73.3626848,55.1665899 C73.5264485,55.4718901 73.7014293,55.7688435 73.8876274,56.0574506 C74.7182962,57.3449874 75.7825748,58.3884995 77.0804949,59.1880183 C78.378415,59.9875371 79.9410874,60.3872905 81.768559,60.3872905 C83.035329,60.3872905 84.2293976,60.1692432 85.3508006,59.733142 C86.4722036,59.2970408 87.5053325,58.7051981 88.4502183,57.9575961 C89.3951042,57.2099942 90.2361438,56.3274217 90.9733624,55.3098523 C91.7105811,54.292283 92.3335734,53.2020464 92.8423581,52.03911 C93.3511428,50.8761735 93.740513,49.6717217 94.0104803,48.4257184 C94.2804477,47.1797151 94.4154294,45.9441137 94.4154294,44.7188771 C94.4154294,43.4936405 94.2648729,42.2113146 93.9637555,40.8718611 C93.662638,39.5324075 93.2109686,38.2604649 92.6087336,37.055995 L92.857933,36.7133458 C93.605535,37.2117471 94.4984907,37.8295478 95.5368268,38.5667665 C96.5751629,39.3039851 97.6290582,40.0879171 98.6985444,40.918586 C98.9957588,41.1494321 99.2885616,41.3818811 99.5769533,41.6159335 C99.3673636,42.3204954 99.1939693,43.0329252 99.0567686,43.7532293 C98.8075679,45.0615328 98.6829694,46.3179007 98.6829694,47.5223705 C98.6829694,49.204475 98.9321664,50.824255 99.4305677,52.3817592 C99.928969,53.9392633 100.666177,55.3098464 101.642213,56.4935496 C102.618248,57.6772527 103.827892,58.6221244 105.271179,59.3281929 C106.714466,60.0342615 108.391354,60.3872905 110.301892,60.3872905 C111.402529,60.3872905 112.487573,60.2159676 113.55706,59.8733167 C114.626546,59.5306658 115.654483,59.0841879 116.640902,58.5338698 C117.627322,57.9835517 118.572193,57.3553678 119.475546,56.6492992 C120.378898,55.9432307 121.214746,55.2164063 121.983115,54.4688043 C122.42675,54.0404672 122.862871,53.5977325 123.291478,53.1405994 C123.291412,54.1988431 123.327753,55.1177568 123.400437,55.9795758 C123.47312,56.8413947 123.644443,57.5993687 123.91441,58.2535205 C124.184378,58.9076722 124.57894,59.4268325 125.098108,59.8110168 C125.617276,60.1952012 126.323334,60.3872905 127.216303,60.3872905 C127.880838,60.3872905 128.467489,60.2263508 128.976274,59.9044666 C129.485058,59.5825824 129.978261,59.0063145 130.455895,58.1756456 L139.613974,42.1022832 C140.278509,40.9601135 140.891118,40.1606067 141.45182,39.7037388 C142.012521,39.2468709 142.469382,39.0184404 142.822416,39.0184404 C143.11315,39.0184404 143.336389,39.1534221 143.49214,39.4233895 C143.64789,39.6933568 143.725764,40.0463858 143.725764,40.482487 L143.725764,40.918586 C143.725764,40.918586 143.430131,41.6338698 143.222853,41.8680765 C143.015575,42.1022832 142.762301,42.3618644 142.450801,42.6629819 C142.1393,42.9640994 141.825621,43.2392537 141.45182,43.6130547 C139.016157,45.4196049 138.700246,44.791555 138.118777,45.8402745 C137.537309,46.8889939 137.438719,46.8370721 137.012955,48.4257184 C136.587191,50.0143647 136.561281,51.2447868 136.561281,52.03911 C136.561281,52.8334331 136.717031,53.5239208 136.717031,54.0015554 C136.717031,54.8114575 136.815671,55.5953895 137.012955,56.3533749 C137.210239,57.1113602 137.578843,57.7914602 138.118777,58.3936951 C138.658712,58.9959301 139.401111,59.4787491 140.345997,59.8421667 C141.290883,60.2055844 142.51091,60.3872905 144.006114,60.3872905 C145.148283,60.3872905 146.33716,60.2211592 147.57278,59.8888916 C148.8084,59.5566241 150.002469,59.0945715 151.155022,58.5027199 C152.307575,57.9108683 153.377045,57.2151935 154.363464,56.4156748 C154.525397,56.2844244 154.682712,56.1513555 154.835409,56.016468 C154.986318,56.4979484 155.187227,56.9373238 155.438137,57.3345976 C155.936538,58.123733 156.585488,58.7623002 157.385007,59.2503181 C158.184526,59.7383361 159.113823,60.0965567 160.172926,60.3249906 C161.232029,60.5534246 162.374181,60.6676398 163.599418,60.6676398 C165.302289,60.6676398 167.103775,60.4755505 169.00393,60.0913662 C170.904085,59.7071818 172.783445,59.1828299 174.642067,58.5182948 C176.500689,57.8537597 178.276217,57.0854025 179.968705,56.2132002 C180.105919,56.1424886 180.241802,56.0713676 180.376354,55.9998372 C180.768269,56.8020168 181.250189,57.5013236 181.822125,58.0977708 C182.54896,58.8557562 183.384808,59.4372157 184.329694,59.8421667 C185.27458,60.2471178 186.24541,60.4495903 187.242213,60.4495903 C188.384382,60.4495903 189.562876,60.1432858 190.777729,59.5306675 C191.992582,58.9180492 193.160693,58.1133508 194.282096,57.1165481 L193.441048,60.0134913 C191.945844,61.2387279 190.466237,62.5262454 189.002183,63.8760823 C187.53813,65.2259192 186.136397,66.5965023 184.796943,67.9878727 C183.45749,69.3792431 182.216697,70.7757842 181.074527,72.1775379 C179.932357,73.5792917 178.945953,74.9291083 178.115284,76.2270285 C177.284615,77.5249486 176.630473,78.76055 176.152838,79.9338698 C175.675204,81.1071896 175.43639,82.1610849 175.43639,83.0955874 C175.43639,84.4454243 175.664821,85.5252777 176.121689,86.3351798 C176.578556,87.145082 177.154824,87.7680743 177.850509,88.2041755 C178.546195,88.6402766 179.304169,88.9310064 180.124454,89.0763734 C180.94474,89.2217405 181.707905,89.2944229 182.413974,89.2944229 C184.199912,89.2944229 185.830075,88.9881184 187.304512,88.3755001 C188.77895,87.7628818 190.113192,86.9062673 191.307278,85.8056311 C192.501365,84.7049948 193.570835,83.3863278 194.515721,81.8495903 C195.460606,80.3128529 196.301646,78.625582 197.038865,76.7877272 C197.776083,74.9498723 198.41465,72.9770633 198.954585,70.869241 C199.49452,68.7614187 199.961764,66.5965204 200.356332,64.3744812 C202.391471,63.1284778 204.291597,61.8409604 206.056769,60.5118902 C206.804371,59.9511887 207.567536,59.3541544 208.346288,58.7207694 C209.12504,58.0873843 209.872631,57.4332424 210.589083,56.758324 C211.305535,56.0834055 211.959677,55.4084971 212.551528,54.7335787 C213.14338,54.0586602 213.626199,53.3993267 214,52.7555583 L212.504803,45.8402745 C211.1342,47.813113 209.898598,49.4588511 208.797962,50.7775379 C207.697326,52.0962248 206.700538,53.1916529 205.807569,54.0638552 C204.9146,54.9360576 204.10471,55.6317323 203.377875,56.1509004 C202.65104,56.6700684 201.976131,57.106163 201.35313,57.4591973 C201.893064,53.9288546 202.422608,50.6269953 202.941776,47.5535205 C203.149443,46.245217 203.36749,44.9317415 203.595924,43.6130547 C203.824358,42.2943678 204.047597,41.0431916 204.265648,39.8594884 C204.483698,38.6757853 204.686171,37.6166983 204.873071,36.6821959 C205.059972,35.7476934 205.21572,35.0104858 205.34032,34.470551 C205.40262,34.2213504 205.43377,34.0033031 205.43377,33.8164026 C205.43377,33.2141676 205.215723,32.7728814 204.779622,32.4925306 C204.34352,32.2121799 203.803594,32.0720066 203.159825,32.0720066 C202.619891,32.0720066 202.048814,32.1654555 201.446579,32.352356 C200.844344,32.5392565 200.268077,32.819603 199.717758,33.193404 C199.16744,33.567205 198.67943,34.0292576 198.253712,34.5795758 C197.827994,35.1298939 197.532073,35.7580778 197.365939,36.4641464 L195.185444,45.622225 C195.102377,46.2867601 194.920671,47.1174165 194.64032,48.1142191 C194.359969,49.1110218 193.991366,50.0766599 193.534498,51.0111624 C193.07763,51.9456649 192.537703,52.7451717 191.914702,53.4097068 C191.2917,54.0742419 190.596025,54.4065044 189.827656,54.4065044 C189.350022,54.4065044 188.95546,54.2870976 188.643959,54.0482803 C188.332458,53.809463 188.083261,53.4979668 187.896361,53.1137825 C187.70946,52.7295981 187.57967,52.2935035 187.506987,51.8054855 C187.434303,51.3174676 187.397962,50.8138821 187.397962,50.2947141 C187.397962,49.2979114 187.481028,48.1453756 187.647162,46.8370721 C187.813295,45.5287686 188.036534,44.1945268 188.316885,42.8343065 C188.597236,41.4740862 188.919115,40.1450359 189.282533,38.8471158 C189.64595,37.5491957 190.014554,36.4226179 190.388355,35.4673487 C190.512955,35.1558479 190.601213,34.8651181 190.65313,34.5951507 C190.705046,34.3251833 190.731004,34.0759864 190.731004,33.8475525 C190.731004,33.0791838 190.471424,32.5132991 189.952256,32.1498814 C189.433088,31.7864638 188.810096,31.6047577 188.083261,31.6047577 C187.231825,31.6047577 186.359636,31.848763 185.466667,32.336781 C184.573698,32.824799 183.888406,33.5360485 183.410771,34.470551 C182.767003,35.7788545 182.195927,37.0715636 181.697525,38.348717 C181.199124,39.6258704 180.783796,40.949729 180.451528,42.3203327 C180.119261,43.6909363 179.864872,45.1342019 179.688355,46.6501726 C179.588769,47.5054436 179.517275,48.4069759 179.473873,49.3547784 C179.163617,49.5069256 178.85612,49.6541044 178.551383,49.7963152 Z M82.9834061,54.4065044 C83.6894747,54.4065044 84.3747662,54.0482839 85.0393013,53.331832 C85.7038364,52.61538 86.2852959,51.7120412 86.7836972,50.6217883 C87.2820986,49.5315354 87.681852,48.3270836 87.9829694,47.0083967 C88.2840869,45.6897099 88.4346434,44.4281504 88.4346434,43.2236806 C88.4346434,42.2684114 88.3619609,41.3806473 88.2165939,40.5603618 C88.0712268,39.7400763 87.8531795,39.0288267 87.5624454,38.4265918 C87.2717113,37.8243568 86.8979159,37.3467294 86.441048,36.9936951 C85.9841802,36.6406609 85.4338703,36.4641464 84.7901019,36.4641464 C83.9386663,36.4641464 83.1287763,36.8275586 82.3604076,37.5543938 C81.5920389,38.2812291 80.9171305,39.210526 80.3356623,40.3423123 C79.7541941,41.4740987 79.2973331,42.7252749 78.9650655,44.0958785 C78.632798,45.4664822 78.4666667,46.7851493 78.4666667,48.0519193 C78.4666667,48.9241216 78.5497323,49.7443948 78.7158661,50.5127635 C78.8819999,51.2811323 79.14158,51.950849 79.4946143,52.5219338 C79.8476485,53.0930187 80.3148928,53.5498797 80.896361,53.8925306 C81.4778292,54.2351816 82.173504,54.4065044 82.9834061,54.4065044 L82.9834061,54.4065044 L82.9834061,54.4065044 Z M139.707424,7.99311289 C139.042888,7.99311289 138.471812,8.20077699 137.994178,8.61611143 C137.516543,9.03144587 137.064874,9.62328857 136.639156,10.3916573 C136.213438,11.160026 135.787727,12.0945145 135.362009,13.1951507 C134.936291,14.295787 134.453472,15.5210052 133.913537,16.8708421 C133.58127,18.0545453 133.274965,19.2797635 132.994614,20.5465336 C132.714264,21.8133036 132.459875,23.074863 132.231441,24.3312497 C132.003007,25.5876364 131.800535,26.8284294 131.624017,28.053666 C131.4475,29.2789026 131.296944,30.4314384 131.172344,31.5113079 C130.860843,34.0656147 130.611646,36.5783504 130.424745,39.0495903 C130.881613,37.6789867 131.380007,36.1889967 131.919942,34.5795758 C132.459877,32.9701548 132.994612,31.3815244 133.524163,29.8136369 C134.053714,28.2457494 134.552108,26.760951 135.01936,25.3591973 C135.486611,23.9574436 135.875981,22.7685666 136.187482,21.7925306 C136.332849,21.3356628 136.540513,20.7645865 136.81048,20.0792847 C137.080448,19.3939828 137.371177,18.6567753 137.682678,17.8676398 C137.994179,17.0785044 138.305675,16.2582312 138.617176,15.4067956 C138.928677,14.55536 139.214215,13.7350868 139.473799,12.9459513 C139.733383,12.1568159 139.946239,11.4196083 140.112373,10.7343065 C140.278506,10.0490047 140.361572,9.46754517 140.361572,8.98991056 C140.361572,8.32537546 140.143525,7.99311289 139.707424,7.99311289 L139.707424,7.99311289 L139.707424,7.99311289 Z M157.462882,52.4129091 C157.712083,52.4129091 157.987238,52.5686572 158.288355,52.880158 C158.589473,53.1916588 158.93731,53.5343046 159.331878,53.9081056 C159.726445,54.2819066 160.183306,54.6245524 160.702475,54.9360532 C161.221643,55.247554 161.813485,55.4033021 162.47802,55.4033021 C163.287923,55.4033021 163.957639,55.2683204 164.487191,54.9983531 C165.016742,54.7283857 165.437262,54.3701651 165.748763,53.9236806 C166.060264,53.4771961 166.278311,52.9580358 166.402911,52.3661842 C166.527512,51.7743326 166.589811,51.1565319 166.589811,50.5127635 C166.589811,49.9520621 166.55347,49.3809858 166.480786,48.7995175 C166.408102,48.2180493 166.314654,47.6625479 166.200437,47.1329964 C166.08622,46.603445 165.961621,46.1050512 165.826638,45.6377999 C165.691654,45.1705487 165.572247,44.7707953 165.468413,44.4385277 L157.462882,52.4129091 L157.462882,52.4129091 L157.462882,52.4129091 Z M185.264192,82.5504637 C186.042944,82.041679 186.759385,81.3719623 187.413537,80.5412934 C188.067689,79.7106245 188.664723,78.7657528 189.204658,77.70665 C189.744593,76.6475472 190.22222,75.5625022 190.637555,74.4514826 C191.052889,73.340463 191.405918,72.255418 191.696652,71.1963152 C191.987386,70.1372124 192.215817,69.1923407 192.381951,68.3616718 C191.572048,68.9016066 190.746584,69.5453653 189.905531,70.2929673 C189.064479,71.0405693 188.244206,71.8452677 187.444687,72.7070867 C186.645168,73.5689057 185.887194,74.4566697 185.170742,75.3704055 C184.45429,76.2841412 183.826107,77.1615221 183.286172,78.0025743 C182.746237,78.8436266 182.320526,79.6275586 182.009025,80.3543938 C181.697524,81.0812291 181.541776,81.683455 181.541776,82.1610896 C181.541776,82.9294583 181.957104,83.3136369 182.787773,83.3136369 C183.659975,83.3136369 184.48544,83.0592484 185.264192,82.5504637 Z" id="Mocksy"></path>
            </g>
        </g>
    </g>
</svg>